<svg xmlns="http://www.w3.org/2000/svg" viewBox="0 0 20 20">
  <path d="M15 1a1 1 0 0 1 2 0v2h2a1 1 0 0 1 0 2h-2v2a1 1 0 0 1-2 0V5h-2a1 1 0 0 1 0-2h2zm-2 0a3 3 0 0 0-3 3c0 .77.292 1.469.769 2H2v11h16V9.231A3 3 0 0 0 19 7a3 3 0 0 0 1-.175V18c0 .55-.45 1-1 1H1c-.55 0-1-.45-1-1V2c0-.55.45-1 1-1zm-2.5 11c.28 0 .5.22.5.5s-.22.5-.5.5h-7c-.28 0-.5-.22-.5-.5s.22-.5.5-.5zm-2-2c.28 0 .5.22.5.5s-.22.5-.5.5h-5c-.28 0-.5-.22-.5-.5s.22-.5.5-.5zm4-2c.28 0 .5.22.5.5s-.22.5-.5.5h-9c-.28 0-.5-.22-.5-.5s.22-.5.5-.5z"/>
</svg>
