<svg xmlns="http://www.w3.org/2000/svg" viewBox="0 0 20 20">
  <path d="M19 0a1 1 0 0 1 .993.883L20 1v18a1 1 0 0 1-.883.993L19 20h-4a1 1 0 0 1-.117-1.993L15 18h3V2h-3a1 1 0 0 1-.993-.883L14 1a1 1 0 0 1 .883-.993L15 0zM5 0a1 1 0 0 1 .117 1.993L5 2H2v16h3a1 1 0 0 1 .993.883L6 19a1 1 0 0 1-.883.993L5 20H1a1 1 0 0 1-.993-.883L0 19V1A1 1 0 0 1 .883.007L1 0zm3.103 4A1.563 1.563 0 0 0 6.54 5.563v2.473c0 .38-.194.734-.514.94l-.718.46a.67.67 0 0 0 0 1.127l.718.46c.32.206.514.56.514.94v2.474c0 .863.7 1.563 1.563 1.563h.344a.67.67 0 0 0 0-1.34h-.345a.223.223 0 0 1-.224-.223v-2.473a2.46 2.46 0 0 0-.98-1.965 2.46 2.46 0 0 0 .98-1.963V5.563a.223.223 0 0 1 .224-.224h.344a.67.67 0 0 0 0-1.339zm3.607 0c.864 0 1.563.7 1.563 1.563v2.473c0 .38.195.734.515.94l.717.46a.67.67 0 0 1 0 1.127l-.718.46a1.12 1.12 0 0 0-.513.94v2.474A1.563 1.563 0 0 1 11.711 16h-.344a.67.67 0 0 1 0-1.34h.344a.223.223 0 0 0 .224-.223v-2.473c0-.777.366-1.502.98-1.965a2.46 2.46 0 0 1-.98-1.963V5.563a.224.224 0 0 0-.224-.224h-.344a.67.67 0 0 1 0-1.339z"/>
</svg>
