<svg xmlns="http://www.w3.org/2000/svg" viewBox="0 0 20 20">
  <path d="M8.533 17.357q.71.142 1.467.143V20c-.668 0-1.32-.067-1.951-.192zm3.417 2.45A10 10 0 0 1 10 20v-2.5q.758-.002 1.467-.143zm-8.188-5.642a7.6 7.6 0 0 0 2.073 2.073l-.696 1.038-.493.738-.203.3a10.1 10.1 0 0 1-2.757-2.758zm14.545 1.386.007.005a10.1 10.1 0 0 1-2.758 2.758l-.696-1.037-.695-1.039a7.6 7.6 0 0 0 2.073-2.073zM0 10c0-.668.067-1.32.191-1.951l1.226.242 1.226.242a7.6 7.6 0 0 0 0 2.934l-1.227.241.001.001-1.226.241A10 10 0 0 1 0 10m20 0c0 .668-.068 1.32-.192 1.95l-1.225-.241-1.226-.242q.142-.71.143-1.467-.002-.758-.143-1.467l2.45-.484q.191.948.193 1.951M5.14 2.723l.695 1.039a7.6 7.6 0 0 0-2.073 2.073L1.686 4.443a10.1 10.1 0 0 1 2.757-2.757zm10.416-1.037c1.09.73 2.028 1.667 2.758 2.757l-1.037.697v-.001l-1.039.696a7.6 7.6 0 0 0-2.073-2.073zM10 0c.667 0 1.32.067 1.95.191l-.483 2.452a7.6 7.6 0 0 0-2.934 0L8.05.19A10 10 0 0 1 10 0"/>
</svg>
