<svg xmlns="http://www.w3.org/2000/svg" viewBox="0 0 20 20">
  <path d="M6 1a1 1 0 0 1 1 1v2h6V2a1 1 0 1 1 2 0v2h2.038c.216 0 .453 0 .65.022.202.022.584.086.894.396s.374.692.396.893c.022.198.022.435.022.65v6.077c0 .216 0 .453-.022.65-.022.202-.086.584-.396.894s-.692.374-.893.396a6 6 0 0 1-.65.022H15v4a1 1 0 1 1-2 0v-4H7v4a1 1 0 1 1-2 0v-4H2.962c-.216 0-.453 0-.65-.022-.202-.022-.584-.086-.894-.396s-.374-.692-.396-.893C1 12.49 1 12.254 1 12.039V5.961c0-.216 0-.453.022-.65.022-.202.086-.584.396-.894s.692-.374.893-.396C2.51 4 2.746 4 2.961 4H5V2a1 1 0 0 1 1-1m0 5H4.201l4 6h2.596l-4-6zm3.202 0 4 6h2.596l-4-6zm5 0L17 10.197V6zm-8.404 6L3 7.803V12z"/>
</svg>
