<svg xmlns="http://www.w3.org/2000/svg" viewBox="0 0 20 20">
  <path d="m14.5 2 1.047 2.953L18.5 6l-2.953 1.047L14.5 10l-1.046-2.953L10.5 6l2.954-1.047zM10 1c1.08 0 2.11.203 3.06.57l-.668 1.886a6.5 6.5 0 1 0 4.081 5.464l.248-.7 1.577-.558a8.47 8.47 0 0 1-2.23 7.786c.267.271.432.642.432 1.052 0 .822-.422 1.452-.862 1.868-.437.413-.988.716-1.545.939-1.123.449-2.57.693-4.093.693s-2.97-.244-4.093-.693c-.557-.223-1.108-.526-1.545-.939-.44-.416-.862-1.046-.862-1.868 0-.41.164-.781.43-1.052A8.5 8.5 0 0 1 10 1m0 7 .764 2.236L13 11l-2.236.764L10 14l-.764-2.236L7 11l2.236-.764z"/>
</svg>
