<svg xmlns="http://www.w3.org/2000/svg" viewBox="0 0 20 20">
  <path d="M18.75 0C19.44 0 20 .56 20 1.25v17.5c0 .69-.56 1.25-1.25 1.25H1.25C.56 20 0 19.44 0 18.75V1.25C0 .56.56 0 1.25 0zM10.5 10v7l4.964-2.397c.474-.215.786-.735.786-1.314V6.627l-.001-.012C14.357 7.743 12.398 8.882 10.5 10M3.75 6.71v6.663c0 .536.268 1.026.69 1.266L9.5 17v-7L3.756 6.619q-.004.045-.006.091m6.752-3.506a1.12 1.12 0 0 0-1.023-.047l-4.943 2.24q-.105.047-.196.113L10 9c1.1-.648 4.733-2.935 5.723-3.526a1 1 0 0 0-.164-.113z"/>
</svg>
