<svg xmlns="http://www.w3.org/2000/svg" viewBox="0 0 20 20">
  <path d="M19 11c0 .552-2.239 1-5 1s-5-.448-5-1 2.239-1 5-1 5 .448 5 1m-.776.535-.003.001c-.887.279-2.446.464-4.221.464s-3.334-.185-4.221-.464h-.003C9.285 11.38 9 11.196 9 11s.285-.38.776-.535l.002-.001C10.666 10.185 12.225 10 14 10s3.334.185 4.221.464h.003c.491.155.776.339.776.536s-.285.38-.776.535m-.492 1.153c.47-.094.913-.216 1.268-.379V15c0 .197-.285.38-.776.535l-.003.001c-.887.279-2.446.464-4.221.464s-3.334-.185-4.221-.464h-.003C9.285 15.38 9 15.196 9 15v-2.69c.355.162.799.284 1.268.378.987.197 2.306.312 3.732.312s2.745-.115 3.732-.312M9 16.31V19c0 .552 2.239 1 5 1s5-.448 5-1v-2.69c-.355.162-.799.284-1.268.378-.987.197-2.306.312-3.732.312s-2.745-.115-3.732-.312c-.47-.094-.913-.216-1.268-.379m5.784-12.287q.108-.02.216-.022a5.002 5.002 0 0 1 4.814 6.354 1.4 1.4 0 0 0-.217-.27 2 2 0 0 0-.562-.377c-.36-.17-.818-.298-1.303-.395C16.745 9.115 15.426 9 14 9s-2.745.115-3.732.312c-.485.097-.942.224-1.303.395a2 2 0 0 0-.562.376A1.28 1.28 0 0 0 8 11v3H4c-2.21 0-4-1.79-4-4a3.98 3.98 0 0 1 3.01-3.86q0-.037-.005-.07L3 6c0-3.31 2.69-6 6-6 2.62 0 4.83 1.69 5.64 4.04q.072-.007.144-.018"/>
</svg>
