<svg xmlns="http://www.w3.org/2000/svg" viewBox="0 0 20 20">
  <path d="M14.128.143c.578-.597 1.786.804 2.45 1.95a1 1 0 0 1 1.309 1.365c1.113.668 2.552 1.815 1.985 2.4-.578.596-1.788-.806-2.452-1.953a1 1 0 0 1-.683.059.86.86 0 0 1-.13.626c-3.476 5.227-3.476 5.593 0 10.82.126.19.166.413.13.625a1 1 0 0 1 .722.076c.668-1.113 1.814-2.55 2.399-1.983.595.578-.806 1.786-1.953 2.45A.996.996 0 0 1 17 18a1 1 0 0 1-.459-.113c-.668 1.113-1.814 2.55-2.398 1.985-.597-.578.804-1.788 1.95-2.452a1 1 0 0 1-.058-.684.86.86 0 0 1-.625-.13c-5.227-3.476-5.593-3.475-10.82 0a.86.86 0 0 1-.626.13Q4 16.863 4 17c0 .165-.042.32-.113.458 1.113.668 2.552 1.815 1.985 2.4-.578.596-1.788-.806-2.452-1.953a1 1 0 0 1-1.309-1.365c-1.113-.668-2.55-1.813-1.983-2.397.578-.597 1.786.804 2.45 1.95a1 1 0 0 1 .685-.058.86.86 0 0 1 .13-.625c3.476-5.227 3.476-5.593 0-10.82a.86.86 0 0 1-.13-.627 1 1 0 0 1-.722-.076C1.873 5 .727 6.437.143 5.872c-.597-.578.804-1.788 1.95-2.452a1 1 0 0 1 1.365-1.309C4.126.998 5.273-.439 5.858.128c.595.578-.806 1.786-1.952 2.45a1 1 0 0 1 .057.685.86.86 0 0 1 .627.13c5.227 3.476 5.593 3.476 10.82 0a.86.86 0 0 1 .625-.13 1 1 0 0 1 .077-.723c-1.113-.668-2.55-1.813-1.984-2.397"/>
</svg>
