<svg xmlns="http://www.w3.org/2000/svg" viewBox="0 0 20 20">
  <path d="M8.4 0H.6C.27 0 0 .27 0 .6v5.25c0 .33.313.579.643.579h3.354l2.177 2.397A.602.602 0 0 0 7.2 8.4V6.429h1.2c.33 0 .6-.27.6-.6V.6c0-.33-.27-.6-.6-.6m8.482 16.777c1.185.482 2.52 1.025 2.846 1.77.363.827.264 1.35.247 1.44l-.002.013H6.034s-.166-.543.236-1.462c.326-.744 1.662-1.288 2.846-1.77.28-.113.55-.223.797-.332 1.15-.508 1.168-.841 1.19-1.244q.003-.072.01-.148 0-.045.004-.092.004-.045.004-.091a3.9 3.9 0 0 1-1.068-1.577l-.009-.008-.004-.013q-.004-.008-.005-.014a4 4 0 0 1-.13-.429c-.307-.052-.482-.376-.553-.683-.06-.122-.2-.42-.175-.752.044-.447.228-.648.438-.727v-.07c0-.56.044-1.357.149-1.883.018-.148.053-.289.096-.437a3.25 3.25 0 0 1 1.121-1.629c.552-.42 1.33-.639 2.023-.639.691 0 1.47.228 2.031.64a3.2 3.2 0 0 1 1.217 2.065c.096.526.149 1.331.149 1.883v.079c.192.078.368.28.411.718.027.341-.105.639-.175.761-.061.298-.236.622-.534.683a3.4 3.4 0 0 1-.149.464c-.236.622-.595 1.165-1.042 1.559 0 .07 0 .14.01.201q.007.09.009.176c.013.39.025.72 1.155 1.216.247.109.517.219.796.332M19.973 20"/>
</svg>
