<svg xmlns="http://www.w3.org/2000/svg" viewBox="0 0 20 20">
  <path d="M8.788.915A3.121 3.121 0 0 0 3.801 4.54H1a1 1 0 0 0-1 1v4a1 1 0 0 0 1 1h18a1 1 0 0 0 1-1v-4a1 1 0 0 0-1-1h-2.8A3.122 3.122 0 0 0 11.211.915l-1 .999a4 4 0 0 0-.212.23 4 4 0 0 0-.213-.23zm5.424 3-.626.626H11.02a2.14 2.14 0 0 1 .606-1.213l.999-.999a1.121 1.121 0 1 1 1.586 1.586m-5.233.626H6.414l-.626-.626a1.121 1.121 0 1 1 1.586-1.586l1 1c.329.329.54.755.605 1.212M7 11.54H1v7a1 1 0 0 0 1 1h5zm12 0h-6v8h5a1 1 0 0 0 1-1zm-11 0h4v8H8z"/>
</svg>
