<svg xmlns="http://www.w3.org/2000/svg" viewBox="0 0 20 20">
  <path d="M3 1a2.998 2.998 0 0 1 1 5.825V13c0 .846.21 1.297.457 1.543.246.246.697.457 1.543.457h4.586l-1.293-1.293a1 1 0 1 1 1.414-1.414l3 3 .064.071a1 1 0 0 1 .205.415l.014.083q.007.045.009.09v.096l-.005.045a1 1 0 0 1-.2.512l-.019.026-.068.076-3 3a1 1 0 0 1-1.414-1.414L10.586 17H6c-1.154 0-2.203-.29-2.957-1.043C2.289 15.203 2 14.154 2 13V6.825A2.998 2.998 0 0 1 3 1M9.293.293a1 1 0 1 1 1.414 1.414L9.414 3H14c1.154 0 2.203.29 2.957 1.043C17.711 4.797 18 5.846 18 7v6.174A2.998 2.998 0 0 1 17 19a3 3 0 0 1-1-5.826V7c0-.846-.21-1.297-.457-1.543C15.297 5.211 14.846 5 14 5H9.414l1.293 1.293a1 1 0 1 1-1.414 1.414l-3-3-.068-.076-.02-.027a1 1 0 0 1-.2-.504q-.001-.027-.004-.052v-.096q.002-.045.009-.09l.014-.083q.014-.057.035-.112a1 1 0 0 1 .17-.303l.064-.071zM17 15a1 1 0 1 0 0 2 1 1 0 0 0 0-2M3 3a1 1 0 1 0 0 2 1 1 0 0 0 0-2"/>
</svg>
