<svg xmlns="http://www.w3.org/2000/svg" viewBox="0 0 20 20">
  <path d="M18 2a2 2 0 0 1 2 2v12a2 2 0 0 1-2 2H2a2 2 0 0 1-2-2V4a2 2 0 0 1 2-2zm-8 4.818c0-1.043-1.303-1.484-1.943-.707l-.06.08L6.5 8.34 5.003 6.19l-.06-.079C4.303 5.334 3 5.775 3 6.818V13a1 1 0 1 0 2 0V9.687l.269.386.12.15a1.5 1.5 0 0 0 2.342-.15L8 9.687V13a1 1 0 1 0 2 0zM14 6a1 1 0 0 0-1 1v3.236l-.731-.877-.07-.075a1.001 1.001 0 0 0-1.53 1.275l.062.082 2.347 2.815.084.089a1 1 0 0 0 1.671.007q.045-.045.089-.096l2.347-2.815.061-.082a1.001 1.001 0 0 0-1.53-1.275l-.069.075-.731.877V7a1 1 0 0 0-1-1"/>
</svg>
