<svg xmlns="http://www.w3.org/2000/svg" viewBox="0 0 20 20">
  <path d="M3.096 9.522c.344.687-.328 1.881-1.098 3.25-.792 1.408-1.688 3-1.688 4.413 0 .225.238.426.436.553.165.106.362.144.558.144h3.594a.985.985 0 0 0 .985-.985c0-.262.104-.512.288-.697l.162-.162a.84.84 0 0 0 .246-.594.84.84 0 0 1 .247-.595l.102-.102a1.2 1.2 0 0 0 .348-.84v-.205c0-.385.312-.697.697-.697h3.483c.77 0 1.393-.623 1.393-1.393V10.22c0-.77.624-1.393 1.394-1.393h4.179c.77 0 1.394-.624 1.394-1.394V6.315c0-.083.033-.162.092-.219A.3.3 0 0 0 20 5.878v-.493a.44.44 0 0 0-.092-.271.44.44 0 0 1-.092-.271v-.197a.697.697 0 0 0-.697-.697h-.348a.35.35 0 0 1-.349-.348.35.35 0 0 0-.348-.349h-.144a.5.5 0 0 0-.349.145l-.203.204a1.2 1.2 0 0 1-.841.348H3.385a.7.7 0 0 1-.493-.204.697.697 0 0 0-.985 0 .7.7 0 0 1-.493.204h-.408a.697.697 0 0 0-.696.697v2.457c0 .217-.053.429-.132.63-.161.41-.356 1.093.132 1.093.112 0 .248-.008.398-.016.786-.041 1.98-.104 2.388.712m4.571 2.787a.305.305 0 0 1-.296-.38l.3-1.203c.045-.175.302-.143.302.037 0 .084.068.152.153.152h.438q.106 0 .193.059l.553.369c.317.21.694-.167.483-.483l-.368-.553a.35.35 0 0 1-.059-.194V9.87c0-.192.156-.348.348-.348h1.598a.35.35 0 0 1 .246.102l.187.187c.26.261.408.615.408.985v.672a.35.35 0 0 1-.102.246l-.187.187a1.4 1.4 0 0 1-.985.408zM2.264 6.25h16.124c.25 0 .398.278.26.486l-.209.312a.31.31 0 0 1-.26.14H2.055a.312.312 0 0 1-.26-.486l.209-.313a.31.31 0 0 1 .26-.139"/>
</svg>
