<svg xmlns="http://www.w3.org/2000/svg" viewBox="0 0 20 20">
  <path d="M6 13a1 1 0 1 1 0 2H4.3c1.303 1.32 3.483 2 5.7 2a7 7 0 0 0 3.331-.845l1.46 1.46A9 9 0 0 1 10 19c-2.439 0-5.182-.717-7-2.472V18a1 1 0 1 1-2 0v-4a1 1 0 0 1 1-1zm12-4a1 1 0 0 1 1 1 9 9 0 0 1-1.38 4.785l-1.462-1.46A7 7 0 0 0 17 10a1 1 0 0 1 1-1M3.844 6.668A7 7 0 0 0 3 10a1 1 0 1 1-2 0c0-1.71.488-3.368 1.384-4.792zM18 1a1 1 0 0 1 1 1v4a1 1 0 0 1-1 1h-4a1 1 0 1 1 0-2h1.7c-1.303-1.32-3.483-2-5.7-2a7 7 0 0 0-3.33.843L5.21 2.382A9 9 0 0 1 10 1c2.439 0 5.182.717 7 2.472V2a1 1 0 0 1 1-1M2 1c.28 0 .53.11.71.3l16 15.99A1.003 1.003 0 0 1 18 19c-.28 0-.53-.11-.71-.3l-16-15.99A1.003 1.003 0 0 1 2 1"/>
</svg>
