<svg xmlns="http://www.w3.org/2000/svg" viewBox="0 0 20 20">
  <path d="M10 2a8 8 0 1 0 6.245 13H15a1 1 0 1 1 0-2h4a1 1 0 0 1 1 1v4a1 1 0 1 1-2 0v-1.999A9.99 9.99 0 0 1 10 20C4.477 20 0 15.523 0 10S4.477 0 10 0zm10.001 8-2 .003a8 8 0 0 0-.273-2.077l1.932-.515a10 10 0 0 1 .341 2.59M18.663 5l-1.732 1a8 8 0 0 0-1.273-1.655l1.414-1.415A10 10 0 0 1 18.662 5M15 1.339l-1 1.732a8 8 0 0 0-1.929-.801L12.59.338A10 10 0 0 1 15 1.34M7.507 6.13a1 1 0 0 1 1.008.014l5 3a1 1 0 0 1 0 1.714l-5 3A1 1 0 0 1 7 13V7a1 1 0 0 1 .507-.87"/>
</svg>
