<svg xmlns="http://www.w3.org/2000/svg" viewBox="0 0 20 20">
  <path d="M17 0c1.7 0 3 1.3 3 3s-1.3 3-3 3a3.03 3.03 0 0 1-1.752-.542l-2.824 2.824a2.985 2.985 0 0 1-.08 3.354l2.905 2.905A3.03 3.03 0 0 1 17 14c1.7 0 3 1.3 3 3s-1.3 3-3 3-3-1.3-3-3c0-.663.199-1.264.541-1.752l-2.905-2.905a2.98 2.98 0 0 1-3.354.08l-2.824 2.825A3.03 3.03 0 0 1 6 17c0 1.7-1.3 3-3 3s-3-1.3-3-3 1.3-3 3-3c.663 0 1.263.2 1.751.541l2.79-2.79c-.4-.51-.64-1.152-.64-1.85 0-.648.206-1.248.555-1.738L4.751 5.458A3.03 3.03 0 0 1 3 6C1.3 6 0 4.7 0 3s1.3-3 3-3 3 1.3 3 3c0 .663-.2 1.263-.542 1.751l2.705 2.705A2.98 2.98 0 0 1 9.9 6.9c.699 0 1.34.24 1.85.641l2.791-2.791A3.03 3.03 0 0 1 14 3c0-1.7 1.3-3 3-3M3 15c-1.1 0-2 .9-2 2s.9 2 2 2 2-.9 2-2-.9-2-2-2m14 0c-1.1 0-2 .9-2 2s.9 2 2 2 2-.9 2-2-.9-2-2-2M3 1c-1.1 0-2 .9-2 2s.9 2 2 2 2-.9 2-2-.9-2-2-2m14 0c-1.1 0-2 .9-2 2s.9 2 2 2 2-.9 2-2-.9-2-2-2"/>
</svg>
