<svg xmlns="http://www.w3.org/2000/svg" viewBox="0 0 20 20">
  <path d="M13.238 14c.234 0 .46.082.64.232L16 16h2v2H2v-2h2l2.122-1.768a1 1 0 0 1 .64-.231zM10 11a1 1 0 1 1 0 2 1 1 0 0 1 0-2M6.269 8.64c1.949-2.09 5.298-2.279 7.457-.01a1 1 0 0 1-.04 1.41c-.4.38-1.03.36-1.42-.03-1.33-1.4-3.349-1.29-4.538-.01a.997.997 0 1 1-1.459-1.36m3.733-5.636c2.699 0 5.298 1.3 6.797 3.4.1.2.2.4.2.6 0 .3-.1.6-.4.8-.5.399-1.1.299-1.4-.201-1.1-1.6-3.198-2.6-5.197-2.6-2.1 0-3.899.9-5.198 2.6-.3.5-1 .5-1.4.2-.5-.3-.499-1-.199-1.4 1.7-2.199 3.998-3.489 6.797-3.399"/>
</svg>
