<svg xmlns="http://www.w3.org/2000/svg" viewBox="0 0 20 20">
  <path d="M6.308 8.306a1.03 1.03 0 0 1 1.464 0l2.929 2.955.071.08c.332.41.308 1.015-.071 1.398l-2.929 2.955a1.03 1.03 0 0 1-1.464 0 1.05 1.05 0 0 1 0-1.478l1.067-1.077c-1.182.13-2.255.342-3.128.625-1.04.337-1.758.759-2.069 1.217q-.233.347-.154.694.078.348.464.681c.513.44 1.413.826 2.594 1.114s2.598.467 4.088.516 2.995-.034 4.342-.24c1.347-.205 2.483-.525 3.278-.922q.596-.3.905-.635c.206-.224.31-.457.31-.69a1 1 0 0 1 2 0c0 .876-.403 1.569-.837 2.042-.425.463-.958.809-1.484 1.072-1.053.526-2.415.888-3.87 1.11a26 26 0 0 1-4.709.262c-1.599-.052-3.157-.245-4.498-.572-1.28-.312-2.548-.79-3.421-1.54-.454-.389-.935-.966-1.113-1.758-.193-.855.036-1.647.45-2.257.708-1.044 1.99-1.635 3.106-1.996 1.154-.374 2.534-.625 3.99-.756l-1.31-1.322a1.05 1.05 0 0 1 0-1.478m4.929-8a1.03 1.03 0 0 1 1.464 0c.404.408.404 1.07 0 1.478l-1.245 1.255c1.428.076 2.808.265 4.01.563.784.195 1.516.443 2.146.75.604.293 1.253.708 1.726 1.307.52.657.843 1.577.565 2.586-.247.895-.872 1.504-1.416 1.89-1.08.768-2.665 1.249-4.31 1.53a1 1 0 0 1-.337-1.971c1.55-.265 2.776-.683 3.488-1.188.356-.254.572-.521.647-.791.074-.27.009-.546-.205-.816-.212-.268-.563-.521-1.033-.75-.471-.23-1.062-.435-1.753-.606-1.009-.251-2.191-.42-3.443-.496l1.16 1.17a1.05 1.05 0 0 1 0 1.477 1.03 1.03 0 0 1-1.464 0l-2.93-2.955a1.05 1.05 0 0 1-.071-1.399l.071-.079zM4.915 3.514a1 1 0 0 1 .436 1.952c-.761.17-1.415.38-1.937.617-.523.237-.915.503-1.15.786-.24.286-.31.577-.225.861.084.286.328.569.727.834A1.001 1.001 0 0 1 1.66 10.23C1.08 9.845.396 9.228.12 8.298c-.316-1.068.046-2.037.608-2.71.51-.61 1.207-1.03 1.858-1.326.681-.309 1.474-.557 2.329-.748"/>
</svg>
