<svg xmlns="http://www.w3.org/2000/svg" viewBox="0 0 20 20">
  <path d="M20 10a6 6 0 0 0-8.25-5.563A7.97 7.97 0 0 1 14 10a7.97 7.97 0 0 1-2.251 5.563A6 6 0 0 0 20 10M8.251 4.437a6 6 0 1 0 0 11.126A7.97 7.97 0 0 1 6 10c0-2.162.857-4.123 2.251-5.563m5.47.57q.14-.006.279-.007a5 5 0 0 1 0 10l-.278-.008-.222-.018.128-.196A8.97 8.97 0 0 0 15 10l-.006-.322a8.96 8.96 0 0 0-1.365-4.456l-.129-.197zM12 9.973a6 6 0 0 1-2 4.472 6 6 0 0 1-2-4.472A6 6 0 0 1 10 5.5q.23.206.438.435A5.98 5.98 0 0 1 12 9.972m-1.999-3-.085.114A5 5 0 0 0 9 9.972a5 5 0 0 0 .844 2.782l.156.22c.593-.79.943-1.74.994-2.748L11 9.972c0-1.01-.3-1.972-.844-2.781z"/>
</svg>
