<svg xmlns="http://www.w3.org/2000/svg" viewBox="0 0 20 20">
  <path d="M7.13 2.02a9.1 9.1 0 0 0-2.2 2.27c-.89 1.33-1.62 2.94-2.17 4.84-.56 1.9-.84 3.69-.84 5.36 0 1.06.24 2.21.73 3.44l-.16.55C.83 16.19 0 13.9 0 11.62c0-1.31.28-2.61.83-3.89.66-1.51 1.63-2.84 2.91-4.01.98-.89 2.17-1.63 3.55-2.22zm2.33 3.86c.59.95 1 2 1.24 3.14.6-.92 1.06-1.57 1.37-1.94.41-.5.75-.82 1.02-.97s.56-.22.86-.22c.34 0 .6.1.78.29s.27.44.27.77q0 .465-.27.75c-.18.19-.41.29-.68.29-.2 0-.42-.04-.68-.11-.25-.07-.43-.11-.53-.11-.26 0-.51.1-.74.29-.33.26-.72.82-1.19 1.67q.523 1.883.903 2.802l-2.048 1.139-.008.003q-.274-.621-.637-1.784c-.72.95-1.29 1.64-1.7 2.08s-.75.73-1.02.86-.56.2-.87.2c-.32 0-.57-.1-.76-.29-.19-.2-.28-.44-.28-.75 0-.32.1-.59.31-.8s.47-.32.78-.32q.255 0 .57.15c.31.15.53.23.67.23.18 0 .34-.03.48-.11.18-.09.42-.3.7-.62.18-.2.49-.62.96-1.26-.59-2.27-1.06-3.62-1.39-4.07-.21-.29-.48-.43-.8-.43a3 3 0 0 0-.61.07l.06-.36zm8.05-4.38C19.17 3.79 20 6.08 20 8.35c0 1.32-.28 2.63-.83 3.91q-.144.33-.308.648l-1.934-1.075a22 22 0 0 0 .532-1.743c.42-1.64.63-3.17.63-4.6 0-1.06-.24-2.21-.73-3.45zm-7.26 13.945 4.5 2.5c.1.05.15.05.25.05s.15 0 .25-.05l4.5-2.5c.15-.1.25-.25.25-.45s-.1-.35-.25-.45l-4.5-2.5c-.1-.05-.15-.05-.25-.05s-.15 0-.25.05l-4.5 2.5c-.15.1-.25.25-.25.45s.1.35.25.45m9.25 1.05c-.1 0-.15 0-.25.05l-4.25 2.4-4.25-2.4c-.1-.05-.15-.05-.25-.05-.3 0-.5.2-.5.5 0 .2.1.35.25.45l4.5 2.5c.1.05.15.05.25.05s.15 0 .25-.05l4.5-2.5c.15-.1.25-.25.25-.45 0-.3-.2-.5-.5-.5"/>
</svg>
