<svg width="16" height="16" viewBox="0 0 16 16" fill="none" xmlns="http://www.w3.org/2000/svg">
<path fill-rule="evenodd" clip-rule="evenodd" d="M8.02657 14.5935C7.54657 14.5935 7.01324 14.5402 6.5599 14.4402C6.17324 14.3535 5.79324 14.2335 5.42657 14.0802C5.05324 13.9202 4.6999 13.7335 4.37324 13.5135C3.9999 13.2668 3.65324 12.9868 3.32657 12.6602C3.00657 12.3402 2.72657 11.9935 2.4799 11.6202C2.2599 11.2935 2.07324 10.9402 1.91324 10.5668C1.7599 10.1935 1.6399 9.82016 1.55324 9.4335C1.44657 8.96683 1.3999 8.48683 1.3999 7.9935C1.3999 7.66016 1.6599 7.3935 1.9999 7.3935C2.0199 7.3935 2.0399 7.40016 2.06657 7.40016H3.9999C4.33324 7.40016 4.5999 7.66016 4.5999 8.00016C4.5999 8.3335 4.33324 8.60016 3.9999 8.60016H2.62657C2.65324 8.80016 2.68657 9.00016 2.72657 9.1935C2.7999 9.50016 2.89324 9.80683 3.0199 10.1002C3.14657 10.4002 3.2999 10.6802 3.47324 10.9535C3.6799 11.2602 3.91324 11.5468 4.1799 11.8135C4.44657 12.0802 4.73324 12.3135 5.0399 12.5202C5.30657 12.6935 5.59324 12.8468 5.89324 12.9735C6.18657 13.0935 6.49324 13.1935 6.7999 13.2602C6.99324 13.3068 7.19324 13.3402 7.3999 13.3668L7.3999 6.60016H5.9999C5.6599 6.60016 5.3999 6.3335 5.3999 6.00016C5.3999 5.66016 5.6599 5.3935 5.9999 5.3935H7.3999V3.8535C6.9599 3.6335 6.66657 3.18683 6.66657 2.66683C6.66657 1.92683 7.2599 1.3335 7.9999 1.3335C8.73324 1.3335 9.33324 1.92683 9.33324 2.66683C9.33324 3.18683 9.03324 3.6335 8.5999 3.8535V5.3935L9.9999 5.3935C10.3332 5.3935 10.5999 5.66016 10.5999 6.00016C10.5999 6.3335 10.3332 6.60016 9.9999 6.60016L8.5999 6.60016V13.3668C8.7999 13.3402 8.9999 13.3068 9.19324 13.2602C9.50657 13.1935 9.80657 13.0935 10.0999 12.9735C10.3999 12.8468 10.6866 12.6935 10.9532 12.5202C11.2599 12.3135 11.5466 12.0802 11.8132 11.8135C12.0799 11.5468 12.3132 11.2602 12.5199 10.9535C12.6932 10.6868 12.8466 10.4002 12.9732 10.1002C13.0999 9.80683 13.1932 9.50016 13.2666 9.1935C13.3066 9.00016 13.3399 8.80016 13.3666 8.60016H11.9999C11.6599 8.60016 11.3999 8.3335 11.3999 8.00016C11.3999 7.66016 11.6599 7.40016 11.9999 7.40016H13.9332C14.2666 7.40016 14.5999 7.66016 14.5999 7.9935C14.5999 8.48683 14.5466 8.96683 14.4399 9.4335C14.3532 9.82016 14.2332 10.1935 14.0799 10.5668C13.9199 10.9402 13.7332 11.2935 13.5132 11.6202C13.2666 11.9935 12.9866 12.3402 12.6666 12.6602C12.3399 12.9868 11.9932 13.2668 11.6266 13.5135C11.2932 13.7335 10.9399 13.9202 10.5666 14.0802C10.1999 14.2335 9.8199 14.3535 9.43324 14.4402C8.9799 14.5402 8.50657 14.5935 8.02657 14.5935Z" fill="white"/>
</svg>
