<svg width="16" height="16" viewBox="0 0 16 16" fill="none" xmlns="http://www.w3.org/2000/svg">
<path fill-rule="evenodd" clip-rule="evenodd" d="M14 14.5936H1.99998C1.65998 14.5936 1.39998 14.3336 1.39998 13.9936C1.39998 13.6602 1.65998 13.3936 1.99998 13.3936H2.82664C2.71998 13.1536 2.65998 12.8802 2.65998 12.5936L2.65998 8.59356H1.99331C1.65998 8.59356 1.39331 8.33355 1.39331 7.99355C1.39331 7.66022 1.65998 7.39355 1.99331 7.39355H2.65998L2.65998 3.39355C2.65998 3.11355 2.71998 2.84022 2.82664 2.59355H1.99331C1.65998 2.59355 1.39331 2.33355 1.39331 1.99355C1.39331 1.66022 1.65998 1.39355 1.99331 1.39355L13.9933 1.39355C14.3333 1.39355 14.5933 1.66022 14.5933 1.99355C14.5933 2.33355 14.3333 2.59355 13.9933 2.59355H13.1666C13.2733 2.84022 13.3266 3.11355 13.3266 3.39355V7.39355H13.9933C14.3333 7.39355 14.5933 7.66022 14.5933 7.99355C14.5933 8.33355 14.3333 8.59356 13.9933 8.59356H13.3266V12.5936C13.3266 12.8802 13.2733 13.1536 13.1666 13.3936H14C14.3333 13.3936 14.6 13.6602 14.6 13.9936C14.6 14.3336 14.3333 14.5936 14 14.5936ZM11.3333 13.3936C11.7733 13.3936 12.1266 13.0402 12.1266 12.5936V3.39355C12.1266 2.95355 11.7733 2.59355 11.3266 2.59355L4.65998 2.59355C4.21998 2.59355 3.85998 2.95355 3.85998 3.39355L3.85998 12.5936C3.85998 13.0402 4.21998 13.3936 4.65998 13.3936H11.3333ZM10.6066 8.93355C10.6066 10.3602 9.41998 11.5402 7.99998 11.5402C6.57331 11.5402 5.38664 10.3602 5.38664 8.93355C5.38664 7.20689 6.33331 5.33355 7.99998 4.45355C9.66664 5.33355 10.6066 7.20689 10.6066 8.93355ZM8.25331 6.12689C8.17331 6.04022 8.08664 5.96022 7.99998 5.88689C7.90664 5.96022 7.81998 6.04022 7.73998 6.12689C7.49998 6.36689 7.29331 6.64689 7.11331 6.96022C7.04664 7.08689 6.97998 7.21356 6.92664 7.34689C6.83998 7.54022 6.77331 7.73355 6.71998 7.93355C6.63331 8.27355 6.58664 8.60689 6.58664 8.93355C6.58664 9.02022 6.59998 9.10689 6.61331 9.18689C6.63331 9.28689 6.65998 9.38022 6.69998 9.47355C6.72664 9.53355 6.75998 9.59355 6.79331 9.65355C6.85331 9.75355 6.92664 9.84022 7.00664 9.92689C7.08664 10.0069 7.17998 10.0802 7.27331 10.1336C7.33331 10.1736 7.39331 10.2069 7.45998 10.2336C7.55331 10.2736 7.64664 10.3002 7.73998 10.3202C7.82664 10.3336 7.90664 10.3402 7.99998 10.3402C8.08664 10.3402 8.16664 10.3336 8.25331 10.3202C8.34664 10.3002 8.43998 10.2736 8.53331 10.2336C8.59998 10.2069 8.65998 10.1736 8.71998 10.1336C8.81331 10.0802 8.90664 10.0069 8.98664 9.92689C9.06664 9.84022 9.13998 9.75355 9.19998 9.65355C9.23331 9.59355 9.26664 9.53355 9.29331 9.47355C9.33331 9.38022 9.35998 9.28689 9.37998 9.18689C9.39331 9.10689 9.40664 9.02022 9.40664 8.93355C9.40664 8.60689 9.35998 8.27355 9.27331 7.93355C9.21998 7.73355 9.15331 7.54022 9.06664 7.34689C9.01331 7.21356 8.94664 7.08689 8.87998 6.96022C8.69998 6.64689 8.49331 6.36689 8.25331 6.12689Z" fill="white"/>
</svg>
