<svg width="16" height="16" viewBox="0 0 16 16" fill="none" xmlns="http://www.w3.org/2000/svg">
<path d="M9.66659 2C10.7666 2 11.6666 2.89333 11.6666 4V6.66667H11.8C12.9 6.66673 13.8 7.56004 13.8 8.66667V12.7995H13.9999C14.3312 12.7995 14.6 13.0685 14.6002 13.3997C14.6002 13.7311 14.3313 14 13.9999 14H1.99992C1.66855 14 1.39966 13.7311 1.39966 13.3997C1.3998 13.0685 1.66863 12.7995 1.99992 12.7995H2.19979L2.19979 8.66667C2.19979 7.56004 3.09318 6.66673 4.19979 6.66667H4.33325V4C4.33325 2.89333 5.22659 2 6.33325 2H9.66659ZM4.19979 7.86654C3.75318 7.8666 3.39966 8.22004 3.39966 8.66667V12.7995H4.33325V7.86654H4.19979ZM6.33325 3.19987C5.88659 3.19987 5.53312 3.55333 5.53312 4L5.53312 12.7995H6.39966V12C6.39966 11.2953 6.96188 10.7331 7.66659 10.7331H8.33325C9.02737 10.7331 9.60018 11.2914 9.60018 12V12.7995H10.4667V4C10.4667 3.55333 10.1066 3.19987 9.66659 3.19987L6.33325 3.19987ZM11.6666 12.7995H12.593V8.66667C12.593 8.22004 12.24 7.8666 11.8 7.86654H11.6666V12.7995ZM7.66659 11.9336C7.64086 11.9336 7.62652 11.9424 7.61776 11.9512C7.60899 11.9599 7.60018 11.9743 7.60018 12V12.7995H8.39966V12C8.39966 11.9619 8.37247 11.9336 8.33325 11.9336H7.66659ZM7.06633 9.13346C7.32406 9.13346 7.53312 9.34253 7.53312 9.60026V9.73307C7.53312 9.99081 7.32406 10.1999 7.06633 10.1999H6.93351C6.67578 10.1999 6.46672 9.99081 6.46672 9.73307V9.60026C6.46672 9.34253 6.67578 9.13346 6.93351 9.13346H7.06633ZM9.06633 9.13346C9.32406 9.13346 9.53312 9.34253 9.53312 9.60026V9.73307C9.53312 9.99081 9.32406 10.1999 9.06633 10.1999H8.93351C8.67578 10.1999 8.46672 9.99081 8.46672 9.73307V9.60026C8.46672 9.34253 8.67578 9.13346 8.93351 9.13346H9.06633ZM7.06633 7.13346C7.32406 7.13346 7.53312 7.34253 7.53312 7.60026V7.73307C7.53312 7.99081 7.32406 8.19987 7.06633 8.19987H6.93351C6.67578 8.19987 6.46672 7.99081 6.46672 7.73307V7.60026C6.46672 7.34253 6.67578 7.13346 6.93351 7.13346H7.06633ZM9.06633 7.13346C9.32406 7.13346 9.53312 7.34253 9.53312 7.60026V7.73307C9.53312 7.99081 9.32406 8.19987 9.06633 8.19987H8.93351C8.67578 8.19987 8.46672 7.99081 8.46672 7.73307V7.60026C8.46672 7.34253 8.67578 7.13346 8.93351 7.13346H9.06633ZM7.06633 5.13346C7.32406 5.13346 7.53312 5.34253 7.53312 5.60026V5.73307C7.53312 5.99081 7.32406 6.19987 7.06633 6.19987H6.93351C6.67578 6.19987 6.46672 5.99081 6.46672 5.73307V5.60026C6.46672 5.34253 6.67578 5.13346 6.93351 5.13346H7.06633ZM9.06633 5.13346C9.32406 5.13346 9.53312 5.34253 9.53312 5.60026V5.73307C9.53312 5.99081 9.32406 6.19987 9.06633 6.19987H8.93351C8.67578 6.19987 8.46672 5.99081 8.46672 5.73307V5.60026C8.46672 5.34253 8.67578 5.13346 8.93351 5.13346H9.06633Z" fill="white"/>
</svg>
