<svg width="16" height="16" viewBox="0 0 16 16" fill="none" xmlns="http://www.w3.org/2000/svg">
<path fill-rule="evenodd" clip-rule="evenodd" d="M5.26014 5.3299V4.5899H8.66014C9.00014 4.5899 9.26014 4.3299 9.26014 3.9999C9.26014 3.6599 9.00014 3.3999 8.66014 3.3999H5.26014V1.9999C5.26014 1.6599 5.00014 1.3999 4.66014 1.3999C4.32014 1.3999 4.06014 1.6599 4.06014 1.9999V3.4399C3.94014 3.4499 3.83014 3.4599 3.73014 3.4699C3.40014 3.5099 3.12014 3.5799 2.89014 3.6799C2.66014 3.7699 2.46014 3.8899 2.29014 4.0399C2.25014 4.0599 2.22014 4.0999 2.18014 4.1299C2.15014 4.1599 2.06014 4.2499 2.03014 4.2899C1.89014 4.4599 1.76014 4.6599 1.67014 4.8899C1.58014 5.1199 1.51014 5.3999 1.47014 5.7299C1.44014 5.9899 1.41014 6.3199 1.40014 6.7199C1.40014 6.8499 1.40014 7.0399 1.39014 7.2799C1.39014 7.2899 1.39014 7.3599 1.39014 7.3699C1.39014 7.5399 1.39014 7.7399 1.39014 7.9599V10.0399C1.39014 10.6199 1.40014 11.0299 1.40014 11.2699C1.41014 11.6699 1.44014 11.9999 1.47014 12.2599C1.51014 12.5899 1.58014 12.8699 1.67014 13.0999C1.76014 13.3299 1.89014 13.5299 2.03014 13.6999C2.06014 13.7399 2.09014 13.7699 2.13014 13.7999C2.16014 13.8399 2.25014 13.9299 2.29014 13.9599C2.46014 14.0999 2.66014 14.2199 2.89014 14.3099C3.12014 14.4099 3.40014 14.4799 3.73014 14.5199C3.99014 14.5499 4.32014 14.5799 4.72014 14.5899C4.96014 14.5899 5.37014 14.5999 5.95014 14.5999H10.0301C10.6201 14.5999 11.0301 14.5899 11.2701 14.5899C11.6701 14.5799 12.0001 14.5499 12.2601 14.5199C12.5801 14.4799 12.8701 14.4099 13.1001 14.3099C13.3201 14.2199 13.5301 14.0999 13.7001 13.9599C13.7401 13.9299 13.7701 13.8899 13.8001 13.8599C13.8301 13.8299 13.9201 13.7399 13.9501 13.6999C14.1001 13.5299 14.2201 13.3299 14.3101 13.0999C14.4101 12.8699 14.4801 12.5899 14.5201 12.2599C14.5501 11.9999 14.5701 11.6699 14.5801 11.2699C14.5901 11.0299 14.5901 10.6199 14.5901 10.0399V7.9599C14.5901 7.7399 14.5901 7.5399 14.5901 7.3699C14.5901 7.3499 14.5901 7.2999 14.5901 7.2799C14.5901 7.0399 14.5901 6.8499 14.5801 6.7199C14.5701 6.3199 14.5501 5.9899 14.5201 5.7299C14.4801 5.3999 14.4101 5.1199 14.3101 4.8899C14.2201 4.6599 14.1001 4.4599 13.9501 4.2899C13.9201 4.2499 13.8901 4.2199 13.8601 4.1899C13.8301 4.1499 13.7401 4.0599 13.7001 4.0399C13.5301 3.8899 13.3201 3.7699 13.1001 3.6799C12.8701 3.5799 12.5801 3.5099 12.2601 3.4699C12.1601 3.4599 12.0501 3.4499 11.9301 3.4399V1.9999C11.9301 1.6599 11.6601 1.3999 11.3301 1.3999C10.9901 1.3999 10.7301 1.6599 10.7301 1.9999V5.3299C10.7301 5.6599 10.9901 5.9299 11.3301 5.9299C11.6601 5.9299 11.9301 5.6599 11.9301 5.3299V4.6399C11.9901 4.6499 12.0501 4.6499 12.1001 4.6599C12.3301 4.6899 12.5101 4.7299 12.6501 4.7899C12.7801 4.8399 12.8801 4.9099 12.9701 4.9899C13.0501 5.0799 13.1501 5.2099 13.2001 5.3399C13.2601 5.4799 13.3001 5.6599 13.3301 5.8799C13.3601 6.0999 13.3701 6.3799 13.3901 6.7299L2.60014 6.7299C2.61014 6.3799 2.63014 6.0999 2.66014 5.8799C2.69014 5.6599 2.73014 5.4799 2.79014 5.3399C2.84014 5.2099 2.91014 5.1099 2.99014 5.0199C3.07014 4.9399 3.21014 4.8399 3.33014 4.7899C3.48014 4.7299 3.66014 4.6899 3.88014 4.6599C3.94014 4.6499 4.00014 4.6499 4.06014 4.6399V5.3299C4.06014 5.6599 4.32014 5.9299 4.66014 5.9299C5.00014 5.9299 5.26014 5.6599 5.26014 5.3299ZM2.59014 7.9299V10.0399C2.59014 10.6099 2.60014 11.0099 2.60014 11.2399C2.61014 11.5999 2.63014 11.8899 2.66014 12.1099C2.69014 12.3299 2.73014 12.5099 2.79014 12.6499C2.84014 12.7799 2.94014 12.9099 3.02014 12.9999C3.10014 13.0799 3.21014 13.1499 3.33014 13.1999C3.48014 13.2599 3.66014 13.2999 3.88014 13.3299C4.10014 13.3599 4.39014 13.3799 4.75014 13.3899C4.98014 13.3899 5.38014 13.3999 5.95014 13.3999H10.0301C10.6001 13.3999 11.0101 13.3899 11.2401 13.3899C11.6001 13.3799 11.8901 13.3599 12.1001 13.3299C12.3301 13.2999 12.5101 13.2599 12.6501 13.1999C12.7801 13.1499 12.9101 13.0499 13.0001 12.9699C13.0801 12.8799 13.1501 12.7799 13.2001 12.6499C13.2601 12.5099 13.3001 12.3299 13.3301 12.1099C13.3601 11.8899 13.3801 11.5999 13.3901 11.2399C13.3901 11.0099 13.3901 10.6099 13.3901 10.0399V7.9599L2.59014 7.9299Z" fill="white"/>
</svg>
