<svg width="16" height="16" viewBox="0 0 16 16" fill="none" xmlns="http://www.w3.org/2000/svg">
<path d="M13.3998 6.00016C13.3998 5.04039 13.3987 4.38094 13.3321 3.88558C13.2678 3.40749 13.1531 3.17276 12.9903 3.00993C12.8274 2.8471 12.5927 2.73241 12.1146 2.66813C11.6193 2.60153 10.9598 2.60042 10 2.60042L6.00004 2.60042C5.04027 2.60042 4.38081 2.60153 3.88546 2.66813C3.40736 2.73241 3.17264 2.8471 3.00981 3.00993C2.84698 3.17276 2.73229 3.40749 2.66801 3.88558C2.60141 4.38094 2.6003 5.04039 2.6003 6.00016L2.6003 10.0002C2.6003 10.9599 2.60141 11.6194 2.66801 12.1147C2.73229 12.5928 2.84698 12.8276 3.00981 12.9904C3.17264 13.1532 3.40736 13.2679 3.88546 13.3322C4.38081 13.3988 5.04027 13.3999 6.00004 13.3999H10C10.9598 13.3999 11.6193 13.3988 12.1146 13.3322C12.5927 13.2679 12.8274 13.1532 12.9903 12.9904C13.1531 12.8276 13.2678 12.5928 13.3321 12.1147C13.3987 11.6194 13.3998 10.9599 13.3998 10.0002V6.00016ZM14.6003 10.0002C14.6003 10.926 14.6014 11.681 14.5215 12.2749C14.4393 12.886 14.2615 13.4158 13.8386 13.8387C13.4157 14.2616 12.8858 14.4395 12.2748 14.5216C11.6809 14.6015 10.9259 14.6004 10 14.6004H6.00004C5.07419 14.6004 4.3192 14.6015 3.7253 14.5216C3.11424 14.4395 2.5844 14.2616 2.1615 13.8387C1.7386 13.4158 1.56074 12.886 1.47856 12.2749C1.39871 11.681 1.39978 10.926 1.39978 10.0002L1.39978 6.00016C1.39978 5.07432 1.39871 4.31932 1.47856 3.72542C1.56074 3.11436 1.7386 2.58452 2.1615 2.16162C2.5844 1.73872 3.11424 1.56086 3.7253 1.47868C4.3192 1.39883 5.07419 1.3999 6.00004 1.3999L10 1.3999C10.9259 1.3999 11.6809 1.39883 12.2748 1.47868C12.8858 1.56086 13.4157 1.73872 13.8386 2.16162C14.2615 2.58452 14.4393 3.11436 14.5215 3.72542C14.6014 4.31932 14.6003 5.07432 14.6003 6.00016V10.0002Z" fill="white"/>
</svg>
