<svg width="16" height="16" viewBox="0 0 16 16" fill="none" xmlns="http://www.w3.org/2000/svg">
<path fill-rule="evenodd" clip-rule="evenodd" d="M7.21325 3.3335C4.95325 3.3335 3.09325 5.10683 3.09325 7.34016C3.09325 7.42016 3.09325 7.4935 3.09992 7.5735C2.04659 8.16683 1.33325 9.2735 1.33325 10.5535C1.33325 12.4735 2.93325 13.9935 4.86659 13.9935H10.5399C12.7999 13.9935 14.6599 12.2202 14.6599 9.98683C14.6599 7.94683 13.0999 6.28683 11.1066 6.02016C10.5399 4.44683 9.00659 3.3335 7.21325 3.3335ZM4.29325 7.34016C4.29325 5.80683 5.57992 4.5335 7.21325 4.5335C8.61992 4.5335 9.77325 5.48016 10.0666 6.72016C10.1266 6.98016 10.3599 7.1735 10.6333 7.18016C12.2199 7.22683 13.4599 8.48683 13.4599 9.98683C13.4599 11.5202 12.1733 12.7935 10.5399 12.7935H4.86659C3.55325 12.7935 2.52659 11.7735 2.52659 10.5535C2.52659 9.6335 3.11325 8.82683 3.96659 8.48683C4.23325 8.38016 4.38659 8.10683 4.33325 7.82016C4.30659 7.66683 4.29325 7.50016 4.29325 7.34016Z" fill="white"/>
</svg>
