<svg width="16" height="16" viewBox="0 0 16 16" fill="none" xmlns="http://www.w3.org/2000/svg">
<path fill-rule="evenodd" clip-rule="evenodd" d="M7.40006 13.3269L7.40006 2.66689C7.40006 2.32689 7.66006 2.06689 8.00006 2.06689C8.33339 2.06689 8.60006 2.32689 8.60006 2.66689V13.3269C8.60006 13.6669 8.33339 13.9269 8.00006 13.9269C7.66006 13.9269 7.40006 13.6669 7.40006 13.3269ZM10.5534 8.63356L12.9067 10.9869C13.1467 11.2269 13.5201 11.2269 13.7534 10.9869C13.9934 10.7536 13.9934 10.3802 13.7534 10.1402L11.6134 7.99356L13.7534 5.85356C13.9934 5.61356 13.9934 5.24023 13.7534 5.00689C13.5201 4.76689 13.1467 4.76689 12.9067 5.00689L10.5601 7.3469C10.5134 7.39356 10.4801 7.44023 10.4467 7.48689C10.4067 7.53356 10.3801 7.5869 10.3534 7.6469C10.3334 7.70023 10.3134 7.76023 10.3001 7.82023C10.2934 7.87356 10.2867 7.93356 10.2867 7.99356C10.2867 8.06023 10.2934 8.12023 10.3001 8.17356C10.3134 8.23356 10.3334 8.29356 10.3534 8.34689C10.4001 8.45356 10.4734 8.56023 10.5534 8.63356ZM2.24006 10.1402L4.38006 7.99356L2.24006 5.85356C2.00006 5.61356 2.00006 5.24023 2.24006 5.00689C2.48006 4.76689 2.85339 4.76689 3.08673 5.00689L5.43339 7.3469C5.48006 7.39356 5.51339 7.44023 5.55339 7.48689C5.58673 7.53356 5.61339 7.5869 5.64006 7.6469C5.66006 7.70023 5.68006 7.76023 5.69339 7.82023C5.70006 7.87356 5.70673 7.93356 5.70673 7.99356C5.70673 8.06023 5.70006 8.12023 5.69339 8.17356C5.68006 8.23356 5.66006 8.29356 5.64006 8.34689C5.59339 8.45356 5.53339 8.54689 5.46006 8.62023L3.08673 10.9869C2.85339 11.2269 2.48006 11.2269 2.24006 10.9869C2.00006 10.7536 2.00006 10.3802 2.24006 10.1402Z" fill="white"/>
</svg>
