<svg width="16" height="16" viewBox="0 0 16 16" fill="none" xmlns="http://www.w3.org/2000/svg">
<path fill-rule="evenodd" clip-rule="evenodd" d="M1.82666 7.99999C1.82666 4.58862 4.58862 1.82666 7.99999 1.82666C11.4052 1.82666 14.1667 4.58909 14.1667 7.99999C14.1667 11.4047 11.4047 14.1667 7.99999 14.1667C4.58909 14.1667 1.82666 11.4052 1.82666 7.99999ZM3.06241 7.39999H5.31845C5.47814 5.8997 5.97201 4.46115 6.75776 3.18277C4.79906 3.68562 3.30841 5.35022 3.06241 7.39999ZM7.9988 3.47262C7.20237 4.64662 6.69669 5.99101 6.52615 7.39999L9.46718 7.39999C9.29673 5.99123 8.79163 4.6468 7.9988 3.47262ZM10.6749 7.39999C10.5152 5.89943 10.0215 4.46084 9.23873 3.18257C11.194 3.68513 12.6849 5.34968 12.9309 7.39999H10.6749ZM9.46693 8.59999C9.29626 10.004 8.79131 11.3471 7.9988 12.5207C7.20268 11.3473 6.69716 10.0042 6.52639 8.59999H9.46693ZM5.31862 8.59999H3.06258C3.30907 10.6445 4.79927 12.3079 6.75775 12.8106C5.97233 11.5329 5.4785 10.0959 5.31862 8.59999ZM9.23875 12.8108C10.0212 11.5333 10.5148 10.0962 10.6747 8.59999H12.9307C12.6842 10.645 11.1938 12.3084 9.23875 12.8108Z" fill="white"/>
</svg>
