<svg width="16" height="16" viewBox="0 0 16 16" fill="none" xmlns="http://www.w3.org/2000/svg">
<path d="M7.03424 1.95533C7.44895 1.23801 8.46998 1.21554 8.92291 1.88762L8.96523 1.95533L14.3624 11.2913C15.0481 12.4775 14.1746 13.9332 12.8207 13.9332H3.17877C1.82504 13.933 0.951441 12.4774 1.6371 11.2913L7.03424 1.95533ZM2.67617 11.8922C2.46499 12.2576 2.72497 12.7325 3.17877 12.7327H12.8207C13.2747 12.7326 13.5345 12.2576 13.3233 11.8922L7.99974 2.68254L2.67617 11.8922ZM7.99908 10.6669C8.36724 10.667 8.66575 10.9654 8.66575 11.3336C8.66562 11.7016 8.36716 12.0002 7.99908 12.0002C7.63098 12.0002 7.33255 11.7017 7.33242 11.3336C7.33242 10.9654 7.63089 10.6669 7.99908 10.6669ZM7.99974 4.73332C8.33111 4.73332 8.6 5.00221 8.6 5.33358V9.33358C8.59986 9.66484 8.33102 9.93384 7.99974 9.93384C7.66856 9.9337 7.39961 9.66475 7.39947 9.33358L7.39947 5.33358C7.39947 5.0023 7.66848 4.73346 7.99974 4.73332Z" fill="white"/>
</svg>
