<svg width="16" height="16" viewBox="0 0 16 16" fill="none" xmlns="http://www.w3.org/2000/svg">
<path fill-rule="evenodd" clip-rule="evenodd" d="M13.7541 9.34987C13.8494 8.93 13.8979 8.49953 13.8998 8.05847C13.8999 8.042 13.8999 8.0256 13.8998 8.00913C13.9019 7.97813 13.9015 7.94727 13.8988 7.91667C13.8915 7.52493 13.8469 7.14127 13.765 6.7658C13.6895 6.41919 13.5821 6.07953 13.4431 5.74679C13.3027 5.4109 13.1346 5.09304 12.939 4.79321C12.7204 4.45819 12.4673 4.14567 12.1797 3.85565C11.8921 3.56565 11.5817 3.30993 11.2486 3.08851C10.9505 2.89035 10.6339 2.71962 10.2993 2.5764C9.96773 2.43452 9.629 2.32434 9.28307 2.24585C9.18553 2.22372 9.0874 2.2041 8.98867 2.18701C8.93587 2.17089 8.8798 2.16172 8.8214 2.16053C8.54907 2.12146 8.27247 2.10134 7.99153 2.10015C7.5506 2.09829 7.1198 2.1432 6.6992 2.23488C6.35257 2.31045 6.01267 2.41783 5.67989 2.55693C5.34402 2.69733 5.02617 2.86535 4.72634 3.06099C4.39131 3.2796 4.07878 3.5327 3.78876 3.82029C3.49873 4.10789 3.243 4.41827 3.02157 4.75146C2.82342 5.04961 2.65272 5.36605 2.50951 5.70071C2.3676 6.03231 2.2574 6.37111 2.17891 6.71707C2.08367 7.13687 2.03512 7.5674 2.03326 8.0084C2.0314 8.44953 2.07633 8.8804 2.16805 9.30107C2.23993 9.63073 2.34056 9.9542 2.46991 10.2713C2.47619 10.2888 2.48323 10.3058 2.49101 10.3224C2.63121 10.6574 2.79889 10.9745 2.99406 11.2736C3.21267 11.6086 3.46581 11.9212 3.75339 12.2112C4.04096 12.5012 4.35131 12.7569 4.68446 12.9783C4.98265 13.1765 5.29911 13.3473 5.63382 13.4905C5.9654 13.6324 6.30417 13.7425 6.65015 13.8211C7.06995 13.9163 7.50053 13.9649 7.94153 13.9667C8.38267 13.9686 8.8136 13.9237 9.23427 13.8319L9.2354 13.8317C9.5816 13.7561 9.92087 13.6489 10.2532 13.5099C10.5891 13.3695 10.907 13.2015 11.2069 13.0058C11.5419 12.7872 11.8543 12.5341 12.1443 12.2466C12.4343 11.959 12.69 11.6487 12.9115 11.3155C13.1096 11.0173 13.2803 10.7009 13.4236 10.3662C13.5655 10.0346 13.6757 9.69587 13.7541 9.34987ZM12.6091 7.1016C12.6023 7.06753 12.5951 7.03347 12.5875 6.99953C12.5277 6.731 12.4437 6.46744 12.3359 6.20959C12.2255 5.94567 12.0938 5.69565 11.9407 5.45955C11.7647 5.18821 11.5603 4.93521 11.3276 4.70059C11.0949 4.46598 10.8437 4.25951 10.5739 4.08119C10.339 3.92603 10.0901 3.79216 9.82713 3.67963C9.68813 3.62014 9.54753 3.56765 9.40527 3.52215L9.40093 4.55163C9.4004 4.68663 9.38693 4.81902 9.36053 4.94877C9.33413 5.07849 9.29487 5.2056 9.24273 5.33007C9.19053 5.45454 9.12747 5.57165 9.05347 5.6814C8.9794 5.79119 8.89447 5.89363 8.7986 5.98869C8.70273 6.08374 8.5996 6.16781 8.48927 6.2409C8.37887 6.31399 8.2612 6.37611 8.13627 6.42723C8.01133 6.47837 7.88387 6.51658 7.75387 6.54187C7.62393 6.56715 7.49147 6.5795 7.35647 6.57893C7.30107 6.57869 7.24667 6.58377 7.19327 6.59416C7.13993 6.60454 7.0876 6.62022 7.03633 6.64121C6.98506 6.66221 6.93673 6.68773 6.8914 6.71773C6.84607 6.74773 6.80373 6.78227 6.7644 6.82127C6.72507 6.86027 6.6902 6.90233 6.65979 6.9474C6.62939 6.99247 6.60349 7.04053 6.58206 7.09167C6.56064 7.1428 6.54452 7.19493 6.53369 7.2482C6.52286 7.30153 6.51732 7.35587 6.51709 7.41127L6.5119 8.64207C6.51133 8.777 6.49786 8.9094 6.47148 9.03913C6.44511 9.16887 6.40583 9.296 6.35365 9.42047C6.30143 9.54507 6.2383 9.66227 6.16423 9.77207C6.09024 9.8818 6.00534 9.98413 5.90954 10.0791C5.81367 10.1742 5.71054 10.2583 5.60013 10.3313C5.48976 10.4045 5.3721 10.4665 5.24719 10.5177C5.12225 10.5688 4.99479 10.607 4.86483 10.6323C4.73488 10.6576 4.60241 10.6699 4.46744 10.6693L4.03217 10.6675C4.19902 10.9162 4.39013 11.1491 4.60549 11.3663C4.83811 11.6009 5.08934 11.8073 5.35916 11.9857C5.59399 12.1409 5.84293 12.2747 6.10593 12.3873C6.36297 12.4973 6.62557 12.5833 6.89367 12.6455C7.2356 12.7248 7.58667 12.7652 7.9466 12.7667C8.3066 12.7683 8.65793 12.7308 9.0006 12.6543C9.2692 12.5945 9.53247 12.5106 9.7904 12.4028C10.0541 12.2925 10.304 12.1609 10.54 12.0079C10.5705 11.9881 10.6012 11.9676 10.6313 11.9471L10.633 11.5313C10.6333 11.4725 10.6231 11.4179 10.6025 11.3676C10.5819 11.3174 10.5509 11.2715 10.5096 11.2297C10.4683 11.1881 10.4226 11.1567 10.3726 11.1357C10.3225 11.1147 10.268 11.1041 10.2091 11.1039C10.0741 11.1033 9.9418 11.0898 9.812 11.0634C9.68227 11.0371 9.5552 10.9977 9.43073 10.9456C9.3062 10.8934 9.18907 10.8303 9.07933 10.7563C8.96953 10.6823 8.86713 10.5973 8.77207 10.5015C8.677 10.4056 8.59293 10.3025 8.51987 10.1921C8.4468 10.0817 8.38467 9.96407 8.33353 9.83913C8.2824 9.7142 8.2442 9.5868 8.21893 9.45687C8.19367 9.32687 8.18127 9.1944 8.18187 9.0594C8.1824 8.9244 8.19587 8.792 8.22227 8.66227C8.24867 8.53253 8.28793 8.4054 8.34013 8.28093C8.39227 8.15647 8.4554 8.03933 8.5294 7.92953C8.6034 7.81973 8.68833 7.71733 8.7842 7.62233C8.88007 7.52727 8.9832 7.4432 9.0936 7.37007C9.204 7.297 9.3216 7.23487 9.44653 7.18373C9.57147 7.13267 9.69893 7.0944 9.82887 7.06913C9.9588 7.04387 10.0913 7.03153 10.2263 7.03207L11.9773 7.03947C12.1925 7.04153 12.4031 7.06227 12.6091 7.1016ZM12.6889 8.36167C12.6295 8.34133 12.5695 8.3236 12.5088 8.30833C12.3331 8.2642 12.152 8.2412 11.9656 8.2394L10.2213 8.23207C10.1658 8.2318 10.1114 8.23693 10.0581 8.24727C10.0047 8.25767 9.9524 8.27333 9.90113 8.29433C9.8498 8.31533 9.80147 8.34087 9.7562 8.37087C9.71087 8.40087 9.66853 8.4354 9.62913 8.4744C9.5898 8.5134 9.55493 8.55547 9.52453 8.60053C9.49413 8.6456 9.46827 8.69367 9.4468 8.7448C9.4254 8.79593 9.40927 8.84807 9.39847 8.90133C9.3876 8.9546 9.38207 9.009 9.38187 9.0644C9.3816 9.11987 9.38667 9.17427 9.39707 9.22767C9.40747 9.281 9.42313 9.33333 9.44413 9.3846C9.46513 9.43587 9.4906 9.4842 9.5206 9.52953C9.55067 9.57487 9.58513 9.6172 9.6242 9.65653C9.6632 9.69587 9.70527 9.73073 9.75033 9.76113C9.7954 9.79153 9.84347 9.81747 9.8946 9.83887C9.94567 9.86027 9.99787 9.8764 10.0511 9.88727C10.1044 9.89807 10.1588 9.9036 10.2142 9.90387C10.3219 9.90427 10.4275 9.91507 10.531 9.93607C10.6347 9.95713 10.7363 9.98853 10.8358 10.0302C10.9353 10.0719 11.0291 10.1224 11.1169 10.1817C11.2043 10.2407 11.2859 10.3084 11.3617 10.3848C11.4375 10.4612 11.5045 10.5433 11.5627 10.6313C11.6213 10.7196 11.6709 10.8137 11.7119 10.9137C11.7133 10.9171 11.7147 10.9205 11.716 10.924C11.7872 10.832 11.8548 10.7376 11.9187 10.6408C12.0739 10.406 12.2078 10.1571 12.3203 9.89407C12.4303 9.63707 12.5164 9.37447 12.5786 9.10633C12.6351 8.86267 12.6719 8.61447 12.6889 8.36167ZM7.98647 3.30014C8.06007 3.30045 8.13333 3.30239 8.2062 3.30595L8.20093 4.54657C8.20073 4.60202 8.1952 4.65639 8.18433 4.70969C8.17353 4.76293 8.1574 4.81509 8.136 4.86618C8.1146 4.91727 8.08867 4.96535 8.05833 5.0104C8.02793 5.05548 7.993 5.09757 7.95367 5.1366C7.91427 5.17563 7.87193 5.21016 7.8266 5.24018C7.78127 5.27018 7.733 5.29567 7.68173 5.31666C7.6304 5.33765 7.57807 5.35335 7.52467 5.36373C7.47133 5.3741 7.41693 5.37917 7.36153 5.37894C7.22653 5.37837 7.09407 5.39073 6.96413 5.41601C6.8342 5.44129 6.70673 5.4795 6.58181 5.53063C6.45687 5.58176 6.33921 5.64387 6.22881 5.71697C6.11843 5.79005 6.01531 5.87412 5.91945 5.96917C5.8236 6.06421 5.73867 6.16663 5.66465 6.27639C5.59063 6.38617 5.52753 6.50331 5.47535 6.6278C5.42317 6.75227 5.38389 6.8794 5.35752 7.00907C5.33114 7.1388 5.31767 7.27127 5.31709 7.40627L5.31191 8.637C5.31167 8.6924 5.30614 8.7468 5.29531 8.80007C5.28449 8.85333 5.26835 8.90553 5.24693 8.9566C5.22551 9.00773 5.19959 9.0558 5.1692 9.10093C5.13881 9.146 5.10394 9.188 5.06459 9.227C5.02523 9.26607 4.98289 9.3006 4.93757 9.3306C4.89225 9.3606 4.84393 9.38607 4.79264 9.40707C4.74133 9.42807 4.68899 9.4438 4.63561 9.45413C4.58228 9.46453 4.52789 9.4696 4.47249 9.46933L3.45302 9.46507C3.41127 9.33387 3.37546 9.20133 3.3456 9.06747C3.26919 8.72487 3.23173 8.37347 3.23325 8.01347C3.23477 7.65353 3.27517 7.3026 3.35445 6.96067C3.41663 6.69253 3.50272 6.42989 3.61273 6.17283C3.72526 5.90987 3.8591 5.661 4.01425 5.42621C4.19258 5.15633 4.39906 4.90505 4.6337 4.67239C4.86834 4.43972 5.12133 4.23537 5.3927 4.05931C5.62872 3.90621 5.87889 3.77437 6.14269 3.6641C6.40065 3.55627 6.66394 3.4724 6.9326 3.41249C7.27513 3.33609 7.62653 3.29863 7.98647 3.30014Z" fill="white"/>
</svg>
