<svg width="16" height="16" viewBox="0 0 16 16" fill="none" xmlns="http://www.w3.org/2000/svg">
<path fill-rule="evenodd" clip-rule="evenodd" d="M14.5999 7.6999C14.5999 7.79324 14.5866 7.88657 14.5732 7.9799C14.5532 8.06657 14.5266 8.1599 14.4932 8.24657C14.4599 8.33324 14.4199 8.4199 14.3732 8.49324C14.3199 8.57324 14.2666 8.65324 14.2066 8.7199C13.8866 9.06657 13.5532 9.38657 13.2066 9.69324C12.7466 10.0932 12.2799 10.4532 11.8066 10.7532C11.2199 11.1332 10.6332 11.4199 10.0466 11.6266C9.35324 11.8732 8.67324 11.9999 7.9999 11.9999C7.3199 11.9999 6.6399 11.8732 5.94657 11.6266C5.3599 11.4199 4.77324 11.1332 4.18657 10.7532C3.71324 10.4532 3.24657 10.0932 2.78657 9.69324C2.4399 9.38657 2.11324 9.06657 1.79324 8.72657C1.6999 8.6199 1.6199 8.50657 1.5599 8.38657C1.5399 8.3399 1.5199 8.29324 1.4999 8.24657C1.46657 8.1599 1.4399 8.06657 1.4199 7.9799C1.40657 7.88657 1.3999 7.79324 1.3999 7.6999C1.3999 7.60657 1.40657 7.51324 1.4199 7.4199C1.4399 7.32657 1.46657 7.2399 1.4999 7.15324C1.53324 7.0599 1.57324 6.9799 1.6199 6.8999C1.67324 6.8199 1.72657 6.74657 1.78657 6.6799C2.10657 6.33324 2.4399 6.00657 2.78657 5.70657C3.24657 5.2999 3.71324 4.94657 4.18657 4.6399C4.77324 4.26657 5.3599 3.97324 5.94657 3.76657C6.6399 3.5199 7.3199 3.3999 7.9999 3.3999C8.67324 3.3999 9.35324 3.5199 10.0466 3.76657C10.6332 3.97324 11.2199 4.26657 11.8066 4.6399C12.2799 4.94657 12.7466 5.2999 13.2066 5.70657C13.5532 6.00657 13.8799 6.33324 14.1999 6.67324C14.2932 6.77324 14.3732 6.88657 14.4332 7.00657C14.4532 7.05324 14.4732 7.0999 14.4932 7.15324C14.5266 7.2399 14.5532 7.32657 14.5732 7.4199C14.5866 7.51324 14.5999 7.60657 14.5999 7.6999ZM13.3999 7.6999C13.3999 7.64657 13.3866 7.5999 13.3666 7.55324C13.3532 7.53324 13.3399 7.50657 13.3199 7.48657C13.0332 7.17324 12.7266 6.8799 12.4132 6.60657C11.9999 6.2399 11.5799 5.92657 11.1599 5.65324C10.0599 4.95324 9.00657 4.5999 7.9999 4.5999C6.98657 4.5999 5.93324 4.95324 4.83324 5.65324C4.41324 5.92657 3.99324 6.2399 3.5799 6.60657C3.47324 6.6999 3.37324 6.78657 3.27324 6.88657C3.07324 7.07324 2.87324 7.27324 2.6799 7.4799C2.65324 7.51324 2.63324 7.54657 2.6199 7.5799C2.60657 7.6199 2.5999 7.6599 2.5999 7.6999C2.5999 7.75324 2.60657 7.7999 2.62657 7.8399C2.6399 7.86657 2.65324 7.88657 2.67324 7.90657C2.96657 8.2199 3.26657 8.51324 3.5799 8.78657C3.99324 9.15324 4.41324 9.47324 4.83324 9.74657C5.93324 10.4466 6.98657 10.7999 7.9999 10.7999C9.00657 10.7999 10.0599 10.4466 11.1599 9.74657C11.5799 9.47324 11.9999 9.15324 12.4132 8.78657C12.5199 8.6999 12.6199 8.60657 12.7199 8.51324C12.9266 8.3199 13.1199 8.1199 13.3132 7.91324C13.3399 7.88657 13.3599 7.85324 13.3732 7.81324C13.3866 7.7799 13.3999 7.7399 13.3999 7.6999ZM7.47324 10.0932C7.6399 10.1266 7.8199 10.1466 7.9999 10.1466C8.17324 10.1466 8.35324 10.1266 8.5199 10.0932C8.66657 10.0599 8.81324 10.0132 8.95324 9.95324C9.09324 9.89324 9.2199 9.82657 9.34657 9.7399C9.48657 9.65324 9.61324 9.54657 9.72657 9.43324C9.84657 9.31324 9.95324 9.18657 10.0399 9.04657C10.1266 8.92657 10.1932 8.79324 10.2532 8.65324C10.3132 8.51324 10.3599 8.36657 10.3932 8.22657C10.4266 8.05324 10.4466 7.8799 10.4466 7.6999C10.4466 7.5199 10.4266 7.3399 10.3932 7.17324C10.3599 7.02657 10.3132 6.88657 10.2532 6.74657C10.1932 6.60657 10.1266 6.47324 10.0399 6.34657C9.95324 6.21324 9.84657 6.08657 9.72657 5.96657C9.61324 5.84657 9.48657 5.74657 9.34657 5.65324C9.2199 5.57324 9.09324 5.4999 8.95324 5.4399C8.81324 5.3799 8.66657 5.33324 8.5199 5.30657C8.35324 5.26657 8.17324 5.24657 7.9999 5.24657C7.8199 5.24657 7.6399 5.26657 7.47324 5.30657C7.32657 5.33324 7.1799 5.3799 7.0399 5.4399C6.90657 5.4999 6.77324 5.57324 6.64657 5.65324C6.51324 5.74657 6.3799 5.84657 6.26657 5.96657C6.14657 6.08657 6.0399 6.21324 5.95324 6.34657C5.86657 6.47324 5.7999 6.60657 5.7399 6.74657C5.6799 6.88657 5.63324 7.02657 5.60657 7.17324C5.56657 7.3399 5.54657 7.5199 5.54657 7.6999C5.54657 7.8799 5.56657 8.05324 5.60657 8.22657C5.63324 8.36657 5.6799 8.51324 5.7399 8.65324C5.7999 8.79324 5.86657 8.92657 5.95324 9.04657C6.0399 9.18657 6.14657 9.31324 6.26657 9.43324C6.3799 9.54657 6.51324 9.65324 6.64657 9.7399C6.77324 9.82657 6.90657 9.89324 7.0399 9.95324C7.1799 10.0132 7.32657 10.0599 7.47324 10.0932ZM8.28657 8.91324C8.19324 8.9399 8.09324 8.94657 7.9999 8.94657C7.8999 8.94657 7.7999 8.9399 7.70657 8.91324C7.6399 8.8999 7.57324 8.8799 7.51324 8.84657C7.4399 8.8199 7.3799 8.78657 7.3199 8.74657C7.24657 8.6999 7.17324 8.64657 7.11324 8.5799C7.05324 8.5199 6.99324 8.45324 6.94657 8.3799C6.90657 8.31324 6.87324 8.25324 6.84657 8.18657C6.8199 8.1199 6.79324 8.05324 6.7799 7.98657C6.7599 7.89324 6.74657 7.79324 6.74657 7.6999C6.74657 7.5999 6.7599 7.50657 6.7799 7.41324C6.79324 7.3399 6.8199 7.2799 6.84657 7.21324C6.87324 7.14657 6.90657 7.0799 6.94657 7.0199C6.99324 6.94657 7.05324 6.8799 7.11324 6.81324C7.17324 6.75324 7.24657 6.69324 7.3199 6.64657C7.3799 6.60657 7.4399 6.57324 7.51324 6.54657C7.57324 6.5199 7.6399 6.4999 7.70657 6.4799C7.7999 6.4599 7.8999 6.44657 7.9999 6.44657C8.09324 6.44657 8.19324 6.4599 8.28657 6.4799C8.35324 6.4999 8.4199 6.5199 8.4799 6.54657C8.55324 6.57324 8.61324 6.60657 8.67324 6.64657C8.74657 6.69324 8.8199 6.75324 8.8799 6.81324C8.94657 6.8799 8.9999 6.94657 9.04657 7.0199C9.08657 7.0799 9.1199 7.14657 9.14657 7.21324C9.17324 7.2799 9.1999 7.3399 9.21324 7.41324C9.23324 7.50657 9.24657 7.5999 9.24657 7.6999C9.24657 7.79324 9.23324 7.89324 9.21324 7.98657C9.1999 8.05324 9.17324 8.1199 9.14657 8.18657C9.1199 8.25324 9.08657 8.31324 9.04657 8.3799C8.9999 8.45324 8.94657 8.5199 8.8799 8.5799C8.8199 8.64657 8.74657 8.6999 8.67324 8.74657C8.61324 8.78657 8.55324 8.8199 8.4799 8.84657C8.4199 8.8799 8.35324 8.8999 8.28657 8.91324Z" fill="white"/>
</svg>
