<svg width="16" height="16" viewBox="0 0 16 16" fill="none" xmlns="http://www.w3.org/2000/svg">
<path fill-rule="evenodd" clip-rule="evenodd" d="M10.3467 2.31351C10.3734 2.61351 10.3334 2.97351 10.2334 3.36685L9.60005 5.88018L10.9867 6.17351C11.7401 6.30018 12.4134 6.67351 12.6134 7.39351C12.8001 8.07351 12.4734 8.78685 11.9734 9.40018H11.9667L8.18005 13.8402L8.17338 13.8468C7.91338 14.1335 7.64672 14.3602 7.38672 14.5068C7.14672 14.6335 6.75338 14.7668 6.37338 14.5468C6.00672 14.3268 5.92005 13.9268 5.90005 13.6602C5.88005 13.3602 5.92672 13.0068 6.02005 12.6268L6.60672 10.0735L5.18672 9.82018C5.18672 9.82018 5.18672 9.82018 5.18005 9.82018C4.45338 9.69351 3.72672 9.34685 3.44672 8.65351C3.14672 7.92685 3.45338 7.14685 4.07338 6.45351L4.08005 6.44685L4.08672 6.44018C4.60005 5.90018 4.96672 5.50685 5.18672 5.25351C5.45338 4.96685 5.76005 4.64685 6.10672 4.28018C6.20672 4.17351 6.31338 4.06685 6.42005 3.95351C6.90005 3.44685 7.45338 2.85351 8.08005 2.14685C8.32672 1.86685 8.58005 1.63351 8.84005 1.49351C9.08005 1.36018 9.46672 1.23351 9.84672 1.44018C10.2134 1.64018 10.3201 2.03351 10.3467 2.31351ZM9.13338 2.78018C9.08672 2.82685 9.03338 2.88018 8.98672 2.94018H8.98005C8.34005 3.66685 7.77338 4.26685 7.28672 4.78018C7.17338 4.89351 7.06672 5.00685 6.96672 5.12018C6.62005 5.48018 6.32672 5.78685 6.08005 6.06018C5.84672 6.32018 5.47338 6.72018 4.96672 7.26018C4.47338 7.81351 4.51338 8.10018 4.55338 8.19351C4.60672 8.32685 4.82005 8.54018 5.39338 8.64018L7.22672 8.96685C7.66672 9.04685 7.96005 9.46685 7.88005 9.90685C7.88005 9.92018 7.87338 9.93351 7.87338 9.95351L7.18672 12.9068C7.16005 13.0202 7.14005 13.1202 7.12005 13.2068C7.17338 13.1602 7.22005 13.1068 7.28005 13.0468L11.0467 8.63351C11.4667 8.12018 11.4801 7.82018 11.4534 7.71351C11.4334 7.64685 11.3401 7.44685 10.7734 7.35351H10.7601L8.96005 6.97351C8.52672 6.88685 8.24005 6.46685 8.32672 6.03351C8.32672 6.02018 8.32672 6.00685 8.33338 5.99351V5.98685L9.06672 3.07351C9.10005 2.96685 9.12005 2.86685 9.13338 2.78018Z" fill="white"/>
</svg>
