<svg width="16" height="16" viewBox="0 0 16 16" fill="none" xmlns="http://www.w3.org/2000/svg">
<path d="M11.5553 3.11149V6.88883L14.6666 8.44482V12.8888L11.1112 14.6668L7.99992 13.1108L4.88859 14.6668L1.33325 12.8888L1.33325 8.44482L4.44458 6.88883V3.11149L7.99992 1.3335L11.5553 3.11149ZM2.53312 9.18636L2.53312 12.1473L4.88859 13.325L7.24406 12.1473V9.18636L4.88859 8.00863L2.53312 9.18636ZM8.75578 9.18636V12.1473L11.1112 13.325L13.4667 12.1473V9.18636L11.1112 8.00863L8.75578 9.18636ZM5.64445 3.85303V6.81397L7.99992 7.9917L10.3554 6.81397V3.85303L7.99992 2.67529L5.64445 3.85303Z" fill="white"/>
</svg>
