<svg width="16" height="16" viewBox="0 0 16 16" fill="none" xmlns="http://www.w3.org/2000/svg">
<path d="M12.1957 11.347C12.4297 11.5812 12.4296 11.961 12.1957 12.1953C11.366 13.025 10.3082 13.59 9.1573 13.819C8.0065 14.0478 6.81361 13.9307 5.72957 13.4817C4.64539 13.0326 3.71877 12.2719 3.06681 11.2962C2.43571 10.3517 2.09092 9.24674 2.06941 8.11258L1.75756 8.42443C1.52325 8.65874 1.14292 8.65874 0.908602 8.42443C0.674375 8.1901 0.674317 7.80975 0.908602 7.57547L2.24194 6.24213C2.29422 6.18986 2.35415 6.14998 2.41772 6.12104C2.42406 6.11814 2.43014 6.11461 2.4366 6.11193C2.65416 6.02196 2.91411 6.06542 3.09089 6.24213C3.17267 6.32391 3.2257 6.42366 3.2504 6.52859C3.25193 6.53508 3.25364 6.54155 3.25496 6.54812C3.26279 6.5872 3.26667 6.62691 3.26668 6.66661L3.26668 7.99995C3.26668 8.93604 3.54417 9.85115 4.0642 10.6295C4.58429 11.4079 5.32367 12.0147 6.18855 12.373C7.05342 12.7312 8.00544 12.8252 8.92358 12.6425C9.84157 12.4599 10.6849 12.0088 11.3468 11.347C11.5811 11.1128 11.9614 11.1127 12.1957 11.347Z" fill="white"/>
<path d="M15.0909 7.57547C15.3252 7.80977 15.3252 8.19011 15.0909 8.42443L13.7576 9.75776C13.7362 9.77914 13.7128 9.79757 13.6892 9.81505C13.6659 9.83232 13.642 9.84878 13.6163 9.86258C13.6143 9.86363 13.6124 9.8648 13.6104 9.86583C13.5952 9.87381 13.5796 9.8813 13.5636 9.88797C13.5552 9.89142 13.5466 9.89402 13.5382 9.89708C13.5276 9.90093 13.5171 9.90489 13.5063 9.90815C13.4113 9.93665 13.3107 9.94068 13.2139 9.92117C13.1862 9.91556 13.1594 9.90767 13.1332 9.89838C13.1041 9.88812 13.0755 9.87617 13.0479 9.86127C12.9789 9.82385 12.9183 9.77319 12.8689 9.71284C12.8476 9.6868 12.8292 9.65928 12.8129 9.63081C12.8102 9.62608 12.8077 9.62129 12.8051 9.61648C12.7999 9.60677 12.7947 9.59712 12.7901 9.58719C12.7864 9.57919 12.7824 9.57128 12.779 9.5631C12.7662 9.53195 12.7565 9.49991 12.7491 9.46739C12.7479 9.46196 12.7463 9.45661 12.7452 9.45112C12.7374 9.41221 12.7328 9.37281 12.7328 9.33328L12.7328 7.99995C12.7328 7.06389 12.4553 6.14871 11.9353 5.37039C11.4152 4.59212 10.6757 3.98512 9.81095 3.6269C8.94612 3.26874 7.994 3.17475 7.07592 3.35737C6.15794 3.54004 5.31461 3.99113 4.65274 4.65294C4.41842 4.88717 4.03807 4.88723 3.80379 4.65294C3.56989 4.4187 3.56986 4.03886 3.80379 3.80463C4.63352 2.9749 5.69134 2.40991 6.8422 2.18094C7.99294 1.95207 9.18593 2.06927 10.2699 2.51818C11.354 2.96722 12.2807 3.72809 12.9327 4.70372C13.5636 5.64799 13.9091 6.75281 13.9307 7.88667L14.2419 7.57547C14.4762 7.34121 14.8566 7.34124 15.0909 7.57547Z" fill="white"/>
<path fill-rule="evenodd" clip-rule="evenodd" d="M11.9281 8.20242C11.8228 10.2807 10.1042 11.9335 7.99975 11.9335C5.82745 11.9335 4.06615 10.1723 4.06615 7.99995C4.06622 5.8277 5.82749 4.06638 7.99975 4.06635C10.172 4.06635 11.9333 5.82768 11.9333 7.99995L11.9281 8.20242ZM6.44897 5.74995C5.89275 6.13401 5.4864 6.71863 5.33373 7.39969H6.17032C6.20884 6.79516 6.30475 6.23157 6.44897 5.74995ZM6.44897 10.2493C6.30487 9.76778 6.20881 9.20448 6.17032 8.60021H5.33373C5.48633 9.28119 5.8929 9.86519 6.44897 10.2493ZM8.628 7.39969C8.58292 6.78413 8.47053 6.2495 8.32201 5.85346C8.22375 5.59148 8.12098 5.42099 8.03751 5.32677C8.02312 5.31055 8.01001 5.29846 7.99975 5.28901C7.98948 5.29847 7.97639 5.31053 7.96199 5.32677C7.87851 5.42099 7.77575 5.59146 7.67748 5.85346C7.52897 6.24948 7.41788 6.78417 7.3728 7.39969H8.628ZM7.3728 8.60021C7.41786 9.21576 7.52898 9.75037 7.67748 10.1464C7.77573 10.4084 7.87852 10.5789 7.96199 10.6731C7.97622 10.6892 7.98954 10.7008 7.99975 10.7102C8.00996 10.7008 8.02326 10.6892 8.03751 10.6731C8.12099 10.5789 8.22375 10.4084 8.32201 10.1464C8.47053 9.75035 8.58294 9.21582 8.628 8.60021L7.3728 8.60021ZM10.6664 7.39969C10.5138 6.71874 10.1072 6.13403 9.55118 5.74995C9.69538 6.23156 9.79197 6.79519 9.83048 7.39969H10.6664ZM9.83048 8.60021C9.792 9.20445 9.69526 9.7678 9.55118 10.2493C10.1071 9.86516 10.5139 9.28108 10.6664 8.60021H9.83048Z" fill="white"/>
</svg>
