<svg width="16" height="16" viewBox="0 0 16 16" fill="none" xmlns="http://www.w3.org/2000/svg">
<path d="M13.3024 7.34724C13.6558 7.34873 13.9411 7.63645 13.9396 7.98991C13.9257 11.2889 11.2402 13.9519 7.94122 13.938C4.64227 13.9241 1.97923 11.2385 1.99314 7.93956C2.00704 4.64061 4.69261 1.97758 7.99156 1.99148C8.44951 1.99341 9.17489 2.05422 9.90659 2.23002C10.6185 2.40109 11.4416 2.70522 11.9941 3.26227C12.2429 3.51326 12.2412 3.91898 11.9902 4.16786C11.7393 4.41641 11.3341 4.41483 11.0853 4.16404C10.7882 3.86442 10.2507 3.62886 9.60707 3.47421C8.98319 3.32435 8.35775 3.27298 7.98617 3.27142C5.39414 3.26049 3.284 5.35292 3.27307 7.94496C3.26215 10.537 5.35458 12.6471 7.94661 12.6581C10.3215 12.6681 12.2909 10.9122 12.6127 8.6243L7.25276 8.60171C6.8993 8.60022 6.614 8.3125 6.61549 7.95904C6.61698 7.60558 6.9047 7.32028 7.25816 7.32177L13.3024 7.34724Z" fill="white"/>
</svg>
