<svg width="16" height="16" viewBox="0 0 16 16" fill="none" xmlns="http://www.w3.org/2000/svg">
<path fill-rule="evenodd" clip-rule="evenodd" d="M11.1281 4.11416C10.9825 3.96736 10.7786 3.83378 10.5163 3.71341C10.2668 3.59894 9.97587 3.50177 9.6434 3.42189C9.35547 3.35271 9.0524 3.30008 8.73413 3.26401C8.47093 3.23417 8.23127 3.2188 8.015 3.21789C7.65613 3.21638 7.306 3.25373 6.96453 3.32995C6.69727 3.38961 6.43527 3.47308 6.17863 3.58036C5.91595 3.69016 5.66711 3.82128 5.43209 3.97371C5.16165 4.14912 4.90951 4.35275 4.67569 4.58461C4.44186 4.81648 4.2361 5.0669 4.05841 5.33586C3.90401 5.56958 3.77081 5.81731 3.65881 6.07903C3.54938 6.33474 3.46371 6.59597 3.40181 6.8627C3.3227 7.20357 3.28239 7.55343 3.28087 7.91223C3.27936 8.2711 3.31672 8.6213 3.39295 8.96277C3.45261 9.23003 3.53607 9.49197 3.64335 9.74863C3.75314 10.0113 3.88425 10.2601 4.03667 10.4951C4.21208 10.7655 4.41573 11.0177 4.6476 11.2516C4.87945 11.4854 5.12985 11.6911 5.39879 11.8688C5.63251 12.0232 5.88027 12.1564 6.14201 12.2684C6.39776 12.3779 6.65902 12.4636 6.9258 12.5255C7.2666 12.6046 7.61647 12.6448 7.97527 12.6464C8.33407 12.6479 8.6842 12.6106 9.02573 12.5343C9.293 12.4746 9.55493 12.3912 9.8116 12.2839C10.0743 12.1741 10.3231 12.043 10.5581 11.8906C10.8285 11.7152 11.0807 11.5115 11.3145 11.2796C11.5483 11.0478 11.7541 10.7974 11.9318 10.5284C12.0862 10.2947 12.2194 10.047 12.3314 9.78523C12.4409 9.5295 12.5265 9.26823 12.5885 9.0015C12.6196 8.8673 12.6447 8.7317 12.6639 8.5947L9.94007 8.58317L9.93353 10.1413C9.932 10.5013 9.64793 10.783 9.28793 10.7814C8.92793 10.78 8.64627 10.4959 8.6478 10.1359L8.65433 8.57777L7.27813 8.57197C6.91813 8.57043 6.63647 8.28643 6.63799 7.92643C6.63951 7.56643 6.92353 7.28477 7.28353 7.2863L8.65973 7.2921L8.6662 5.75487C8.66773 5.39488 8.95173 5.11321 9.31173 5.11472C9.67173 5.11623 9.9534 5.40027 9.95187 5.76027L9.94547 7.2975L13.3549 7.31183C13.4437 7.31223 13.5259 7.3283 13.6015 7.35997C13.6771 7.3917 13.7462 7.43903 13.8087 7.50203C13.8712 7.5651 13.918 7.63457 13.949 7.71043C13.9801 7.7863 13.9955 7.86863 13.9951 7.95743C13.9932 8.4031 13.9441 8.8381 13.8479 9.26243C13.7685 9.61263 13.6571 9.9555 13.5135 10.2911C13.3685 10.6296 13.1959 10.9497 12.9954 11.2513C12.7715 11.5881 12.513 11.9019 12.2199 12.1926C11.9267 12.4833 11.6107 12.7392 11.2721 12.9602C10.9688 13.1582 10.6472 13.3281 10.3075 13.4702C9.97067 13.6109 9.62687 13.7195 9.27607 13.796C8.85093 13.8886 8.41553 13.934 7.9698 13.9321C7.52413 13.9302 7.08913 13.8812 6.66479 13.785C6.31464 13.7056 5.97177 13.5941 5.63617 13.4504C5.29761 13.3056 4.97753 13.1329 4.67591 12.9324C4.33912 12.7086 4.02536 12.45 3.73464 12.1568C3.44393 11.8637 3.18807 11.5478 2.96705 11.2091C2.76912 10.9058 2.59913 10.5842 2.4571 10.2445C2.31633 9.9077 2.20773 9.5639 2.1313 9.21317C2.03867 8.78803 1.99329 8.35257 1.99517 7.90683C1.99705 7.4611 2.04609 7.0261 2.14231 6.60174C2.22169 6.25161 2.33318 5.90876 2.47679 5.57319C2.62167 5.23463 2.79435 4.91453 2.99483 4.61292C3.21869 4.27612 3.47721 3.96237 3.77039 3.67165C4.06357 3.38094 4.37949 3.12507 4.71815 2.90406C5.02145 2.70612 5.34299 2.53614 5.68277 2.39411C6.01955 2.25334 6.36334 2.14473 6.71413 2.0683C7.13927 1.97568 7.57467 1.93031 8.0204 1.93218C8.28327 1.93329 8.56947 1.95139 8.87893 1.98648C9.2496 2.0285 9.60453 2.09026 9.94373 2.17175C10.8792 2.39652 11.5783 2.74222 12.0411 3.20886C12.2945 3.46449 12.2929 3.86451 12.0372 4.11799C11.7816 4.37147 11.3816 4.36978 11.1281 4.11416Z" fill="white"/>
</svg>
