<svg width="16" height="16" viewBox="0 0 16 16" fill="none" xmlns="http://www.w3.org/2000/svg">
<path d="M7.11532 2.20583C7.60045 1.70365 8.38863 1.70361 8.87443 2.20518C10.3904 3.77034 13.3333 7.1169 13.3334 9.51117C13.3334 12.3556 10.9278 14.6668 7.99422 14.6668C5.06065 14.6667 2.66675 12.3555 2.66675 9.51117C2.66686 7.11867 5.60239 3.77172 7.11532 2.20583ZM7.5424 10.8777C6.73944 10.164 5.59316 9.98566 4.61141 10.422L4.04761 10.672C4.08712 10.7944 4.13317 10.9156 4.18563 11.0353C4.25811 11.2007 4.34139 11.3594 4.43498 11.5118C4.60856 11.7945 4.81835 12.055 5.06453 12.2931C5.23519 12.4581 5.41744 12.6066 5.61076 12.7384C5.84969 12.9013 6.1061 13.039 6.37964 13.1511C6.58944 13.2371 6.80358 13.3054 7.02157 13.3562C7.3372 13.4299 7.6614 13.4669 7.99422 13.4669C8.32102 13.4669 8.64007 13.4311 8.9506 13.3601C9.17518 13.3088 9.39535 13.2389 9.61141 13.1505C9.88726 13.0376 10.1459 12.8993 10.3868 12.7351C10.5794 12.6038 10.7608 12.4559 10.9311 12.2918C11.1359 12.0943 11.3141 11.8805 11.4688 11.6524L11.2904 11.7065C9.98203 12.099 8.56336 11.7852 7.5424 10.8777ZM7.9786 3.03982C7.52668 3.50755 7.09861 3.97775 6.69474 4.45062C6.16483 5.07108 5.70315 5.66538 5.30998 6.23253C4.84635 6.90132 4.49159 7.51258 4.24618 8.06651C4.00853 8.60299 3.88367 9.06062 3.86922 9.43891L4.12443 9.32562C5.53641 8.69817 7.18507 8.95407 8.33993 9.98057C9.04976 10.6115 10.0357 10.8297 10.9454 10.5567L12.0658 10.2202C12.11 9.98846 12.1335 9.75218 12.1335 9.51117C12.1335 9.11922 12.0068 8.6376 11.7533 8.06651C11.5073 7.51232 11.1517 6.9008 10.6869 6.23187C10.2928 5.66471 9.83004 5.071 9.29891 4.45062C8.89408 3.9778 8.46541 3.50741 8.01245 3.03982C8.00557 3.03271 7.99984 3.0288 7.99552 3.02875C7.99119 3.02875 7.98553 3.03265 7.9786 3.03982Z" fill="white"/>
</svg>
