<svg width="16" height="16" viewBox="0 0 16 16" fill="none" xmlns="http://www.w3.org/2000/svg">
<g clip-path="url(#clip0_522_36551)">
<path d="M8 9.93343C8.40501 9.93343 8.73307 10.2615 8.73307 10.6665C8.73306 11.0715 8.405 11.3996 8 11.3996C7.595 11.3996 7.26694 11.0715 7.26693 10.6665C7.26693 10.2615 7.59499 9.93343 8 9.93343Z" fill="white"/>
<path d="M8 4.06624C8.33137 4.06624 8.60026 4.33513 8.60026 4.6665V8.6665C8.60026 8.99788 8.33137 9.26676 8 9.26676C7.66863 9.26676 7.39974 8.99788 7.39974 8.6665L7.39974 4.6665C7.39974 4.33513 7.66863 4.06624 8 4.06624Z" fill="white"/>
<path fill-rule="evenodd" clip-rule="evenodd" d="M8 0.686035C8.59801 0.686035 9.0984 0.934526 9.58854 1.30843C10.0649 1.67188 10.598 2.2066 11.2526 2.86117L13.1387 4.74723C13.7932 5.40181 14.328 5.93494 14.6914 6.4113C15.0653 6.90144 15.3145 7.40183 15.3145 7.99984C15.3145 8.59784 15.0653 9.09823 14.6914 9.58838C14.328 10.0647 13.7932 10.5979 13.1387 11.2524L11.2526 13.1385C10.598 13.7931 10.0649 14.3278 9.58854 14.6912C9.09839 15.0652 8.59801 15.3143 8 15.3143C7.40199 15.3143 6.90161 15.0652 6.41146 14.6912C5.9351 14.3278 5.40197 13.7931 4.7474 13.1385L2.86133 11.2524C2.20676 10.5979 1.67204 10.0647 1.30859 9.58838C0.934689 9.09823 0.685547 8.59784 0.685547 7.99984C0.68555 7.40183 0.934686 6.90144 1.30859 6.4113C1.67204 5.93494 2.20676 5.40181 2.86133 4.74723L4.7474 2.86117C5.40196 2.2066 5.9351 1.67188 6.41146 1.30843C6.9016 0.934526 7.40199 0.686035 8 0.686035ZM8 1.88525C7.76975 1.88525 7.52276 1.97033 7.13932 2.26286C6.74196 2.56603 6.27436 3.03146 5.5957 3.71012L3.71029 5.59619C3.03174 6.27473 2.56616 6.74184 2.26302 7.13916C1.97049 7.5226 1.88542 7.76959 1.88542 7.99984C1.88542 8.23009 1.97049 8.47708 2.26302 8.86051C2.5662 9.25788 3.03163 9.72547 3.71029 10.4041L5.5957 12.2896C6.27436 12.9682 6.74196 13.4336 7.13932 13.7368C7.52277 14.0294 7.76975 14.1144 8 14.1144C8.23025 14.1144 8.47723 14.0294 8.86068 13.7368C9.25804 13.4336 9.72564 12.9682 10.4043 12.2896L12.2897 10.4041C12.9684 9.72547 13.4338 9.25788 13.737 8.86051C14.0295 8.47708 14.1146 8.23009 14.1146 7.99984C14.1146 7.76959 14.0295 7.5226 13.737 7.13916C13.4338 6.74184 12.9683 6.27473 12.2897 5.59619L10.4043 3.71012C9.72564 3.03146 9.25804 2.56603 8.86068 2.26286C8.47724 1.97033 8.23025 1.88525 8 1.88525Z" fill="white"/>
</g>
<defs>
<clipPath id="clip0_522_36551">
<rect width="16" height="16" fill="white"/>
</clipPath>
</defs>
</svg>
