<svg width="16" height="16" viewBox="0 0 16 16" fill="none" xmlns="http://www.w3.org/2000/svg">
<path fill-rule="evenodd" clip-rule="evenodd" d="M12.3333 1.3999C12.3982 1.3999 12.4622 1.40537 12.5252 1.4163C12.6942 1.44566 12.8565 1.5144 13.0119 1.6225C13.1783 1.73832 13.3326 1.89838 13.4747 2.10267C13.7111 2.44268 13.9154 2.90523 14.0875 3.49033C14.2504 4.0444 14.3761 4.67654 14.4645 5.38678C14.5548 6.11327 14.6 6.87318 14.6 7.66658C14.6 8.45992 14.5548 9.21985 14.4645 9.94638C14.3761 10.6566 14.2504 11.2887 14.0875 11.8428C13.9154 12.4279 13.7111 12.8905 13.4747 13.2305C13.3326 13.4348 13.1783 13.5948 13.0119 13.7106C12.8565 13.8187 12.6943 13.8874 12.5253 13.9168C12.4622 13.9278 12.3983 13.9332 12.3333 13.9332C12.2353 13.9332 12.1396 13.9226 12.0463 13.9014C11.9528 13.8801 11.8617 13.8482 11.773 13.8056C11.6845 13.763 11.6027 13.7119 11.5277 13.6523C11.4528 13.5927 11.3847 13.5245 11.3233 13.4478L10.9161 12.9388C10.7632 12.7478 10.6003 12.5669 10.4273 12.3962C10.2678 12.2387 10.0997 12.0898 9.92298 11.9497C9.74492 11.8084 9.56025 11.6776 9.36905 11.5573C9.16965 11.4318 8.96305 11.3177 8.74932 11.215C8.53552 11.1122 8.31732 11.0222 8.09465 10.9448C7.96925 10.9012 7.84245 10.8617 7.71425 10.8262L6.90332 13.5631C6.87985 13.6423 6.85018 13.7183 6.81425 13.7913C6.78132 13.8583 6.74305 13.9228 6.69958 13.9846C6.65633 14.0461 6.6089 14.1036 6.5573 14.1571C6.5032 14.2132 6.44452 14.2648 6.38125 14.3121C6.31799 14.3593 6.25179 14.4009 6.18265 14.4368C6.1167 14.4711 6.04809 14.5003 5.9768 14.5243C5.90516 14.5484 5.83254 14.5667 5.75892 14.5793C5.67873 14.5931 5.59736 14.5999 5.51482 14.5999C5.41058 14.5999 5.30864 14.5891 5.20903 14.5677C5.1212 14.5487 5.03517 14.5215 4.95094 14.4859C4.86741 14.4505 4.7885 14.4082 4.71424 14.3589C4.63455 14.306 4.55981 14.2447 4.4908 14.1757C4.42169 14.1066 4.36064 14.0321 4.30766 13.9523C4.25836 13.878 4.21604 13.7991 4.1807 13.7156C4.14508 13.6314 4.1178 13.5453 4.09888 13.4575C4.0774 13.3579 4.06665 13.2559 4.06665 13.1516L4.06665 10.5999H3.99998C3.8593 10.5999 3.7218 10.5852 3.58748 10.556C3.4717 10.5308 3.3583 10.4947 3.24726 10.4477C3.1365 10.4008 3.03182 10.3448 2.93325 10.2796C2.82591 10.2085 2.7258 10.1265 2.63291 10.0336C2.54002 9.94078 2.45805 9.84065 2.387 9.73332C2.32173 9.63472 2.26568 9.53005 2.21882 9.41932C2.17186 9.30825 2.13576 9.19485 2.11054 9.07905C2.08128 8.94478 2.06665 8.80725 2.06665 8.66658V5.9999C2.06665 5.85923 2.08128 5.72174 2.11053 5.58744C2.13575 5.47167 2.17186 5.35822 2.21882 5.24718C2.26567 5.13642 2.32172 5.03175 2.38698 4.93318C2.45804 4.82584 2.54002 4.72572 2.63291 4.63283C2.7258 4.53994 2.82592 4.45796 2.93326 4.3869C3.03183 4.32164 3.1365 4.26559 3.24726 4.21874C3.35831 4.17177 3.47174 4.13568 3.58753 4.11045C3.72183 4.0812 3.85931 4.06657 3.99998 4.06657H6.43236C6.85685 4.06657 7.27325 4.02596 7.68158 3.94476C8.09005 3.86352 8.49052 3.74164 8.88285 3.57913C9.27525 3.41659 9.64465 3.21958 9.99098 2.98812C10.3371 2.75684 10.6602 2.49114 10.9603 2.19104L11.34 1.81131C11.4058 1.74552 11.4767 1.68728 11.5525 1.63657C11.6285 1.58575 11.7097 1.5425 11.7958 1.50682C11.882 1.47112 11.9699 1.44437 12.0597 1.42655C12.1491 1.40878 12.2403 1.3999 12.3333 1.3999ZM5.26665 10.5999L5.26665 13.1516C5.26665 13.186 5.27272 13.2178 5.28484 13.2471C5.29696 13.2763 5.31512 13.303 5.33934 13.3272C5.36356 13.3514 5.3903 13.3696 5.41954 13.3817C5.44879 13.3939 5.48055 13.3998 5.51482 13.3998C5.54226 13.3998 5.56834 13.3958 5.59307 13.3876C5.61782 13.3794 5.64128 13.367 5.6633 13.3506C5.68533 13.3341 5.7038 13.3152 5.71872 13.2938C5.73362 13.2724 5.74497 13.2485 5.75277 13.2222L6.52442 10.6179C6.36687 10.6059 6.20862 10.5999 6.04966 10.5999H5.26665ZM10.3245 10.7522C10.2779 10.4958 10.2372 10.2272 10.2022 9.94638C10.1119 9.21985 10.0667 8.45992 10.0667 7.66658C10.0667 6.87318 10.1119 6.11326 10.2022 5.38678C10.2576 4.9416 10.3277 4.5271 10.4123 4.14328C10.0733 4.3512 9.71652 4.5327 9.34212 4.68778C8.87625 4.88074 8.40078 5.02545 7.91578 5.12192C7.48478 5.20764 7.04618 5.25526 6.59998 5.26478L6.59998 9.42018C6.70472 9.42792 6.80918 9.43785 6.91332 9.45005C7.18078 9.48138 7.44658 9.52725 7.71058 9.58785C7.97572 9.64858 8.23592 9.72338 8.49118 9.81225C8.75578 9.90425 9.01505 10.0113 9.26912 10.1334C9.52318 10.2555 9.76872 10.3911 10.0058 10.5402C10.1138 10.608 10.2201 10.6788 10.3245 10.7522ZM5.39998 9.39992V5.26657H3.99998C3.94039 5.26657 3.88246 5.2734 3.82618 5.28706C3.78828 5.29626 3.75112 5.30855 3.71472 5.32395C3.6758 5.34041 3.63882 5.35991 3.60381 5.38244C3.55996 5.41066 3.51916 5.44362 3.48144 5.48136C3.44371 5.51908 3.41074 5.55987 3.38252 5.60372C3.35999 5.63874 3.3405 5.67572 3.32403 5.71464C3.30864 5.75104 3.29634 5.7882 3.28714 5.8261C3.27348 5.88238 3.26665 5.94031 3.26665 5.9999L3.26665 8.66658C3.26665 8.72618 3.27348 8.78412 3.28716 8.84045C3.29635 8.87832 3.30864 8.91545 3.32403 8.95185C3.3405 8.99078 3.35999 9.02772 3.38252 9.06272C3.41074 9.10658 3.4437 9.14738 3.48144 9.18512C3.51916 9.22285 3.55994 9.25578 3.60379 9.28405C3.63881 9.30658 3.67578 9.32605 3.71472 9.34252C3.75111 9.35792 3.78826 9.37018 3.82616 9.37938C3.88244 9.39305 3.94038 9.39992 3.99998 9.39992H5.39998ZM12.3333 2.61241C12.2865 2.64694 12.2345 2.7054 12.1772 2.78776C12.0149 3.02125 11.8659 3.3683 11.7305 3.82893C11.5859 4.32058 11.4734 4.88924 11.3931 5.53492C11.3088 6.21222 11.2667 6.92278 11.2667 7.66658C11.2667 8.41038 11.3088 9.12092 11.3931 9.79825C11.4734 10.4439 11.5859 11.0126 11.7305 11.5042C11.8659 11.9648 12.0149 12.3119 12.1772 12.5454C12.2345 12.6277 12.2865 12.6862 12.3333 12.7207C12.3801 12.6862 12.4322 12.6277 12.4895 12.5454C12.6518 12.3118 12.8007 11.9648 12.9362 11.5042C13.0808 11.0126 13.1933 10.4439 13.2736 9.79825C13.3579 9.12092 13.4 8.41038 13.4 7.66658C13.4 6.92278 13.3579 6.21222 13.2736 5.53492C13.1933 4.88924 13.0808 4.32058 12.9362 3.82893C12.8007 3.3683 12.6518 3.02125 12.4895 2.78776C12.4322 2.7054 12.3801 2.64695 12.3333 2.61241Z" fill="white"/>
</svg>
