<svg width="16" height="16" viewBox="0 0 16 16" fill="none" xmlns="http://www.w3.org/2000/svg">
<path fill-rule="evenodd" clip-rule="evenodd" d="M11.818 13.9226C11.6346 13.962 11.4469 13.9813 11.2548 13.9805C10.9188 13.9791 10.6559 13.714 10.6573 13.378C10.6587 13.042 10.9239 12.7791 11.2599 12.7806C11.371 12.781 11.4793 12.7692 11.5847 12.745C11.6623 12.7272 11.7383 12.7026 11.8128 12.6715C11.8904 12.6391 11.964 12.6005 12.0336 12.5556C12.1166 12.5022 12.1939 12.44 12.2656 12.3689C12.3372 12.2979 12.4001 12.2212 12.4542 12.1387C12.4996 12.0695 12.539 11.996 12.5721 11.9186C12.6038 11.8444 12.6289 11.7686 12.6474 11.6912C12.6725 11.586 12.6853 11.4778 12.6857 11.3666L12.7123 5.05326C12.7129 4.91858 12.6986 4.78728 12.6695 4.65938C12.6477 4.56388 12.6175 4.4699 12.5792 4.37818C12.5394 4.28297 12.492 4.19268 12.4369 4.10732C12.3719 4.0065 12.2962 3.91255 12.2098 3.82548C12.1235 3.7384 12.0302 3.66192 11.9299 3.59603C11.8451 3.54024 11.7551 3.49204 11.6603 3.45144C11.5687 3.41228 11.4753 3.3814 11.3798 3.35881C11.2522 3.3286 11.121 3.3132 10.9863 3.31264L4.65533 3.28595C4.54552 3.28549 4.43851 3.29722 4.33431 3.32115C4.25777 3.33872 4.18274 3.36287 4.10923 3.3936C4.03266 3.42561 3.96002 3.46372 3.89132 3.50795C3.80933 3.56074 3.73284 3.62229 3.66205 3.69248C3.59125 3.76269 3.52911 3.83857 3.47562 3.92013C3.4308 3.98848 3.39207 4.06081 3.3594 4.13713C3.32806 4.21038 3.30327 4.28519 3.28506 4.36158C3.26025 4.46558 3.24761 4.57249 3.24715 4.6823C3.24574 5.0183 2.98063 5.28119 2.64463 5.27977C2.30863 5.27836 2.04575 5.01324 2.04717 4.67725C2.04797 4.48634 2.06875 4.29991 2.10951 4.11795C2.14405 3.96376 2.19294 3.81278 2.25618 3.66501C2.31954 3.51695 2.39515 3.37704 2.48299 3.2453C2.57956 3.10048 2.69095 2.96548 2.8171 2.84039C2.94327 2.71528 3.07918 2.60505 3.22483 2.5097C3.35728 2.42298 3.49786 2.34854 3.64643 2.28644C3.79473 2.22444 3.94612 2.17683 4.10061 2.14359C4.28289 2.10436 4.46949 2.08516 4.66039 2.08596L10.9914 2.11264C11.2071 2.11356 11.4177 2.13708 11.6231 2.18321C11.7964 2.22212 11.9663 2.27716 12.1324 2.34822C12.2989 2.41951 12.4564 2.50454 12.6047 2.60334C12.7682 2.71233 12.9207 2.83806 13.0619 2.98053C13.2032 3.123 13.3277 3.27648 13.4353 3.44096C13.5328 3.59006 13.6165 3.7482 13.6864 3.91538C13.7559 4.08178 13.8095 4.25166 13.8469 4.425L13.8471 4.42571C13.8915 4.6316 13.9133 4.84266 13.9123 5.05832L13.8857 11.3717C13.8849 11.5639 13.864 11.7516 13.8229 11.9348C13.7881 12.09 13.7389 12.242 13.6753 12.3908C13.6115 12.5398 13.5354 12.6806 13.447 12.8132C13.3497 12.9591 13.2376 13.095 13.1106 13.221C12.9836 13.3469 12.8469 13.4578 12.7003 13.5538C12.567 13.641 12.4252 13.7162 12.2756 13.7787C12.1263 13.8411 11.9735 13.8891 11.818 13.9226ZM11.2617 9.1423C11.2719 6.71444 9.31207 4.738 6.88427 4.72777C4.45641 4.71754 2.47997 6.67744 2.46974 9.10524C2.46553 10.1032 2.79422 11.025 3.35147 11.7652C3.34239 11.7732 3.33348 11.7816 3.32475 11.7902L2.22199 12.8836C1.98339 13.1202 1.98181 13.4936 2.21839 13.7322C2.45496 13.9708 2.82831 13.9724 3.06691 13.7358L4.16967 12.6424C4.17841 12.6337 4.18684 12.6248 4.19495 12.6158C4.93043 13.1792 5.84928 13.5156 6.8472 13.5198C9.27507 13.53 11.2515 11.5702 11.2617 9.1423ZM10.0617 9.13724C10.0691 7.3721 8.64427 5.9352 6.8792 5.92776C5.11409 5.92032 3.67717 7.34517 3.66973 9.1103C3.66229 10.8754 5.08716 12.3124 6.85227 12.3198C8.61733 12.3272 10.0543 10.9024 10.0617 9.13724Z" fill="white"/>
</svg>
