<svg width="16" height="16" viewBox="0 0 16 16" fill="none" xmlns="http://www.w3.org/2000/svg">
<path fill-rule="evenodd" clip-rule="evenodd" d="M11.2546 13.9805C11.4468 13.9813 11.6347 13.962 11.8183 13.9225C11.9737 13.889 12.1261 13.8411 12.2754 13.7787C12.425 13.7162 12.5665 13.6413 12.6998 13.554C12.8465 13.458 12.9833 13.3469 13.1103 13.221C13.2374 13.095 13.3495 12.9591 13.4468 12.8133C13.5352 12.6807 13.6113 12.5398 13.6751 12.3908C13.7387 12.2421 13.7879 12.0901 13.8227 11.9349C13.8638 11.7517 13.8847 11.5639 13.8855 11.3717L13.9121 5.05831C13.913 4.84256 13.8913 4.63169 13.8468 4.42571C13.8094 4.25212 13.7558 4.08201 13.6862 3.91539C13.6163 3.7482 13.5326 3.59006 13.4351 3.44097C13.3274 3.27648 13.203 3.123 13.0617 2.98053C12.9205 2.83806 12.768 2.71233 12.6045 2.60333C12.4562 2.50455 12.2987 2.41951 12.1321 2.34822C11.9661 2.27716 11.7965 2.22218 11.6232 2.18327C11.4176 2.13709 11.2069 2.11355 10.9912 2.11265L4.66018 2.08596C4.46928 2.08516 4.28269 2.10437 4.1004 2.14359C3.94591 2.17683 3.79451 2.22445 3.64621 2.28643C3.49764 2.34854 3.35712 2.42295 3.22465 2.50967C3.07899 2.60503 2.94307 2.71527 2.81689 2.84039C2.69073 2.96549 2.57936 3.10047 2.48278 3.2453C2.39494 3.37705 2.31933 3.51695 2.25597 3.66501C2.19273 3.81278 2.14385 3.96376 2.10931 4.11795C2.06854 4.29991 2.04776 4.48634 2.04695 4.67725C2.04554 5.01325 2.30843 5.27835 2.64442 5.27977C2.98041 5.28119 3.24553 5.01831 3.24695 4.68231C3.24741 4.57249 3.26004 4.46558 3.28485 4.36157C3.30307 4.28519 3.32785 4.21038 3.35919 4.13713C3.39185 4.06081 3.43059 3.98848 3.47541 3.92013C3.5289 3.83857 3.59104 3.76269 3.66184 3.69249C3.73263 3.62229 3.80902 3.56079 3.89102 3.50801C3.95975 3.46375 4.03241 3.42562 4.10901 3.3936C4.18253 3.36287 4.25755 3.33872 4.33409 3.32115C4.43829 3.29722 4.54531 3.28549 4.65512 3.28595L10.9861 3.31263C11.1208 3.3132 11.2519 3.32859 11.3796 3.35881C11.4751 3.38141 11.5685 3.41228 11.6601 3.45145C11.7549 3.49204 11.8448 3.54023 11.9297 3.59602C12.0299 3.66191 12.1233 3.7384 12.2096 3.82548C12.2959 3.91255 12.3717 4.00649 12.4367 4.10731C12.4917 4.19267 12.5392 4.28297 12.579 4.37819C12.6174 4.47002 12.6475 4.56375 12.6693 4.65937C12.6984 4.78729 12.7127 4.91858 12.7121 5.05326L12.6855 11.3667C12.6851 11.4778 12.6723 11.586 12.6472 11.6913C12.6287 11.7687 12.6036 11.8445 12.5719 11.9187C12.5388 11.996 12.4995 12.0693 12.4541 12.1385C12.4 12.221 12.3371 12.2979 12.2654 12.3689C12.1937 12.4399 12.1164 12.5022 12.0334 12.5557C11.9638 12.6005 11.8902 12.6391 11.8126 12.6715C11.7381 12.7027 11.6621 12.7271 11.5846 12.7449C11.4791 12.7691 11.3708 12.781 11.2597 12.7805C10.9237 12.7791 10.6585 13.042 10.6571 13.378C10.6557 13.714 10.9186 13.9791 11.2546 13.9805ZM11.2273 9.38007C11.2259 9.72107 11.1884 10.0539 11.1149 10.3786C11.0541 10.6476 10.9683 10.9115 10.858 11.1693C10.7469 11.4291 10.6143 11.6747 10.4604 11.9061C10.289 12.1639 10.0907 12.4045 9.86633 12.6271C9.64187 12.8496 9.40007 13.0455 9.14087 13.2148C8.90807 13.3669 8.66107 13.4974 8.4002 13.6065C8.14147 13.7146 7.87733 13.798 7.6078 13.8566C7.28247 13.9273 6.94893 13.9621 6.60796 13.9607C6.26713 13.9592 5.93445 13.9218 5.60989 13.8484C5.34074 13.7875 5.07675 13.7017 4.81879 13.5914C4.55881 13.4801 4.31304 13.3475 4.08149 13.1935C3.82389 13.0221 3.58338 12.8239 3.36098 12.5997C3.13841 12.3752 2.94249 12.1334 2.77321 11.8741C2.62193 11.6425 2.49188 11.3968 2.38316 11.1373C2.37726 11.1244 2.37181 11.1112 2.36681 11.0978C2.26573 10.8503 2.18723 10.5979 2.13129 10.3406C2.06059 10.0153 2.02595 9.68227 2.02739 9.34127C2.02883 9.0004 2.06626 8.6676 2.13969 8.343C2.20059 8.07393 2.28631 7.81 2.39667 7.55213C2.50791 7.29213 2.64053 7.0464 2.79453 6.81487C2.96599 6.55707 3.16394 6.31688 3.38839 6.09431C3.61283 5.87176 3.85467 5.67584 4.1139 5.50656C4.34671 5.35455 4.59365 5.22396 4.85451 5.11491C5.11345 5.00667 5.37779 4.92324 5.64751 4.86461C5.97271 4.79394 6.30586 4.75929 6.64673 4.76073C6.8632 4.76164 7.0764 4.77706 7.28627 4.807C7.33513 4.80906 7.38227 4.81672 7.4272 4.82937C7.50007 4.84212 7.5726 4.85664 7.64467 4.87295C7.91387 4.93384 8.17793 5.0196 8.43593 5.13001C8.69573 5.24121 8.9414 5.37375 9.17287 5.52765C9.43067 5.69911 9.6712 5.8973 9.89373 6.12173C10.1161 6.34605 10.312 6.58775 10.4812 6.8468C10.6332 7.07967 10.7641 7.32693 10.8731 7.58787C10.9813 7.84673 11.0648 8.11107 11.1234 8.38073C11.1851 8.6648 11.2195 8.9554 11.2261 9.25147C11.2297 9.28667 11.2302 9.32233 11.2273 9.35813C11.2273 9.36547 11.2273 9.3728 11.2273 9.38007ZM6.65721 5.96081C6.65203 5.96077 6.64685 5.96073 6.64167 5.96071C6.38185 5.95962 6.12836 5.98677 5.88119 6.04215C5.68943 6.08513 5.50146 6.14511 5.31731 6.22208C5.12841 6.30104 4.94943 6.39529 4.78034 6.50484C4.5848 6.63155 4.40237 6.7788 4.23334 6.9464C4.06428 7.11407 3.91557 7.29513 3.78721 7.4896C3.67635 7.65767 3.58037 7.8362 3.49989 8.02427C3.42137 8.20773 3.35981 8.3952 3.31522 8.5866C3.25779 8.8332 3.22847 9.0866 3.22737 9.34633C3.22628 9.60613 3.25341 9.8596 3.30878 10.1067L3.30927 10.1089C3.32257 10.1681 3.33751 10.2269 3.35405 10.2854L4.00818 10.2881C4.07401 10.2885 4.13508 10.2771 4.19138 10.254C4.24769 10.231 4.29923 10.1963 4.346 10.1499C4.39275 10.1035 4.42788 10.0523 4.4514 9.9962C4.47492 9.94007 4.48683 9.87913 4.48711 9.81327L4.491 8.8902C4.49147 8.779 4.50256 8.67 4.52428 8.56313C4.54601 8.45627 4.57837 8.35153 4.62135 8.249C4.66433 8.14647 4.71631 8.04993 4.77728 7.95953C4.83824 7.86913 4.9082 7.7848 4.98715 7.70653C5.0661 7.6282 5.15105 7.55893 5.24198 7.49873C5.33289 7.43853 5.42983 7.3874 5.53271 7.34527C5.63561 7.3032 5.74057 7.27173 5.8476 7.25087C5.95464 7.23007 6.06379 7.21987 6.17497 7.22033C6.24081 7.2206 6.30187 7.20927 6.35817 7.1862C6.41449 7.16313 6.46603 7.12847 6.51279 7.08207C6.55955 7.03573 6.59469 6.98447 6.61821 6.9284C6.64173 6.87227 6.65362 6.81127 6.6539 6.74547L6.65721 5.96081ZM9.76593 8.05067C9.82493 8.1918 9.87393 8.3352 9.913 8.4808C9.8222 8.47113 9.73027 8.46587 9.63727 8.46493L8.3232 8.4594C8.212 8.45893 8.10287 8.46907 7.9958 8.48994C7.8888 8.51074 7.7838 8.5422 7.68093 8.58433C7.57807 8.62647 7.48113 8.6776 7.3902 8.7378C7.29927 8.798 7.21433 8.86727 7.1354 8.94553C7.05647 9.0238 6.98647 9.1082 6.92553 9.1986C6.86453 9.289 6.8126 9.38547 6.7696 9.48807C6.7266 9.5906 6.69427 9.69527 6.67253 9.80214C6.65081 9.909 6.63971 10.018 6.63924 10.1292C6.63877 10.2404 6.64895 10.3495 6.6698 10.4566C6.6906 10.5636 6.72207 10.6686 6.7642 10.7715C6.80627 10.8744 6.85747 10.9713 6.91767 11.0623C6.97787 11.1531 7.04713 11.2381 7.1254 11.3171C7.20367 11.396 7.288 11.4659 7.37847 11.5269C7.46887 11.5879 7.56533 11.6399 7.66787 11.6829C7.7704 11.7258 7.87513 11.7582 7.982 11.7799C8.08887 11.8016 8.19787 11.8127 8.30907 11.8132C8.33247 11.8133 8.3542 11.8175 8.37413 11.8259C8.394 11.8343 8.41213 11.8467 8.42853 11.8633C8.44493 11.8798 8.45727 11.8981 8.46547 11.918C8.47367 11.938 8.47767 11.9597 8.4776 11.9831L8.4766 12.2151L8.47473 12.2163C8.30567 12.3259 8.12633 12.4203 7.9374 12.4993C7.75327 12.5763 7.5654 12.6362 7.37367 12.6792C7.12647 12.7346 6.87287 12.7617 6.61302 12.7607C6.35317 12.7595 6.09989 12.7303 5.85317 12.6728C5.66179 12.6282 5.47437 12.5667 5.2909 12.4881C5.10263 12.4076 4.92441 12.3118 4.75622 12.2008C4.56186 12.0725 4.3806 11.9237 4.21307 11.7547C4.12829 11.6692 4.04874 11.5803 3.97443 11.488L4.00312 11.4881C4.11415 11.4886 4.22311 11.4785 4.33001 11.4577L4.33085 11.4575C4.43776 11.4367 4.54261 11.4053 4.64539 11.3632C4.74821 11.3211 4.84507 11.27 4.93594 11.2099C5.02688 11.1497 5.11199 11.0803 5.19095 11.002C5.26984 10.9237 5.33975 10.8395 5.40069 10.7491C5.46161 10.6587 5.51379 10.562 5.55675 10.4595C5.59973 10.3569 5.63208 10.2523 5.65381 10.1454C5.67553 10.0385 5.68663 9.92947 5.68709 9.81833L5.69099 8.89527C5.69127 8.8294 5.70317 8.7684 5.72669 8.71227C5.75021 8.6562 5.78535 8.60493 5.83209 8.5586C5.87885 8.51227 5.93037 8.47753 5.98667 8.45447C6.04296 8.43147 6.10408 8.42007 6.16991 8.42033C6.28108 8.4208 6.39017 8.4106 6.4972 8.3898C6.60426 8.369 6.70927 8.33753 6.8122 8.2954C6.91507 8.25327 7.01193 8.20213 7.1028 8.142C7.1938 8.0818 7.2788 8.01247 7.35773 7.9342C7.43673 7.85587 7.50667 7.77153 7.56767 7.68107C7.6286 7.59067 7.6806 7.4942 7.72353 7.39167C7.76653 7.28913 7.79887 7.18447 7.8206 7.0776C7.84233 6.97073 7.8534 6.86167 7.85387 6.75047L7.85627 6.18933C7.89227 6.20332 7.92807 6.21795 7.9638 6.23323C8.15207 6.3138 8.33027 6.40959 8.49847 6.52059C8.69293 6.64894 8.874 6.7976 9.0416 6.96667C9.20927 7.13573 9.3564 7.318 9.48313 7.5136C9.59273 7.68273 9.687 7.86173 9.76593 8.05067ZM9.99787 9.71213C10.0017 9.71307 10.0055 9.71407 10.0094 9.71507C9.99487 9.85707 9.9716 9.99707 9.93947 10.1349C9.89487 10.3263 9.83327 10.5137 9.7548 10.6971C9.67427 10.8853 9.5786 11.0634 9.46767 11.2315C9.46533 11.2349 9.46287 11.2387 9.4606 11.2422C9.45707 11.2368 9.4536 11.2314 9.45 11.226C9.40093 11.1519 9.34447 11.0827 9.28067 11.0183C9.2168 10.9539 9.14807 10.8969 9.07433 10.8472C9.0004 10.7973 8.92153 10.7548 8.83767 10.7197C8.75387 10.6845 8.66827 10.6581 8.581 10.6403C8.4938 10.6227 8.40487 10.6136 8.31413 10.6132C8.24827 10.6129 8.18727 10.601 8.1312 10.5775C8.07507 10.554 8.02387 10.5189 7.97747 10.4721C7.93113 10.4253 7.8964 10.3738 7.8734 10.3175C7.85033 10.2612 7.83893 10.2001 7.8392 10.1343C7.83953 10.0684 7.8514 10.0075 7.87493 9.95133C7.89847 9.8952 7.9336 9.844 7.98033 9.79767C8.02707 9.75127 8.0786 9.7166 8.13493 9.69354C8.1912 9.67047 8.25233 9.65907 8.31813 9.6594L9.6256 9.66487C9.75333 9.66613 9.8774 9.68187 9.99787 9.71213Z" fill="white"/>
</svg>
