<svg width="16" height="16" viewBox="0 0 16 16" fill="none" xmlns="http://www.w3.org/2000/svg">
<path fill-rule="evenodd" clip-rule="evenodd" d="M5.97995 14.5665C6.69995 14.3199 7.13995 13.5999 7.04662 12.8532L6.93995 11.9732C7.14662 11.8265 7.35995 11.6732 7.57995 11.4999L8.79995 13.2532C9.29329 13.9599 10.2266 14.2065 11 13.8332C11.7133 13.4865 12.1066 12.7065 11.96 11.9265L11.22 8.08655L12.1933 7.11321C12.8533 6.45321 13.3866 5.71988 13.6933 5.02655C13.8466 4.68655 13.9666 4.29321 13.9866 3.88655C14.0066 3.48655 13.92 2.93988 13.4866 2.50655C13.0533 2.07321 12.5066 1.98655 12.1066 2.00655C11.7 2.02655 11.3066 2.14655 10.9666 2.29988C10.2733 2.60655 9.54662 3.13988 8.88662 3.79321L8.87995 3.79988L7.90662 4.76655L4.06662 4.03321C3.29328 3.87988 2.51328 4.26655 2.16662 4.97321C1.77995 5.75321 2.02662 6.69321 2.73328 7.18655L4.49328 8.41321C4.31995 8.63321 4.15995 8.84655 4.01995 9.05321L3.14662 8.94655C2.39328 8.85321 1.67328 9.29321 1.42662 10.0132C1.17328 10.7199 1.44662 11.5065 2.07995 11.9065L3.30662 12.6865L4.08662 13.9132C4.49328 14.5465 5.27329 14.8199 5.97995 14.5665ZM5.09995 13.2665L4.55995 12.4199C4.41995 12.1932 4.34662 12.0799 4.25995 11.9799C4.18662 11.8932 4.10662 11.8065 4.01328 11.7332C3.91328 11.6465 3.79995 11.5732 3.57328 11.4332L2.72662 10.8932C2.55995 10.7865 2.49328 10.5865 2.55328 10.4065C2.61995 10.2265 2.80662 10.1132 2.99328 10.1332L4.26662 10.2932C4.39328 10.3065 4.45328 10.3132 4.50662 10.3065C4.55995 10.2932 4.59995 10.2732 4.63995 10.2399C4.68662 10.2065 4.71995 10.1532 4.79328 10.0399C4.98662 9.74655 5.21995 9.43321 5.47995 9.09988C5.59995 8.94655 5.72662 8.78655 5.85995 8.63321C5.99995 8.46655 6.06662 8.38655 6.08662 8.29988C6.09995 8.22655 6.09328 8.15321 6.05328 8.08655C6.01995 8.01321 5.93329 7.95321 5.75995 7.83321L3.41995 6.20655C3.19995 6.04655 3.11995 5.75321 3.23995 5.50655C3.35328 5.28655 3.59995 5.15988 3.83995 5.20655L8.03329 6.01321C8.13329 6.03321 8.17995 6.04655 8.23329 6.03988C8.27329 6.03321 8.31995 6.01988 8.35329 5.99988C8.39995 5.97988 8.43329 5.93988 8.50662 5.86655L9.73329 4.64655C10.8933 3.48655 12.1933 2.90655 12.64 3.35321C13.0866 3.79988 12.5066 5.09988 11.3466 6.25988L11.3333 6.27988L10.12 7.48655C10.0533 7.55988 10.0133 7.59321 9.99329 7.63988C9.96662 7.67988 9.95995 7.71988 9.95329 7.75988C9.94662 7.81321 9.95995 7.85988 9.97329 7.96655L10.78 12.1532C10.8266 12.3999 10.7 12.6399 10.48 12.7532C10.2333 12.8665 9.93995 12.7932 9.78662 12.5732L8.15995 10.2332C8.03995 10.0599 7.97995 9.97321 7.90662 9.93988C7.83995 9.89988 7.76662 9.89321 7.69329 9.90655C7.60662 9.92655 7.52662 9.99321 7.35995 10.1332C7.20662 10.2665 7.04662 10.3932 6.89329 10.5132C6.55995 10.7732 6.24662 11.0065 5.95329 11.1932C5.83995 11.2665 5.78662 11.3065 5.75328 11.3532C5.71995 11.3932 5.69995 11.4332 5.68662 11.4865C5.67995 11.5399 5.68662 11.5999 5.69995 11.7265L5.85995 12.9999C5.87995 13.1932 5.76662 13.3732 5.58662 13.4399C5.40662 13.4999 5.20662 13.4332 5.09995 13.2665Z" fill="white"/>
</svg>
