<svg width="16" height="16" viewBox="0 0 16 16" fill="none" xmlns="http://www.w3.org/2000/svg">
<path fill-rule="evenodd" clip-rule="evenodd" d="M14.4399 9.43326C14.5466 8.96659 14.5999 8.48659 14.5999 7.99993C14.5999 7.65993 14.3332 7.39993 13.9999 7.39993C13.6599 7.39993 13.3999 7.65993 13.3999 7.99993C13.3999 8.40659 13.3532 8.80659 13.2666 9.19326C13.1932 9.50659 13.0999 9.80659 12.9732 10.0999C12.8466 10.3999 12.6932 10.6866 12.5199 10.9533C12.3132 11.2599 12.0799 11.5466 11.8132 11.8133C11.5466 12.0799 11.2599 12.3133 10.9532 12.5199C10.6866 12.6933 10.3999 12.8466 10.0999 12.9733C9.80657 13.0999 9.50657 13.1933 9.1999 13.2666C8.80657 13.3533 8.40657 13.3999 7.9999 13.3999C7.58657 13.3999 7.18657 13.3533 6.7999 13.2666C6.49324 13.1933 6.18657 13.0999 5.89324 12.9733C5.59324 12.8466 5.30657 12.6933 5.0399 12.5199C4.73324 12.3133 4.44657 12.0799 4.1799 11.8133C3.91324 11.5466 3.6799 11.2599 3.47324 10.9533C3.2999 10.6866 3.14657 10.3999 3.0199 10.0999C2.89324 9.80659 2.7999 9.50659 2.72657 9.19326C2.6399 8.80659 2.5999 8.40659 2.5999 7.99993C2.5999 7.58659 2.6399 7.18659 2.72657 6.79993C2.7999 6.49326 2.89324 6.18659 3.0199 5.89326C3.14657 5.59326 3.2999 5.30659 3.47324 5.03993C3.6799 4.73326 3.91324 4.44659 4.1799 4.17993C4.44657 3.91326 4.73324 3.67993 5.0399 3.47326C5.30657 3.29993 5.59324 3.14659 5.89324 3.01993C6.18657 2.89326 6.48657 2.79993 6.7999 2.72659C7.18657 2.63993 7.58657 2.59993 7.9999 2.59993C8.33324 2.59993 8.5999 2.33326 8.5999 1.99993C8.5999 1.65993 8.33324 1.39326 7.9999 1.39326C7.50657 1.39326 7.02657 1.44659 6.5599 1.55326C6.17324 1.63993 5.79324 1.75993 5.42657 1.91326C5.05324 2.07326 4.6999 2.25993 4.37324 2.47993C3.9999 2.72659 3.65324 3.00659 3.32657 3.32659C3.00657 3.65326 2.72657 3.99993 2.4799 4.36659C2.2599 4.69993 2.07324 5.05326 1.91324 5.42659C1.7599 5.79326 1.6399 6.17326 1.55324 6.55993C1.44657 7.02659 1.3999 7.50659 1.3999 7.99993C1.3999 8.48659 1.44657 8.96659 1.55324 9.43326C1.6399 9.81993 1.7599 10.1999 1.91324 10.5666C2.07324 10.9399 2.2599 11.2933 2.4799 11.6266C2.72657 11.9933 3.00657 12.3399 3.32657 12.6666C3.65324 12.9866 3.9999 13.2666 4.36657 13.5133C4.6999 13.7333 5.05324 13.9199 5.42657 14.0799C5.79324 14.2333 6.17324 14.3533 6.5599 14.4399C7.02657 14.5466 7.50657 14.5999 7.9999 14.5999C8.48657 14.5999 8.96657 14.5466 9.43324 14.4399C9.8199 14.3533 10.1999 14.2333 10.5666 14.0799C10.9399 13.9199 11.2932 13.7333 11.6266 13.5133C11.9932 13.2666 12.3399 12.9866 12.6666 12.6666C12.9866 12.3399 13.2666 11.9933 13.5132 11.6266C13.7332 11.2933 13.9199 10.9399 14.0799 10.5666C14.2332 10.1999 14.3532 9.81993 14.4399 9.43326ZM11.9332 7.99993C11.9332 8.28659 11.8999 8.57326 11.8399 8.84659C11.7866 9.07993 11.7132 9.30659 11.6199 9.52659C11.5266 9.75326 11.4132 9.95993 11.2799 10.1599C11.1399 10.3799 10.9666 10.5866 10.7799 10.7799C10.5866 10.9666 10.3799 11.1399 10.1599 11.2799C9.9599 11.4133 9.75324 11.5266 9.52657 11.6199C9.30657 11.7133 9.0799 11.7866 8.84657 11.8399C8.57324 11.8999 8.28657 11.9333 7.9999 11.9333C7.70657 11.9333 7.4199 11.8999 7.14657 11.8399C6.91324 11.7866 6.68657 11.7133 6.46657 11.6199C6.2399 11.5266 6.03324 11.4133 5.83324 11.2799C5.61324 11.1399 5.40657 10.9666 5.21324 10.7799C5.02657 10.5866 4.85324 10.3799 4.71324 10.1599C4.5799 9.95993 4.46657 9.75326 4.37324 9.52659C4.2799 9.30659 4.20657 9.07993 4.15324 8.84659C4.09324 8.57326 4.06657 8.28659 4.06657 7.99993C4.06657 7.70659 4.09324 7.41993 4.15324 7.14659C4.20657 6.91326 4.2799 6.68659 4.37324 6.46659C4.46657 6.23993 4.5799 6.03326 4.71324 5.83326C4.85324 5.61326 5.02657 5.40659 5.21324 5.21326C5.40657 5.02659 5.61324 4.85326 5.83324 4.71326C6.03324 4.57993 6.2399 4.46659 6.46657 4.37326C6.68657 4.27993 6.91324 4.20659 7.14657 4.15326C7.4199 4.09326 7.70657 4.05993 7.9999 4.05993C8.33324 4.05993 8.5999 4.32659 8.5999 4.66659C8.5999 4.99993 8.33324 5.26659 7.9999 5.26659C7.78657 5.26659 7.5799 5.28659 7.3799 5.33326C7.23324 5.36659 7.0799 5.41326 6.93324 5.47993C6.7799 5.53993 6.6399 5.61993 6.50657 5.70659C6.34657 5.80659 6.1999 5.92659 6.06657 6.06659C5.92657 6.19993 5.80657 6.34659 5.70657 6.50659C5.6199 6.63993 5.5399 6.77993 5.4799 6.93326C5.41324 7.07993 5.36657 7.23326 5.33324 7.37993C5.28657 7.57993 5.26657 7.78659 5.26657 7.99993C5.26657 8.20659 5.28657 8.41326 5.33324 8.61326C5.36657 8.76659 5.41324 8.91326 5.4799 9.05993C5.5399 9.21326 5.6199 9.35326 5.70657 9.48659C5.80657 9.64659 5.92657 9.79326 6.06657 9.92659C6.1999 10.0666 6.34657 10.1866 6.50657 10.2866C6.6399 10.3733 6.7799 10.4533 6.93324 10.5133C7.0799 10.5799 7.23324 10.6266 7.3799 10.6599C7.5799 10.7066 7.78657 10.7333 7.9999 10.7333C8.20657 10.7333 8.41324 10.7066 8.61324 10.6599C8.76657 10.6266 8.91324 10.5799 9.0599 10.5133C9.21324 10.4533 9.35324 10.3733 9.48657 10.2866C9.64657 10.1866 9.79324 10.0666 9.92657 9.92659C10.0666 9.79326 10.1866 9.64659 10.2866 9.49326C10.3732 9.35326 10.4532 9.21326 10.5132 9.05993C10.5799 8.91326 10.6266 8.76659 10.6599 8.61326C10.7066 8.41326 10.7332 8.20659 10.7332 7.99993C10.7332 7.65993 10.9932 7.39993 11.3332 7.39993C11.6666 7.39993 11.9332 7.65993 11.9332 7.99993ZM8.41324 6.72659C8.2799 6.68659 8.1399 6.66659 7.9999 6.66659C7.62657 6.66659 7.29324 6.81326 7.05324 7.05326C6.81324 7.29326 6.66657 7.62659 6.66657 7.99993C6.66657 8.36659 6.81324 8.69993 7.05324 8.93993C7.29324 9.17993 7.62657 9.33326 7.9999 9.33326C8.36657 9.33326 8.6999 9.17993 8.9399 8.93993C9.1799 8.69993 9.33324 8.36659 9.33324 7.99993C9.33324 7.85326 9.30657 7.70659 9.2599 7.57993L10.4999 6.33993L14.6999 5.69993C14.7866 5.69326 14.8666 5.67326 14.9466 5.63326C15.0799 5.55993 15.1799 5.44659 15.2266 5.30659C15.2866 5.14659 15.2732 4.96659 15.1932 4.81993C15.1599 4.74659 15.1066 4.68659 15.0532 4.63993L13.1999 2.78659L11.3532 0.939926C11.3132 0.886593 11.2599 0.846593 11.1999 0.813259C11.1732 0.793259 11.1466 0.779926 11.1199 0.773259C11.0666 0.746593 10.9999 0.733259 10.9332 0.726593C10.6932 0.713259 10.4732 0.833259 10.3666 1.03326C10.3466 1.08659 10.2999 1.19993 10.2932 1.25326L9.65324 5.49326L8.41324 6.72659Z" fill="white"/>
</svg>
