<svg width="16" height="16" viewBox="0 0 16 16" fill="none" xmlns="http://www.w3.org/2000/svg">
<path fill-rule="evenodd" clip-rule="evenodd" d="M5.9999 13.4002H7.3999V9.18689C6.9599 8.96689 6.66657 8.52022 6.66657 8.00022C6.66657 7.26022 7.2599 6.66689 7.9999 6.66689C8.73324 6.66689 9.33324 7.26022 9.33324 8.00022C9.33324 8.52022 9.03324 8.96689 8.5999 9.18689V13.4002H9.9999C10.3332 13.4002 10.5999 13.6602 10.5999 14.0002C10.5999 14.3336 10.3332 14.6002 9.9999 14.6002H5.9999C5.6599 14.6002 5.3999 14.3336 5.3999 14.0002C5.3999 13.6602 5.6599 13.4002 5.9999 13.4002ZM4.1799 12.6669C3.9399 12.9002 3.56657 12.9002 3.33324 12.6669C2.9799 12.3136 2.6799 11.9402 2.42657 11.5336C2.21324 11.2069 2.03324 10.8536 1.8799 10.4802C1.72657 10.1069 1.61324 9.72022 1.53324 9.33355C1.4399 8.89355 1.3999 8.45355 1.3999 7.99355C1.3999 7.54022 1.4399 7.10022 1.53324 6.66022C1.61324 6.27355 1.72657 5.88689 1.8799 5.51356C2.03324 5.14022 2.21324 4.78689 2.4199 4.46022C2.6799 4.05356 2.9799 3.68022 3.33324 3.32689C3.6799 2.98022 4.05324 2.68022 4.4599 2.42022C4.79324 2.21355 5.1399 2.03355 5.51324 1.88022C5.88657 1.72689 6.27324 1.61355 6.6599 1.53355C7.0999 1.44022 7.5399 1.39355 7.9999 1.39355C8.45324 1.39355 8.8999 1.44022 9.33324 1.53355C9.7199 1.61355 10.1066 1.72689 10.4799 1.88022C10.8532 2.03355 11.1999 2.21355 11.5332 2.42022C11.9399 2.68022 12.3132 2.98022 12.6666 3.32689C13.0132 3.68022 13.3132 4.05356 13.5732 4.46022C13.7799 4.78689 13.9599 5.14022 14.1132 5.51356C14.2666 5.88689 14.3799 6.27355 14.4599 6.66022C14.5532 7.09355 14.5999 7.54022 14.5999 7.99355C14.5999 8.45355 14.5532 8.89355 14.4599 9.33355C14.3799 9.72022 14.2666 10.1069 14.1132 10.4802C13.9599 10.8536 13.7799 11.2002 13.5732 11.5336C13.3132 11.9402 13.0132 12.3136 12.6666 12.6669C12.4266 12.9002 12.0532 12.9002 11.8132 12.6669C11.5799 12.4269 11.5799 12.0536 11.8132 11.8136C12.1066 11.5269 12.3599 11.2136 12.5666 10.8736C12.7399 10.6069 12.8799 10.3269 12.9999 10.0269C13.1266 9.72689 13.2199 9.42022 13.2866 9.10689C13.3599 8.74022 13.3999 8.37355 13.3999 7.99355C13.3999 7.62022 13.3599 7.25355 13.2866 6.89355C13.2199 6.57355 13.1266 6.26689 12.9999 5.96689C12.8799 5.66689 12.7399 5.38689 12.5666 5.12022C12.3599 4.78022 12.1066 4.46689 11.8132 4.18022C11.5266 3.88689 11.2132 3.64022 10.8732 3.42689C10.6066 3.25355 10.3266 3.11355 10.0266 2.99355C9.72657 2.86689 9.4199 2.77355 9.0999 2.70689C8.7399 2.63355 8.37324 2.59355 7.9999 2.59355C7.6199 2.59355 7.25324 2.63355 6.89324 2.70689C6.5799 2.77355 6.26657 2.86689 5.96657 2.99355C5.66657 3.11355 5.38657 3.25355 5.1199 3.42022C4.78657 3.63355 4.46657 3.88689 4.1799 4.18022C3.88657 4.46689 3.6399 4.78022 3.42657 5.12022C3.25324 5.38689 3.11324 5.66689 2.99324 5.96689C2.86657 6.26689 2.77324 6.57355 2.70657 6.89355C2.63324 7.25355 2.5999 7.62022 2.5999 7.99355C2.5999 8.37355 2.63324 8.74022 2.70657 9.10022C2.77324 9.42022 2.86657 9.72689 2.99324 10.0269C3.11324 10.3269 3.25324 10.6069 3.42657 10.8736C3.6399 11.2136 3.88657 11.5269 4.1799 11.8136C4.41324 12.0536 4.41324 12.4269 4.1799 12.6669ZM9.87324 9.86689C10.0132 9.72689 10.1399 9.56689 10.2466 9.40022C10.3266 9.27356 10.3932 9.14022 10.4532 8.99355C10.5132 8.84689 10.5599 8.69356 10.5932 8.54022C10.6266 8.36689 10.6466 8.18022 10.6466 7.99355C10.6466 7.81355 10.6266 7.62689 10.5932 7.45355C10.5599 7.30022 10.5132 7.14689 10.4532 7.00022C10.3932 6.85355 10.3266 6.72022 10.2466 6.59355C10.1399 6.42022 10.0132 6.26689 9.87324 6.12689C9.72657 5.98022 9.57324 5.85355 9.3999 5.74689C9.27324 5.66689 9.1399 5.60022 8.99324 5.54022C8.84657 5.48022 8.6999 5.43355 8.54657 5.40689C8.36657 5.36689 8.1799 5.34689 7.9999 5.34689C7.81324 5.34689 7.62657 5.36689 7.45324 5.40689C7.2999 5.43355 7.14657 5.48022 6.9999 5.54022C6.8599 5.60022 6.7199 5.66689 6.59324 5.74689C6.42657 5.85355 6.26657 5.98022 6.12657 6.12689C5.9799 6.26689 5.85324 6.42022 5.75324 6.59355C5.66657 6.72022 5.5999 6.85355 5.5399 7.00022C5.4799 7.14689 5.43324 7.30022 5.40657 7.45355C5.36657 7.62689 5.34657 7.81355 5.34657 7.99355C5.34657 8.18022 5.36657 8.36689 5.40657 8.54022C5.43324 8.69356 5.4799 8.84689 5.5399 8.99355C5.5999 9.14022 5.66657 9.27356 5.75324 9.40022C5.85324 9.56689 5.9799 9.72689 6.12657 9.86689C6.3599 10.1069 6.3599 10.4802 6.12657 10.7202C5.88657 10.9536 5.51324 10.9536 5.27324 10.7202C5.07324 10.5202 4.8999 10.3002 4.74657 10.0669C4.62657 9.86689 4.5199 9.66022 4.43324 9.44689C4.3399 9.22689 4.27324 9.00022 4.22657 8.77355C4.17324 8.52022 4.14657 8.26022 4.14657 7.99355C4.14657 7.73355 4.17324 7.47355 4.22657 7.22022C4.27324 6.99355 4.3399 6.76689 4.43324 6.54689C4.5199 6.33355 4.62657 6.12022 4.74657 5.92689C4.8999 5.69355 5.07324 5.47355 5.27324 5.27355C5.47324 5.07355 5.69324 4.90022 5.92657 4.74689C6.12657 4.62689 6.33324 4.52022 6.54657 4.42689C6.76657 4.34022 6.99324 4.27355 7.2199 4.22689C7.47324 4.17355 7.73324 4.14689 7.9999 4.14689C8.2599 4.14689 8.5199 4.17355 8.77324 4.22689C8.9999 4.27355 9.22657 4.34022 9.44657 4.42689C9.66657 4.52022 9.87324 4.62689 10.0666 4.74689C10.2999 4.90022 10.5199 5.07355 10.7199 5.27355C10.9199 5.47355 11.0932 5.69355 11.2466 5.92689C11.3666 6.12022 11.4732 6.33355 11.5666 6.54689C11.6532 6.76689 11.7199 6.99355 11.7666 7.22022C11.8199 7.47355 11.8466 7.73355 11.8466 7.99355C11.8466 8.26022 11.8199 8.52022 11.7666 8.77355C11.7199 9.00022 11.6532 9.22689 11.5666 9.44689C11.4732 9.66022 11.3666 9.86689 11.2466 10.0669C11.0932 10.3002 10.9199 10.5202 10.7199 10.7202C10.4799 10.9536 10.1066 10.9536 9.87324 10.7202C9.63324 10.4802 9.63324 10.1069 9.87324 9.86689Z" fill="white"/>
</svg>
