<svg width="16" height="16" viewBox="0 0 16 16" fill="none" xmlns="http://www.w3.org/2000/svg">
<path fill-rule="evenodd" clip-rule="evenodd" d="M13.4266 14.5868C13.0999 14.6468 12.7932 14.4268 12.7399 14.0935L12.5999 13.2668H3.39324L3.25324 14.0935C3.1999 14.4268 2.89324 14.6468 2.56657 14.5868C2.23324 14.5335 2.01324 14.2268 2.07324 13.9002L2.1799 13.2668H1.9999C1.6599 13.2668 1.3999 13.0002 1.3999 12.6668C1.3999 12.3268 1.6599 12.0668 1.9999 12.0668H2.3799L2.69324 10.1535C2.3599 10.1535 2.06657 9.88683 2.06657 9.5535C2.06657 9.2135 2.32657 8.9535 2.66657 8.9535H2.89324L3.21324 7.0335C2.93324 6.98016 2.73324 6.74016 2.73324 6.44016C2.73324 6.10683 2.99324 5.84016 3.33324 5.84016H3.41324L3.7399 3.8735C3.53324 3.78016 3.3999 3.5735 3.3999 3.3335C3.3999 3.0135 3.62657 2.76683 3.93324 2.7335L4.07324 1.90016C4.12657 1.56683 4.43324 1.34683 4.7599 1.40683C5.09324 1.46016 5.31324 1.76683 5.25324 2.0935L5.14657 2.72683L10.8466 2.72683L10.7399 2.0935C10.6799 1.76683 10.8999 1.46016 11.2332 1.40683C11.5599 1.34683 11.8666 1.56683 11.9199 1.90016L12.0599 2.7335C12.3666 2.76683 12.5999 3.0135 12.5999 3.3335C12.5999 3.5735 12.4599 3.78016 12.2532 3.8735L12.5799 5.84016H12.6666C12.9999 5.84016 13.2666 6.10683 13.2666 6.44016C13.2666 6.74016 13.0599 6.98016 12.7799 7.0335L13.0999 8.9535H13.3332C13.6666 8.9535 13.9332 9.2135 13.9332 9.5535C13.9332 9.88683 13.6666 10.1535 13.3332 10.1535L13.6132 12.0668H13.9999C14.3332 12.0668 14.5999 12.3268 14.5999 12.6668C14.5999 13.0002 14.3332 13.2668 13.9999 13.2668H13.8132L13.9199 13.9002C13.9799 14.2268 13.7599 14.5335 13.4266 14.5868ZM11.0466 3.9335L4.94657 3.9335L4.63324 5.84016L11.3599 5.84016L11.0466 3.9335ZM12.0799 10.1535H3.91324L3.59324 12.0668H12.3999L12.0799 10.1535ZM4.11324 8.9535L4.43324 7.04017L11.5599 7.04017L11.8799 8.9535H4.11324Z" fill="white"/>
</svg>
