<svg width="16" height="16" viewBox="0 0 16 16" fill="none" xmlns="http://www.w3.org/2000/svg">
<path d="M12.6667 13.3996C12.9981 13.3996 13.267 13.6685 13.267 13.9998C13.267 14.3312 12.9981 14.6001 12.6667 14.6001H3.33341C3.00204 14.6001 2.73315 14.3312 2.73315 13.9998C2.73315 13.6685 3.00204 13.3996 3.33341 13.3996H12.6667Z" fill="white"/>
<path d="M12.6667 11.3996C12.9981 11.3996 13.267 11.6685 13.267 11.9998C13.267 12.3312 12.9981 12.6001 12.6667 12.6001H3.33341C3.00204 12.6001 2.73315 12.3312 2.73315 11.9998C2.73315 11.6685 3.00204 11.3996 3.33341 11.3996H12.6667Z" fill="white"/>
<path fill-rule="evenodd" clip-rule="evenodd" d="M8.00008 0.73291C8.22075 0.73291 8.4234 0.854413 8.52808 1.04867L13.1947 9.71533C13.2949 9.90127 13.29 10.1265 13.1817 10.3078C13.0734 10.4889 12.8778 10.6001 12.6667 10.6001H3.33341C3.12234 10.6001 2.92676 10.4889 2.81844 10.3078C2.71015 10.1265 2.7053 9.90127 2.80542 9.71533L7.47209 1.04867L7.51571 0.979655C7.62766 0.826208 7.80691 0.732914 8.00008 0.73291ZM4.33797 9.39958H11.6622L8.00008 2.59814L4.33797 9.39958Z" fill="white"/>
</svg>
