<svg width="16" height="16" viewBox="0 0 16 16" fill="none" xmlns="http://www.w3.org/2000/svg">
<path fill-rule="evenodd" clip-rule="evenodd" d="M12.74 14.0936C12.7933 14.4269 13.1 14.6469 13.4267 14.5869C13.76 14.5336 13.98 14.2269 13.92 13.9002L11.92 1.90022C11.8667 1.56689 11.56 1.34689 11.2333 1.40689C10.9 1.46022 10.68 1.76689 10.74 2.09355L12.74 14.0936ZM5.25334 2.09355L3.25334 14.0936C3.2 14.4269 2.89333 14.6469 2.56667 14.5869C2.23333 14.5336 2.01333 14.2269 2.07333 13.9002L4.07334 1.90022C4.12667 1.56689 4.43333 1.34689 4.76 1.40689C5.09333 1.46022 5.31334 1.76689 5.25334 2.09355ZM8 14.6002C8.33334 14.6002 8.6 14.3336 8.6 14.0002V12.5002C8.6 12.3336 8.54 12.1869 8.42 12.0736C8.30667 11.9536 8.16 11.9002 8 11.9002C7.83334 11.9002 7.68667 11.9536 7.57334 12.0736C7.45334 12.1869 7.4 12.3336 7.4 12.5002V14.0002C7.4 14.3336 7.66 14.6002 8 14.6002ZM8.6 9.50022V6.50022C8.6 6.33355 8.54 6.18689 8.42 6.07355C8.30667 5.95355 8.16 5.89355 8 5.89355C7.83334 5.89355 7.68667 5.95355 7.57334 6.07355C7.45334 6.18689 7.4 6.33355 7.4 6.50022L7.4 9.50022C7.4 9.66022 7.45334 9.80689 7.57334 9.92022C7.68667 10.0402 7.83334 10.1002 8 10.1002C8.16 10.1002 8.30667 10.0402 8.42 9.92022C8.54 9.80689 8.6 9.66022 8.6 9.50022ZM8.6 3.50022V2.00022C8.6 1.66022 8.33334 1.39355 8 1.39355C7.66 1.39355 7.4 1.66022 7.4 2.00022V3.50022C7.4 3.66022 7.45334 3.80689 7.57334 3.92022C7.68667 4.04022 7.83334 4.10022 8 4.10022C8.16 4.10022 8.30667 4.04022 8.42 3.92022C8.54 3.80689 8.6 3.66022 8.6 3.50022Z" fill="white"/>
</svg>
