<svg width="16" height="16" viewBox="0 0 16 16" fill="none" xmlns="http://www.w3.org/2000/svg">
<g clip-path="url(#clip0_522_36567)">
<path fill-rule="evenodd" clip-rule="evenodd" d="M10.1662 2.62143L7.24731 5.54034L6.94106 5.23408L7.91763 4.2575C7.97622 4.19892 8.02015 4.13427 8.04944 4.06356C8.07873 3.99286 8.09337 3.91608 8.09337 3.83324C8.09337 3.7504 8.07873 3.67361 8.04944 3.60291C8.02015 3.5322 7.97621 3.46755 7.91763 3.40897L5.54175 1.03309C5.48318 0.974513 5.41853 0.930581 5.34782 0.90129C5.27711 0.871999 5.20034 0.857353 5.11749 0.857354C5.03465 0.857356 4.95787 0.872002 4.88716 0.901288C4.81645 0.930579 4.7518 0.974515 4.69323 1.03309L1.89133 3.83498C1.83274 3.89358 1.78879 3.95824 1.75953 4.02892C1.73022 4.09965 1.71556 4.17644 1.7156 4.25925C1.71558 4.34211 1.73023 4.41888 1.75953 4.48958C1.78879 4.56032 1.83275 4.62493 1.89133 4.68351L4.26721 7.05939C4.32579 7.11797 4.39041 7.16194 4.46114 7.19119C4.53184 7.2205 4.60862 7.23515 4.69148 7.23513C4.77428 7.23516 4.85108 7.2205 4.92181 7.1912C4.99248 7.16194 5.05715 7.11799 5.11574 7.05939L6.09253 6.0826L6.39879 6.38886L5.57775 7.2099C5.51916 7.26849 5.4752 7.33315 5.44595 7.40383C5.41664 7.47456 5.40198 7.55135 5.40201 7.63416C5.402 7.71702 5.41664 7.7938 5.44595 7.86449C5.47521 7.93523 5.51917 7.99985 5.57775 8.05843L7.872 10.3527C7.93055 10.4112 7.99518 10.4552 8.06593 10.4845C8.1366 10.5138 8.21339 10.5284 8.29626 10.5284C8.37909 10.5285 8.45588 10.5138 8.52659 10.4845C8.59725 10.4552 8.66193 10.4113 8.72053 10.3527L9.5418 9.5314L9.84769 9.8373L8.87053 10.8145C8.81198 10.873 8.76804 10.9377 8.73872 11.0084C8.70949 11.0791 8.69483 11.1559 8.69479 11.2387C8.69483 11.3216 8.7095 11.3983 8.73872 11.4691C8.76804 11.5398 8.81198 11.6044 8.87053 11.663L11.2464 14.0389C11.305 14.0975 11.3696 14.1414 11.4403 14.1707C11.5111 14.1999 11.5878 14.2146 11.6707 14.2146C11.7535 14.2146 11.8303 14.1999 11.901 14.1707C11.9718 14.1414 12.0364 14.0974 12.0949 14.0389L14.8969 11.2369C14.9554 11.1784 14.9994 11.1138 15.0287 11.043C15.058 10.9723 15.0726 10.8955 15.0726 10.8127C15.0726 10.7298 15.058 10.6531 15.0287 10.5824C14.9994 10.5116 14.9555 10.447 14.8969 10.3884L12.521 8.01254C12.4624 7.95399 12.3978 7.91004 12.327 7.88074C12.2564 7.85148 12.1796 7.83682 12.0967 7.83681C12.0139 7.83683 11.9371 7.85148 11.8664 7.88074C11.7957 7.91004 11.731 7.95396 11.6724 8.01254L10.6962 8.98877L10.3903 8.68287L13.309 5.76421C13.3676 5.70563 13.4115 5.64097 13.4408 5.57028C13.4701 5.49958 13.4847 5.4228 13.4847 5.33995C13.4847 5.25709 13.4701 5.1803 13.4408 5.10962C13.4115 5.03889 13.3676 4.97428 13.309 4.91568L11.0147 2.62143C10.9562 2.56285 10.8915 2.51892 10.8208 2.48963C10.7501 2.46034 10.6733 2.44569 10.5905 2.4457C10.5076 2.44569 10.4309 2.46034 10.3601 2.48963C10.2894 2.51892 10.2248 2.56285 10.1662 2.62143ZM6.85053 7.63418L10.5905 3.89423L12.0362 5.33994L8.29624 9.0799L6.85053 7.63418ZM3.16413 4.25925L5.11749 2.30588L6.64484 3.83324L4.69148 5.7866L3.16413 4.25925ZM13.6241 10.8127L11.6707 12.7661L10.1433 11.2387L12.0967 9.28533L13.6241 10.8127ZM6.52548 9.40562C6.72611 9.60625 6.9009 9.82329 7.04996 10.0568C7.1747 10.2523 7.28137 10.4594 7.37 10.6779C7.45895 10.8971 7.52679 11.1208 7.5736 11.3488C7.62559 11.6019 7.65162 11.8606 7.65162 12.1244C7.65166 12.3886 7.62564 12.6473 7.5736 12.9007C7.52684 13.1285 7.459 13.352 7.37019 13.5711C7.28156 13.7896 7.17488 13.9966 7.05015 14.1922C6.90109 14.4257 6.7263 14.6427 6.52571 14.8433C6.46712 14.9019 6.40244 14.9459 6.33178 14.9751C6.26107 15.0044 6.18427 15.0191 6.10145 15.0191C6.01858 15.0191 5.94183 15.0044 5.87112 14.9751C5.80036 14.9459 5.73578 14.9019 5.67718 14.8433L3.80604 12.9718L3.08253 13.6953C2.84494 13.9329 2.47154 13.9329 2.23395 13.6953C1.99641 13.4577 1.99639 13.0843 2.23398 12.8468L2.95749 12.1233L1.08843 10.2542C1.02985 10.1956 0.98593 10.1309 0.956623 10.0603C0.927368 9.98951 0.912721 9.91273 0.912735 9.82988C0.912702 9.74706 0.927363 9.67027 0.95667 9.59955C0.98593 9.52887 1.02988 9.46421 1.08843 9.40566C1.28939 9.2047 1.50687 9.0296 1.74083 8.8804C1.93594 8.75599 2.14252 8.64956 2.36054 8.56116C2.57995 8.47218 2.80367 8.40429 3.0317 8.3575C3.28478 8.30557 3.54322 8.27957 3.80695 8.2796C4.07072 8.27957 4.32912 8.30556 4.58223 8.35748C4.81025 8.40429 5.03399 8.47218 5.25335 8.56116C5.4714 8.64957 5.67796 8.756 5.87307 8.8804C6.10703 9.0296 6.32452 9.20466 6.52548 9.40562ZM5.67695 10.2541C5.53331 10.1105 5.37761 9.9862 5.20986 9.88106C5.08115 9.80044 4.94531 9.73115 4.8024 9.6732C4.65533 9.61352 4.50531 9.56768 4.35244 9.53559C4.1746 9.49822 3.99268 9.47959 3.80695 9.4796C3.62121 9.4796 3.43942 9.49824 3.26151 9.53558C3.10861 9.56766 2.95859 9.61356 2.81149 9.67321C2.67048 9.73038 2.53638 9.79861 2.40918 9.87788L4.23125 11.6999L6.05351 13.5225C6.13275 13.3954 6.20091 13.2613 6.25805 13.1202C6.31759 12.9734 6.36341 12.8237 6.39546 12.6711C6.43289 12.4929 6.45166 12.3107 6.45161 12.1245C6.45161 11.9386 6.43289 11.7566 6.39551 11.5786C6.36341 11.4258 6.31754 11.2758 6.25791 11.1288C6.19978 10.9853 6.1302 10.8491 6.04922 10.72C5.94433 10.5527 5.82021 10.3974 5.67695 10.2541Z" fill="white"/>
</g>
<defs>
<clipPath id="clip0_522_36567">
<rect width="16" height="16" fill="white"/>
</clipPath>
</defs>
</svg>
