<svg width="16" height="16" viewBox="0 0 16 16" fill="none" xmlns="http://www.w3.org/2000/svg">
<path fill-rule="evenodd" clip-rule="evenodd" d="M14.5183 2.95117C14.3657 2.71219 14.1869 2.49006 13.9815 2.28477C13.7759 2.07911 13.5533 1.89995 13.3139 1.74729C13.1144 1.62008 12.9032 1.51127 12.6802 1.42085C12.4558 1.32985 12.227 1.26042 11.9937 1.21255C11.7348 1.1594 11.4704 1.13281 11.2005 1.13281C10.9307 1.13281 10.6662 1.15939 10.4073 1.21255C10.174 1.26042 9.94519 1.32985 9.72079 1.42085C9.49785 1.51127 9.28659 1.62008 9.08712 1.74729C8.84765 1.89995 8.62512 2.07911 8.41945 2.28477C8.36085 2.34335 8.31692 2.40799 8.28765 2.4787C8.25839 2.54941 8.24372 2.62619 8.24372 2.70903C8.24372 2.79187 8.25839 2.86865 8.28765 2.93936C8.31692 3.01007 8.36085 3.07471 8.41945 3.13329L10.3887 5.10251L10.0307 5.46048C9.79312 5.69807 9.79312 6.07142 10.0307 6.30901C10.2683 6.54659 10.6417 6.54659 10.8792 6.30901L11.2371 5.95108L13.1333 7.84757C13.1919 7.90617 13.2565 7.95011 13.3272 7.97937C13.3979 8.00864 13.4747 8.02331 13.5575 8.02331C13.7232 8.02331 13.8647 7.96471 13.9818 7.84757C14.1871 7.64224 14.366 7.42011 14.5185 7.18111C14.6461 6.98117 14.7551 6.76951 14.8457 6.54605C14.9365 6.32198 15.0059 6.09349 15.0537 5.86059C15.107 5.60125 15.1337 5.33643 15.1336 5.06613C15.1336 4.79611 15.107 4.53154 15.0538 4.27244C15.0059 4.03929 14.9365 3.81055 14.8455 3.58625C14.7549 3.36277 14.6458 3.15108 14.5183 2.95117ZM12.6507 2.74797C12.8239 2.85654 12.9847 2.98498 13.133 3.13329C13.281 3.28125 13.4091 3.44161 13.5176 3.61438C13.6013 3.74791 13.6733 3.88884 13.7335 4.03719C13.7951 4.18918 13.8425 4.34416 13.8757 4.50213C13.9143 4.68607 13.9336 4.87418 13.9336 5.06621C13.9337 5.25846 13.9143 5.44664 13.8757 5.63076C13.8425 5.78851 13.7951 5.94343 13.7336 6.09521C13.6735 6.24349 13.6016 6.38437 13.5179 6.51785C13.5157 6.5213 13.5135 6.52487 13.5112 6.52837L11.6248 4.64159L9.73859 2.75536C9.74245 2.75289 9.74639 2.75042 9.75032 2.74797C9.88345 2.66453 10.0239 2.59284 10.1718 2.53289C10.3239 2.47121 10.479 2.42379 10.6371 2.39063C10.8208 2.35209 11.0087 2.33281 11.2005 2.33281C11.3924 2.33281 11.5802 2.35209 11.7639 2.39063C11.9221 2.42379 12.0771 2.47121 12.2293 2.53289C12.3771 2.59285 12.5176 2.66454 12.6507 2.74797ZM10.7169 11.2311C10.7959 10.8826 10.8361 10.5254 10.8376 10.1594C10.8391 9.79337 10.8019 9.43584 10.7259 9.08677C10.6631 8.79784 10.5737 8.51471 10.4577 8.23731C10.3408 7.95764 10.2009 7.69297 10.0379 7.44337C9.85632 7.16524 9.64612 6.90577 9.40725 6.66495C9.16845 6.42412 8.91072 6.21173 8.63412 6.02779C8.38592 5.86277 8.12245 5.72061 7.84379 5.60137C7.56739 5.48311 7.28505 5.39133 6.99665 5.32604C6.64819 5.24714 6.29095 5.20693 5.92497 5.20539C5.55903 5.20386 5.20151 5.24107 4.85243 5.31702C4.56348 5.37989 4.2803 5.46931 4.0029 5.58527C3.72325 5.70217 3.45864 5.84209 3.20906 6.00504C2.93088 6.18666 2.67138 6.39687 2.43055 6.63569C2.18971 6.87451 1.97733 7.13224 1.79338 7.40891C1.62836 7.65711 1.48621 7.92057 1.36697 8.19917C1.24869 8.47557 1.15691 8.75804 1.09161 9.04644C1.01273 9.39484 0.972526 9.75204 0.970993 10.118C0.969459 10.484 1.00668 10.8416 1.08265 11.1906C1.14551 11.4795 1.23494 11.7628 1.35087 12.0401C1.46777 12.3197 1.60769 12.5843 1.77063 12.8339C1.95225 13.1121 2.16247 13.3716 2.4013 13.6124C2.64011 13.8532 2.89782 14.0656 3.17445 14.2496C3.42267 14.4146 3.68611 14.5568 3.96479 14.676C4.24119 14.7942 4.52358 14.886 4.81197 14.9514C5.16043 15.0302 5.51763 15.0704 5.8836 15.072C6.24961 15.0735 6.60718 15.0363 6.95632 14.9603C7.24519 14.8974 7.52832 14.808 7.80565 14.6921C8.08532 14.5752 8.34999 14.4352 8.59959 14.2723C8.87772 14.0907 9.13725 13.8805 9.37805 13.6417C9.61885 13.4029 9.83119 13.1452 10.0151 12.8686C10.1801 12.6204 10.3224 12.3568 10.4416 12.0782C10.5599 11.8018 10.6517 11.5194 10.7169 11.2311ZM2.26019 10.957C2.27752 11.0344 2.29737 11.1113 2.31975 11.1876L3.40001 11.1921C3.43613 11.1923 3.47161 11.189 3.50644 11.1824C3.54353 11.1754 3.57988 11.1645 3.61551 11.1498C3.64763 11.1366 3.67804 11.1207 3.70673 11.1021C3.74005 11.0806 3.77105 11.0555 3.79975 11.0268C3.82463 11.002 3.8469 10.9753 3.86655 10.9468C3.88935 10.9138 3.90863 10.8783 3.9244 10.8404C3.93869 10.806 3.94955 10.771 3.95698 10.7352C3.96489 10.6972 3.96893 10.6583 3.96909 10.6187L3.97332 9.61084C3.97381 9.49224 3.98569 9.37591 4.00893 9.26191C4.03171 9.15024 4.06539 9.04064 4.11001 8.93337C4.15623 8.82224 4.21238 8.71784 4.27845 8.62011C4.34141 8.52697 4.41338 8.43997 4.49436 8.35904C4.57949 8.27391 4.67127 8.19891 4.76968 8.13391C4.8635 8.07197 4.96336 8.01911 5.06925 7.97544C5.17894 7.93017 5.29087 7.89651 5.40505 7.87431C5.51701 7.85264 5.63113 7.84197 5.74741 7.84251C5.78353 7.84264 5.81901 7.83937 5.85385 7.83277C5.89093 7.82577 5.92729 7.81491 5.96291 7.80017C5.99503 7.78691 6.02543 7.77104 6.05412 7.75251C6.08744 7.73097 6.11845 7.70584 6.14715 7.67717C6.17205 7.65231 6.19432 7.62557 6.21397 7.59711C6.23677 7.56411 6.25604 7.52864 6.27179 7.49077C6.28607 7.45644 6.29693 7.42137 6.30437 7.38564C6.31228 7.34757 6.31633 7.30871 6.31649 7.26904L6.32099 6.42797C6.18892 6.41348 6.05524 6.40595 5.91994 6.40538C5.6351 6.40419 5.35718 6.43391 5.08617 6.49455C4.87518 6.54176 4.66833 6.60773 4.46573 6.69244C4.25805 6.77924 4.06129 6.88291 3.87544 7.00337C3.66093 7.14244 3.46095 7.30391 3.27551 7.48777C3.09007 7.67164 2.92692 7.87031 2.78607 8.08364C2.66405 8.26844 2.55876 8.46437 2.47021 8.67131C2.38382 8.87317 2.31613 9.07937 2.26715 9.28997C2.20423 9.56051 2.17218 9.83817 2.17099 10.123C2.16979 10.4079 2.19953 10.6859 2.26019 10.957ZM7.51645 7.27411L7.51919 6.77144C7.67225 6.84477 7.81905 6.92784 7.95939 7.02051C8.17272 7.16131 8.37132 7.32451 8.55519 7.50991C8.73905 7.69531 8.90052 7.89531 9.03959 8.10977C9.16005 8.29564 9.26372 8.49244 9.35052 8.70011C9.43525 8.90271 9.50119 9.10951 9.54839 9.32044C9.58839 9.49904 9.61492 9.68077 9.62805 9.86537L8.34379 9.85997C8.20879 9.85937 8.07632 9.87177 7.94632 9.89704C7.81639 9.92231 7.68899 9.96051 7.56405 10.0116C7.43912 10.0628 7.32145 10.1249 7.21105 10.198C7.10065 10.271 6.99752 10.3551 6.90172 10.4502C6.80585 10.5452 6.72092 10.6476 6.6469 10.7574C6.57288 10.8672 6.50978 10.9843 6.45759 11.1088C6.40541 11.2333 6.36614 11.3604 6.33977 11.4901C6.31339 11.6199 6.29991 11.7522 6.29934 11.8872C6.29877 12.0222 6.31113 12.1548 6.33642 12.2847C6.3617 12.4146 6.3999 12.5421 6.45103 12.667C6.50203 12.7916 6.56396 12.909 6.63682 13.0192L6.63735 13.02C6.71044 13.1304 6.79452 13.2335 6.88959 13.3294C6.98459 13.4252 7.08705 13.5102 7.19679 13.5842C7.21545 13.5968 7.23439 13.609 7.25345 13.621C7.07959 13.6886 6.90259 13.7425 6.72259 13.7828C6.45155 13.8434 6.17351 13.8732 5.88863 13.872C5.60375 13.8708 5.32606 13.8387 5.05554 13.7758C4.84497 13.7268 4.63875 13.6592 4.43687 13.5728C4.22992 13.4842 4.03402 13.3789 3.84917 13.2568C3.63585 13.116 3.43725 12.9529 3.25337 12.7674C3.13466 12.6478 3.02529 12.522 2.92525 12.3902L3.39499 12.3921C3.51125 12.3926 3.62537 12.382 3.73733 12.3602C3.85151 12.3381 3.96345 12.3044 4.07316 12.2592C4.17903 12.2154 4.27887 12.1626 4.37269 12.1007C4.47111 12.0357 4.56289 11.9607 4.64804 11.8756C4.72897 11.7947 4.80091 11.7077 4.86384 11.6146C4.92996 11.5169 4.98615 11.4124 5.03239 11.3012C5.07701 11.1939 5.11071 11.0844 5.13348 10.9727C5.15672 10.8587 5.16859 10.7424 5.16908 10.6237L5.17331 9.61591C5.17347 9.57624 5.17751 9.53737 5.18543 9.49931C5.19287 9.46357 5.20372 9.42851 5.218 9.39417C5.23377 9.35631 5.25305 9.32084 5.27585 9.28777C5.2955 9.25931 5.31777 9.23264 5.34264 9.20777C5.37134 9.17911 5.40234 9.15397 5.43565 9.13244C5.46435 9.11391 5.49476 9.09804 5.52688 9.08477C5.56249 9.07004 5.59882 9.05917 5.63588 9.05217C5.67074 9.04557 5.70624 9.04231 5.74238 9.04244C5.85864 9.04297 5.97275 9.03231 6.08469 9.01064C6.19889 8.98844 6.31085 8.95477 6.42056 8.90951C6.52643 8.86584 6.62628 8.81297 6.72012 8.75104C6.81852 8.68604 6.91032 8.61104 6.99545 8.52591C7.07645 8.44497 7.14845 8.35791 7.21139 8.26477C7.27745 8.16704 7.33359 8.06264 7.37979 7.95157C7.42439 7.84431 7.45812 7.73477 7.48085 7.62311C7.50412 7.50904 7.51599 7.39271 7.51645 7.27411ZM8.55025 12.7724C8.72859 12.5934 8.88599 12.4005 9.02245 12.1938C9.14452 12.009 9.24979 11.813 9.33839 11.6061C9.41412 11.429 9.47552 11.2486 9.52252 11.0649L8.33872 11.06C8.28332 11.0597 8.22892 11.0648 8.17552 11.0752C8.12219 11.0856 8.06985 11.1012 8.01859 11.1222C7.96732 11.1432 7.91899 11.1687 7.87365 11.1987C7.82832 11.2287 7.78599 11.2632 7.74665 11.3023C7.70732 11.3413 7.67245 11.3834 7.64205 11.4284C7.61165 11.4735 7.58572 11.5216 7.56432 11.5727C7.54285 11.6238 7.52679 11.676 7.51592 11.7292C7.50512 11.7825 7.49959 11.8369 7.49932 11.8923C7.49912 11.9478 7.50419 12.0022 7.51459 12.0555C7.52492 12.1088 7.54065 12.1612 7.56159 12.2124C7.58259 12.2638 7.60812 12.312 7.63805 12.3574C7.66805 12.4027 7.70265 12.445 7.74165 12.4844C7.78065 12.5238 7.82272 12.5586 7.86779 12.589C7.91285 12.6194 7.96099 12.6453 8.01205 12.6668C8.06319 12.6882 8.11532 12.7043 8.16859 12.7151C8.22192 12.726 8.27625 12.7315 8.33172 12.7317C8.40925 12.732 8.48285 12.7464 8.55025 12.7724Z" fill="white"/>
</svg>
