<svg width="16" height="16" viewBox="0 0 16 16" fill="none" xmlns="http://www.w3.org/2000/svg">
<path d="M12.0001 13.3996C12.3315 13.3996 12.6003 13.6685 12.6003 13.9998C12.6003 14.3312 12.3315 14.6001 12.0001 14.6001H4.00008C3.66871 14.6001 3.39982 14.3312 3.39982 13.9998C3.39982 13.6685 3.66871 13.3996 4.00008 13.3996H12.0001Z" fill="white"/>
<path fill-rule="evenodd" clip-rule="evenodd" d="M8.00008 6.06624C8.29094 6.06624 8.57503 6.09733 8.8523 6.15869C9.08336 6.20982 9.30973 6.2824 9.53133 6.37614C9.7543 6.47046 9.96537 6.58294 10.1641 6.71403C10.3849 6.85955 10.5905 7.02781 10.7813 7.21859C10.9722 7.40941 11.1404 7.6151 11.2859 7.83577C11.417 8.03457 11.5301 8.24552 11.6244 8.46859C11.7181 8.69015 11.7901 8.9166 11.8412 9.14762C11.9026 9.42489 11.9337 9.70897 11.9337 9.99984C11.9337 10.2907 11.9026 10.5748 11.8412 10.8521C11.8001 11.0377 11.7445 11.22 11.6759 11.3996H13.3334C13.6648 11.3996 13.9337 11.6685 13.9337 11.9998C13.9337 12.3312 13.6648 12.6001 13.3334 12.6001H2.66675C2.33538 12.6001 2.06649 12.3312 2.06649 11.9998C2.06649 11.6685 2.33538 11.3996 2.66675 11.3996H4.3243C4.2557 11.22 4.20003 11.0377 4.15894 10.8521C4.09758 10.5748 4.06714 10.2907 4.06714 9.99984C4.06714 9.70897 4.09758 9.42489 4.15894 9.14762C4.21006 8.91657 4.28265 8.69018 4.37638 8.46859C4.4707 8.24557 4.58322 8.03454 4.71427 7.83577C4.85979 7.6151 5.02803 7.40941 5.21883 7.21859C5.40963 7.02783 5.61536 6.85954 5.83602 6.71403C6.03475 6.58297 6.24588 6.47045 6.46883 6.37614C6.69042 6.28241 6.91684 6.20982 7.14787 6.15869C7.42511 6.09734 7.70924 6.06625 8.00008 6.06624ZM8.00008 7.26676C7.79037 7.26677 7.58599 7.28942 7.3868 7.33512C7.23367 7.37026 7.08321 7.41882 6.93628 7.48096C6.78511 7.54488 6.64181 7.62109 6.50659 7.70947C6.34941 7.81212 6.2028 7.93126 6.06714 8.06689C5.93148 8.2026 5.81241 8.34918 5.70972 8.50635C5.62138 8.64161 5.54514 8.7849 5.4812 8.93604C5.41905 9.08302 5.37051 9.23344 5.33537 9.38656C5.28968 9.58572 5.26701 9.79015 5.26701 9.99984C5.26701 10.2095 5.28967 10.4139 5.33537 10.6131C5.37051 10.7663 5.41904 10.9167 5.4812 11.0636C5.53061 11.1805 5.58779 11.2923 5.65177 11.3996H10.3484C10.4124 11.2923 10.4696 11.1805 10.519 11.0636C10.5811 10.9167 10.6297 10.7663 10.6648 10.6131C10.7105 10.4139 10.7338 10.2095 10.7338 9.99984C10.7338 9.79018 10.7105 9.58575 10.6648 9.38656C10.6297 9.23336 10.5811 9.08303 10.519 8.93604C10.455 8.7849 10.3788 8.64161 10.2904 8.50635C10.1878 8.34918 10.0687 8.20261 9.93302 8.06689C9.79737 7.93124 9.65076 7.8122 9.49357 7.70947C9.3583 7.62114 9.21508 7.54489 9.06388 7.48096C8.91704 7.41886 8.76705 7.37025 8.61401 7.33512C8.41475 7.28939 8.20981 7.26676 8.00008 7.26676Z" fill="white"/>
<path d="M2.6674 9.39893C2.99838 9.3991 3.26667 9.66817 3.26701 9.99919C3.26701 10.3303 2.99852 10.5991 2.6674 10.5994L1.33407 10.6001C1.00283 10.6001 0.73332 10.3311 0.733154 9.99984C0.733331 9.66876 1.00291 9.39974 1.33407 9.39958L2.6674 9.39893Z" fill="white"/>
<path d="M14.6674 9.39893C14.9984 9.3991 15.2673 9.66817 15.2677 9.99919C15.2677 10.3303 14.9985 10.5991 14.6674 10.5994L13.3341 10.6001C13.0028 10.6001 12.734 10.3311 12.7338 9.99984C12.734 9.66876 13.0029 9.39974 13.3341 9.39958L14.6674 9.39893Z" fill="white"/>
<path d="M13.4734 6.14632C13.7602 5.98072 14.1279 6.079 14.2937 6.36572C14.4593 6.65258 14.3605 7.02026 14.0736 7.18604L12.9194 7.85335C12.6325 8.01897 12.2648 7.9201 12.099 7.6333C11.9337 7.34649 12.0324 6.97936 12.3191 6.81364L13.4734 6.14632Z" fill="white"/>
<path d="M1.70646 6.36637C1.87209 6.07957 2.23983 5.98149 2.52677 6.14697L3.68172 6.81299C3.96855 6.97858 4.06653 7.34569 3.90112 7.63265C3.73551 7.9195 3.36843 8.01819 3.08146 7.8527L1.92651 7.18669C1.63966 7.02107 1.54097 6.65335 1.70646 6.36637Z" fill="white"/>
<path d="M4.36662 3.70687C4.65347 3.54126 5.02115 3.63947 5.18693 3.92627L5.8536 5.08057C6.01922 5.36742 5.921 5.7351 5.6342 5.90088C5.34736 6.06643 4.9803 5.9676 4.81453 5.68083L4.14722 4.52653C3.98163 4.23973 4.07994 3.87269 4.36662 3.70687Z" fill="white"/>
<path d="M10.8139 3.92627C10.9795 3.63945 11.3466 3.54079 11.6335 3.70622C11.9204 3.87183 12.0184 4.23956 11.8529 4.52653L11.1869 5.68148C11.0213 5.96821 10.6542 6.06634 10.3673 5.90088C10.0805 5.73529 9.98187 5.36815 10.1472 5.08122L10.8139 3.92627Z" fill="white"/>
<path d="M8.00008 2.73291C8.33131 2.73291 8.60018 3.0019 8.60034 3.33317L8.60099 4.6665C8.601 4.99774 8.332 5.2666 8.00073 5.26676C7.66951 5.26676 7.40064 4.99777 7.40047 4.6665L7.39982 3.33317C7.39982 3.00194 7.66881 2.73308 8.00008 2.73291Z" fill="white"/>
</svg>
