<svg width="16" height="16" viewBox="0 0 16 16" fill="none" xmlns="http://www.w3.org/2000/svg">
<path fill-rule="evenodd" clip-rule="evenodd" d="M7.31383 2.0336L10.8348 2.04844C11.3082 2.05044 11.6903 2.43582 11.6883 2.90921L11.6883 2.91027L11.6883 2.91577L11.6446 13.2778C11.6432 13.6138 11.3781 13.8767 11.0421 13.8753C10.7061 13.8739 10.4432 13.6088 10.4446 13.2728L10.4628 8.9574L8.59408 8.94953L8.35549 9.28992L8.34783 9.30083L5.33825 13.5946C5.1454 13.8698 4.77769 13.9344 4.50255 13.7416C4.2274 13.5487 4.16274 13.181 4.35559 12.9059L7.1352 8.94018C5.29664 8.8541 3.83625 7.33238 3.84408 5.47423C3.85212 3.56598 5.40558 2.02556 7.31383 2.0336ZM10.4869 3.24699L7.30877 3.23359C7.13039 3.23284 6.95664 3.25208 6.78753 3.2913C6.66616 3.31945 6.54716 3.35789 6.43057 3.40663C6.30825 3.45776 6.19216 3.5186 6.08231 3.58913C5.94954 3.67438 5.82588 3.77381 5.71133 3.88741C5.59677 4.00101 5.4963 4.12382 5.40994 4.25587C5.33851 4.36508 5.27663 4.48075 5.2245 4.60258C5.17478 4.71875 5.13534 4.8374 5.10617 4.95853C5.06553 5.1273 5.04482 5.30092 5.04407 5.47929C5.04332 5.65764 5.06255 5.83136 5.10175 6.00044C5.1299 6.1218 5.16838 6.24091 5.2171 6.35749C5.2682 6.47972 5.32898 6.59573 5.39946 6.70552C5.48471 6.83827 5.58429 6.96219 5.69788 7.07674C5.81146 7.19127 5.93425 7.29172 6.06626 7.37807C6.17551 7.44954 6.29117 7.5114 6.41305 7.56356C6.5292 7.61327 6.64783 7.65271 6.76892 7.68187C6.9377 7.72252 7.11138 7.74324 7.28977 7.74399L10.4679 7.75739L10.4869 3.24699Z" fill="white"/>
</svg>
