<svg width="16" height="16" viewBox="0 0 16 16" fill="none" xmlns="http://www.w3.org/2000/svg">
<path fill-rule="evenodd" clip-rule="evenodd" d="M5.56002 9.18411C5.34831 9.13731 5.13491 9.06964 4.93185 8.98371C4.72755 8.89731 4.53437 8.79411 4.35229 8.67397C4.15045 8.54084 3.96226 8.38704 3.78773 8.21251C3.61321 8.03797 3.45938 7.84977 3.32625 7.64797C3.20614 7.46584 3.10288 7.27264 3.01647 7.06837C2.93052 6.86517 2.86415 6.65766 2.81733 6.44582C2.76132 6.19237 2.73331 5.93271 2.73331 5.66689C2.73331 5.40107 2.76131 5.14143 2.81732 4.88799C2.86414 4.67615 2.93052 4.46862 3.01647 4.26543C3.10288 4.06111 3.20614 3.86792 3.32625 3.68583C3.45937 3.48401 3.61321 3.29583 3.78773 3.12131C3.96225 2.94679 4.15041 2.79297 4.35223 2.65984C4.53432 2.53973 4.72754 2.43646 4.93185 2.35004C5.13504 2.2641 5.34256 2.19772 5.5544 2.15091C5.80781 2.09491 6.06753 2.06689 6.33331 2.06689L6.83328 2.06689H7.99995C8.33595 2.06689 8.59995 2.33089 8.59995 2.66689C8.59995 3.00289 8.33595 3.26689 7.99995 3.26689H6.83328H6.33331C6.14865 3.26689 5.96862 3.28707 5.79323 3.32741C5.65929 3.35824 5.52784 3.40088 5.39931 3.45525C5.26684 3.51127 5.14134 3.57797 5.02281 3.65535C4.88447 3.74564 4.75561 3.85047 4.63625 3.96983C4.51689 4.08919 4.41207 4.21804 4.32177 4.35638C4.2444 4.47491 4.1777 4.60042 4.12167 4.73289C4.06731 4.86142 4.02471 4.99266 3.99388 5.12661C3.9535 5.30205 3.93331 5.48215 3.93331 5.66689C3.93331 5.85163 3.9535 6.03171 3.99387 6.20716C4.02471 6.34111 4.0673 6.47236 4.12167 6.60089C4.17767 6.73331 4.24433 6.85871 4.32165 6.97724C4.41193 7.11551 4.5169 7.24457 4.63625 7.36397C4.75562 7.48331 4.88447 7.58817 5.02281 7.67844C5.14135 7.75584 5.26685 7.82251 5.39931 7.87851C5.52785 7.93291 5.65909 7.97551 5.79304 8.00631C5.96837 8.04664 6.14871 8.06691 6.33331 8.06691H6.61291C6.64721 8.06384 6.68181 8.06384 6.71641 8.06691H7.99995C8.33628 8.06691 8.60028 8.33091 8.60028 8.66691V13.3336C8.60028 13.6696 8.33628 13.9336 8.00028 13.9336C7.66428 13.9336 7.40028 13.6696 7.40028 13.3336L7.40028 9.26691H6.97555L3.82171 13.6823C3.62642 13.9557 3.25815 14.0171 2.98473 13.8218C2.71132 13.6265 2.64994 13.2582 2.84523 12.9848L5.56002 9.18411ZM10.9331 6.26689V8.00024C10.9331 8.33624 10.6691 8.60024 10.3331 8.60024C9.99715 8.60024 9.73315 8.33624 9.73315 8.00024V6.26689H7.99995C7.66395 6.26689 7.39995 6.00289 7.39995 5.66689C7.39995 5.33089 7.66395 5.06689 7.99995 5.06689H9.73315V3.33356C9.73315 2.99756 9.99715 2.73356 10.3331 2.73356C10.6691 2.73356 10.9331 2.99756 10.9331 3.33356V5.06689H12.6666C13.0026 5.06689 13.2666 5.33089 13.2666 5.66689C13.2666 6.00289 13.0026 6.26689 12.6666 6.26689H10.9331Z" fill="white"/>
</svg>
