<svg width="22" height="22" viewBox="0 0 22 22" fill="none" xmlns="http://www.w3.org/2000/svg">
<path fill-rule="evenodd" clip-rule="evenodd" d="M20.011 5.14268C20.0477 4.95935 20.0752 4.77602 20.0752 4.57435C20.0752 4.38185 20.0477 4.19852 20.011 4.01518C19.9743 3.85018 19.9285 3.69435 19.8643 3.54768C19.8002 3.39185 19.7177 3.24518 19.626 3.11685C19.5343 2.96102 19.4152 2.82352 19.296 2.69518C19.1677 2.56685 19.0302 2.45685 18.8743 2.36518C18.746 2.27352 18.5993 2.19102 18.4435 2.12685C18.2968 2.06268 18.141 2.01685 17.976 1.98018C17.7927 1.94352 17.6002 1.91602 17.4077 1.91602C17.2152 1.91602 17.0318 1.94352 16.8485 1.98018C16.6835 2.01685 16.5277 2.06268 16.381 2.12685C16.2252 2.19102 16.0785 2.27352 15.9502 2.35602C15.7943 2.45685 15.6568 2.56685 15.5285 2.69518C15.4002 2.82352 15.2902 2.96102 15.1893 3.11685C15.1068 3.24518 15.0243 3.39185 14.9602 3.54768C14.896 3.69435 14.8502 3.85018 14.8135 4.01518C14.7768 4.19852 14.7493 4.38185 14.7493 4.57435C14.7493 4.76685 14.7768 4.95935 14.8135 5.14268C14.8502 5.30768 14.896 5.46352 14.9602 5.61018L5.96768 14.6577L5.64685 14.9785C5.49102 14.9143 5.30768 14.8502 5.14268 14.8135C4.95935 14.7768 4.76685 14.7493 4.57435 14.7493C4.38185 14.7493 4.19852 14.7768 4.01518 14.8135C3.85018 14.8502 3.69435 14.896 3.54768 14.9602C3.39185 15.0243 3.24518 15.1068 3.11685 15.1893C2.96102 15.2902 2.82352 15.4002 2.69518 15.5285C2.56685 15.6568 2.45685 15.7943 2.35602 15.9502C2.27352 16.0785 2.19102 16.2252 2.12685 16.381C2.06268 16.5277 2.01685 16.6835 1.98018 16.8485C1.94352 17.0318 1.91602 17.2152 1.91602 17.4077C1.91602 17.6002 1.94352 17.7927 1.98018 17.976C2.01685 18.141 2.06268 18.2968 2.12685 18.4435C2.19102 18.5993 2.27352 18.746 2.36518 18.8743C2.45685 19.0302 2.56685 19.1677 2.69518 19.296C2.82352 19.4152 2.96102 19.5343 3.11685 19.626C3.24518 19.7177 3.39185 19.8002 3.54768 19.8643C3.69435 19.9285 3.85018 19.9743 4.01518 20.011C4.19852 20.0477 4.38185 20.0752 4.57435 20.0752C4.77602 20.0752 4.95935 20.0477 5.14268 20.011C5.30768 19.9743 5.46352 19.9285 5.61018 19.8643C5.76602 19.8002 5.91268 19.7177 6.04102 19.626C6.19685 19.5343 6.33435 19.4152 6.46268 19.296C6.58185 19.1677 6.70102 19.0302 6.80185 18.8743C6.88435 18.746 6.96685 18.5993 7.03102 18.4435C7.09518 18.2968 7.14102 18.141 7.17768 17.976C7.21435 17.7927 7.24185 17.6093 7.24185 17.4077C7.24185 17.2152 7.21435 17.0318 7.17768 16.8485C7.14102 16.6835 7.09518 16.5277 7.03102 16.381C6.98518 16.271 6.93018 16.1702 6.87518 16.0785L7.12268 15.831L16.0785 6.87518C16.1702 6.93018 16.271 6.98518 16.381 7.03102C16.5277 7.09518 16.6835 7.14102 16.8485 7.17768C17.0318 7.21435 17.2152 7.24185 17.4077 7.24185C17.6093 7.24185 17.7927 7.21435 17.976 7.17768C18.141 7.14102 18.2968 7.09518 18.4435 7.03102C18.5993 6.96685 18.746 6.88435 18.8743 6.80185C19.0302 6.70102 19.1677 6.59102 19.296 6.46268C19.4152 6.33435 19.5343 6.19685 19.626 6.04102C19.7177 5.91268 19.8002 5.76602 19.8643 5.61018C19.9285 5.46352 19.9743 5.30768 20.011 5.14268ZM2.96102 9.75352V11.5868C2.96102 12.0452 3.32768 12.4118 3.78602 12.4118C4.25352 12.4118 4.61102 12.0452 4.61102 11.5868V9.75352C4.61102 9.32268 4.65685 8.91018 4.74852 8.50685C4.82185 8.18602 4.92268 7.88352 5.05102 7.57185C5.17935 7.26935 5.33518 6.96685 5.51852 6.69185C5.72935 6.37102 5.97685 6.07768 6.25185 5.80268C6.52685 5.51852 6.82018 5.28018 7.14102 5.06935C7.42518 4.88602 7.71852 4.73018 8.03018 4.60185C8.33268 4.47352 8.64435 4.37268 8.95602 4.29935C9.35935 4.20768 9.78102 4.16185 10.2027 4.16185H12.036C12.5035 4.16185 12.861 3.79518 12.861 3.33685C12.861 2.86935 12.5035 2.51185 12.036 2.51185H10.2027C9.67102 2.51185 9.13935 2.56685 8.62602 2.67685C8.20435 2.77768 7.79185 2.90602 7.38852 3.08018C6.97602 3.25435 6.59102 3.45602 6.22435 3.70352C5.81185 3.96935 5.43602 4.28102 5.08768 4.62935C4.73018 4.98685 4.41852 5.36268 4.15268 5.77518C3.91435 6.13268 3.70352 6.52685 3.52935 6.93018C3.36435 7.34268 3.22685 7.75518 3.13518 8.17685C3.01602 8.69018 2.96102 9.21268 2.96102 9.75352ZM18.3885 4.34518C18.416 4.41852 18.416 4.50102 18.416 4.57435C18.416 4.65685 18.4068 4.73935 18.3885 4.81268C18.3793 4.86768 18.361 4.92268 18.3427 4.96852C18.3152 5.02352 18.2968 5.07852 18.2602 5.12435C18.2235 5.17935 18.1777 5.24352 18.1227 5.28935C18.0768 5.34435 18.0127 5.39018 17.9577 5.42685C17.9118 5.46352 17.8568 5.48185 17.8018 5.50935C17.756 5.52768 17.701 5.54602 17.646 5.55518C17.5727 5.57352 17.4902 5.59185 17.4077 5.59185C17.3343 5.59185 17.2518 5.58268 17.1785 5.56435C17.1235 5.54602 17.0685 5.52768 17.0227 5.50935C16.9677 5.48185 16.9127 5.46352 16.8668 5.42685C16.8118 5.39018 16.7477 5.34435 16.7018 5.28935C16.6468 5.24352 16.601 5.18852 16.5643 5.12435C16.5277 5.07852 16.5093 5.02352 16.4818 4.96852C16.4635 4.92268 16.4452 4.86768 16.4268 4.81268C16.4085 4.73935 16.3993 4.65685 16.3993 4.57435C16.3993 4.50102 16.4085 4.41852 16.4268 4.34518C16.4452 4.29018 16.4635 4.23518 16.4818 4.18935C16.5002 4.13435 16.5277 4.07935 16.5643 4.03352C16.601 3.97852 16.6468 3.91435 16.7018 3.86852C16.7477 3.81352 16.8118 3.76768 16.8668 3.73102C16.9127 3.69435 16.9677 3.67602 17.0227 3.64852C17.0685 3.63018 17.1235 3.61185 17.1785 3.60268C17.2518 3.57518 17.3343 3.57518 17.4077 3.57518C17.4902 3.57518 17.5727 3.57518 17.646 3.60268C17.701 3.61185 17.756 3.63018 17.8018 3.64852C17.8568 3.67602 17.9118 3.69435 17.9577 3.73102C18.0127 3.76768 18.0768 3.81352 18.1227 3.86852C18.1777 3.91435 18.2235 3.97852 18.2602 4.03352C18.2968 4.07935 18.3152 4.13435 18.3427 4.18935C18.361 4.23518 18.3793 4.29018 18.3885 4.34518ZM19.2777 9.75352C19.2777 9.29518 18.9202 8.92852 18.4527 8.92852C17.9943 8.92852 17.6277 9.29518 17.6277 9.75352V11.5868C17.6277 12.0085 17.5818 12.4302 17.4902 12.8335C17.4168 13.1452 17.316 13.4568 17.1877 13.7593C17.0593 14.071 16.9035 14.3643 16.7202 14.6485C16.5093 14.9602 16.271 15.2627 15.996 15.5377C15.7118 15.8127 15.4185 16.0602 15.0977 16.271C14.8227 16.4543 14.5293 16.6102 14.2177 16.7385C13.906 16.8668 13.6035 16.9677 13.2827 17.041C12.8793 17.1327 12.4668 17.1785 12.036 17.1785H10.2027C9.74435 17.1785 9.37768 17.5452 9.37768 18.0035C9.37768 18.4618 9.74435 18.8285 10.2027 18.8285H12.036C12.5768 18.8285 13.0993 18.7735 13.6127 18.6543C14.0343 18.5627 14.4468 18.4252 14.8593 18.2602C15.2627 18.086 15.6568 17.8752 16.0235 17.6368C16.4268 17.371 16.8027 17.0593 17.1602 16.711C17.5085 16.3535 17.8202 15.9777 18.086 15.5652C18.3335 15.1985 18.5352 14.8135 18.7093 14.401C18.8835 13.9977 19.0118 13.5852 19.1127 13.1635C19.2227 12.6502 19.2777 12.1185 19.2777 11.5868V9.75352ZM5.56435 17.1785C5.58268 17.2518 5.59185 17.3343 5.59185 17.4077C5.59185 17.4902 5.57352 17.5727 5.55518 17.646C5.54602 17.701 5.52768 17.756 5.50935 17.8018C5.48185 17.8568 5.46352 17.9118 5.42685 17.9577C5.39018 18.0127 5.34435 18.0768 5.28935 18.1227C5.24352 18.1777 5.17935 18.2235 5.12435 18.2602C5.07852 18.2968 5.02352 18.3152 4.96852 18.3427C4.92268 18.361 4.86768 18.3793 4.81268 18.3885C4.73935 18.4068 4.65685 18.416 4.57435 18.416C4.50102 18.416 4.41852 18.416 4.34518 18.3977C4.29018 18.3793 4.23518 18.361 4.18935 18.3427C4.13435 18.3152 4.07935 18.2968 4.03352 18.2602C3.97852 18.2235 3.91435 18.1777 3.86852 18.1227C3.81352 18.0768 3.76768 18.0127 3.73102 17.9577C3.69435 17.9118 3.67602 17.8568 3.64852 17.8018C3.63018 17.756 3.61185 17.701 3.59352 17.646C3.57518 17.5727 3.57518 17.4902 3.57518 17.4077C3.57518 17.3343 3.57518 17.2518 3.59352 17.1785C3.61185 17.1235 3.63018 17.0685 3.64852 17.0227C3.66685 16.9677 3.69435 16.9127 3.73102 16.8668C3.76768 16.8118 3.81352 16.7477 3.86852 16.7018C3.91435 16.6468 3.97852 16.601 4.03352 16.5643C4.07935 16.5277 4.13435 16.5002 4.18935 16.4818C4.23518 16.4635 4.29018 16.4452 4.34518 16.4268C4.41852 16.4085 4.50102 16.3993 4.57435 16.3993C4.65685 16.3993 4.73935 16.4085 4.81268 16.4268C4.86768 16.4452 4.92268 16.4635 4.96852 16.4818C5.02352 16.5093 5.07852 16.5277 5.12435 16.5643C5.18852 16.601 5.24352 16.6468 5.28935 16.7018C5.34435 16.7477 5.39018 16.8118 5.42685 16.8668C5.46352 16.9127 5.48185 16.9677 5.50935 17.0227C5.52768 17.0685 5.54602 17.1235 5.56435 17.1785Z" fill="white"/>
</svg>
