<svg width="34" height="34" viewBox="0 0 34 34" fill="none" xmlns="http://www.w3.org/2000/svg">
<path fill-rule="evenodd" clip-rule="evenodd" d="M15.625 8.75C11.8294 8.75 8.75 11.8281 8.75 15.625C8.75 19.4219 11.8294 22.5 15.625 22.5C17.2256 22.5 18.7009 21.9526 19.8682 21.0348L22.833 24.0001C23.1589 24.3266 23.6744 24.3266 24.0003 24.0001C24.3262 23.6733 24.3262 23.16 24.0003 22.8332L21.0354 19.8682C21.9521 18.6995 22.5 17.2262 22.5 15.625C22.5 11.8281 19.4206 8.75 15.625 8.75ZM15.625 10.4C12.7389 10.4 10.4007 12.7394 10.4007 15.625C10.4007 18.5106 12.7389 20.85 15.625 20.85C18.511 20.85 20.8493 18.5106 20.8493 15.625C20.8493 12.7394 18.511 10.4 15.625 10.4Z" fill="white"/>
</svg>
