<svg width="22" height="22" viewBox="0 0 22 22" fill="none" xmlns="http://www.w3.org/2000/svg">
<path d="M12.7422 10.9999C12.7422 10.7811 12.6552 10.571 12.5005 10.4163L7.0005 4.91628C6.67833 4.5941 6.15537 4.59411 5.83319 4.91628C5.51101 5.23845 5.51101 5.76141 5.83319 6.08359L10.7495 10.9999L5.83319 15.9162C5.51101 16.2384 5.51101 16.7614 5.83319 17.0836C6.15537 17.4057 6.67832 17.4057 7.0005 17.0836L12.5005 11.5836C12.6552 11.4289 12.7422 11.2187 12.7422 10.9999ZM18.2422 10.9999C18.2422 10.7811 18.1552 10.571 18.0005 10.4163L12.5005 4.91628C12.1783 4.5941 11.6554 4.59411 11.3332 4.91628C11.011 5.23846 11.011 5.76141 11.3332 6.08359L16.2495 10.9999L11.3332 15.9162C11.011 16.2384 11.011 16.7614 11.3332 17.0836C11.6554 17.4057 12.1783 17.4057 12.5005 17.0836L18.0005 11.5836C18.1552 11.4289 18.2422 11.2187 18.2422 10.9999Z" fill="white"/>
</svg>
