<svg width="22" height="22" viewBox="0 0 22 22" fill="none" xmlns="http://www.w3.org/2000/svg">
<path fill-rule="evenodd" clip-rule="evenodd" d="M3.6204 2.70341C3.66913 2.65468 3.71994 2.60844 3.77279 2.56468C3.94693 2.42055 4.14345 2.30344 4.36235 2.21338C4.60279 2.11446 4.88596 2.0431 5.21187 1.99927C5.4661 1.9651 5.78546 1.94316 6.16994 1.93346C6.39853 1.92768 6.78637 1.9248 7.33346 1.9248H12.9908C13.1669 1.9248 13.3397 1.94165 13.5092 1.97535C13.6789 2.00907 13.8451 2.05967 14.0081 2.12716C14.1708 2.19457 14.3241 2.27627 14.4677 2.37226C14.6113 2.46826 14.7459 2.57883 14.8705 2.70339L15.3823 3.21529L15.4071 3.24L17.8429 5.67583L18.3798 6.2128C18.5044 6.33735 18.6147 6.47146 18.7107 6.6151C18.8031 6.75325 18.8822 6.90021 18.9481 7.056C18.9507 7.06237 18.9535 7.06874 18.9561 7.07511C18.9587 7.08147 18.9613 7.08781 18.9639 7.09415C19.0274 7.25075 19.0753 7.41045 19.1078 7.57324L19.108 7.57425C19.1416 7.74367 19.1585 7.91642 19.1585 8.09253V15.5832C19.1585 16.1302 19.1555 16.5181 19.1498 16.7467C19.1401 17.1311 19.1181 17.4505 19.0839 17.7047C19.0401 18.0307 18.9688 18.3138 18.8699 18.5543C18.7798 18.7732 18.6627 18.9696 18.5186 19.1438C18.4748 19.1967 18.4286 19.2474 18.3798 19.2962C18.3311 19.3449 18.2803 19.3912 18.2274 19.4349C18.0533 19.5791 17.8568 19.6961 17.6379 19.7863C17.3975 19.8852 17.1143 19.9565 16.7883 20.0003C16.5341 20.0345 16.2148 20.0565 15.8303 20.0661C15.6017 20.0719 15.2139 20.0748 14.6668 20.0748H7.33346C6.78637 20.0748 6.39853 20.0719 6.16994 20.0661C5.78546 20.0565 5.4661 20.0345 5.21187 20.0003C4.88595 19.9565 4.60279 19.8852 4.36235 19.7862C4.14347 19.6961 3.94697 19.5791 3.77285 19.435C3.71998 19.3913 3.66913 19.3449 3.6204 19.2962C3.57166 19.2474 3.52541 19.1967 3.48166 19.1438C3.33752 18.9696 3.22044 18.7732 3.13038 18.5543C3.03146 18.3138 2.96009 18.0307 2.91628 17.7047C2.88209 17.4505 2.86015 17.1311 2.85045 16.7467C2.84468 16.5181 2.8418 16.1302 2.8418 15.5832V6.41647C2.8418 5.86938 2.84468 5.48154 2.85045 5.25295C2.86015 4.86847 2.88209 4.54911 2.91628 4.29487C2.96009 3.96897 3.03146 3.68579 3.13038 3.44536C3.22044 3.22646 3.33753 3.02995 3.48167 2.85581C3.52542 2.80295 3.57167 2.75215 3.6204 2.70341ZM17.4343 7.71308C17.4633 7.78604 17.4829 7.89144 17.4934 8.02927C17.4985 8.09654 17.5023 8.2006 17.5048 8.34147H13.7501C13.6682 8.34147 13.5884 8.33207 13.5111 8.31327C13.4589 8.30062 13.4079 8.28372 13.3579 8.26256C13.3044 8.23992 13.2535 8.21311 13.2054 8.18212C13.145 8.14333 13.089 8.098 13.0371 8.04614C12.9853 7.99427 12.9399 7.9382 12.9011 7.87792C12.8701 7.82976 12.8434 7.77891 12.8207 7.72538C12.7995 7.67534 12.7826 7.62427 12.7699 7.57217C12.7511 7.49477 12.7418 7.4151 12.7418 7.33314V3.57843C12.8826 3.58095 12.9867 3.58476 13.0539 3.58987C13.1958 3.60065 13.3033 3.62122 13.3766 3.65154C13.4498 3.68189 13.5404 3.74338 13.6483 3.83601C13.7458 3.91974 13.9345 4.10133 14.2144 4.38079L15.4461 5.61244L16.6761 6.84255C16.9705 7.13684 17.1608 7.3343 17.2472 7.43491C17.3372 7.53974 17.3978 7.62822 17.4291 7.70036C17.43 7.70245 17.4308 7.70455 17.4317 7.70665C17.4326 7.7088 17.4335 7.71093 17.4343 7.71308ZM11.0918 3.5748V7.33314C11.0918 7.52655 11.1119 7.7156 11.1521 7.90026C11.1869 8.05946 11.2364 8.21544 11.3011 8.36813C11.3654 8.52043 11.4425 8.66436 11.5323 8.79991C11.63 8.9475 11.7426 9.08514 11.8704 9.21287C11.9981 9.34056 12.1358 9.45331 12.2834 9.55094C12.4189 9.64068 12.5628 9.71777 12.7151 9.78221C12.8678 9.84684 13.0238 9.89643 13.1829 9.93108C13.3676 9.97132 13.5567 9.99149 13.7501 9.99149H17.5085V15.5832C17.5085 16.1163 17.5057 16.4903 17.5003 16.705C17.4921 17.0298 17.4749 17.2898 17.4487 17.4849C17.4238 17.67 17.3888 17.8173 17.344 17.9264C17.3104 18.0082 17.2667 18.0758 17.2131 18.1295C17.1595 18.1831 17.0918 18.2266 17.0101 18.2603C16.9009 18.3052 16.7538 18.3401 16.5685 18.3651C16.3734 18.3913 16.1135 18.4085 15.7887 18.4167C15.5739 18.4221 15.2 18.4248 14.6668 18.4248H7.33346C6.80026 18.4248 6.42629 18.4221 6.21156 18.4167C5.88674 18.4085 5.6268 18.3913 5.43173 18.3651C5.24651 18.3401 5.09931 18.3052 4.99014 18.2603C4.90841 18.2266 4.84074 18.1831 4.78714 18.1295C4.73353 18.0758 4.68992 18.0082 4.65628 17.9264C4.61137 17.8173 4.57646 17.67 4.55156 17.4849C4.52533 17.2898 4.50812 17.0298 4.49992 16.705C4.4945 16.4903 4.4918 16.1164 4.4918 15.5832V6.41647C4.4918 5.88326 4.4945 5.50929 4.49992 5.29457C4.50812 4.96976 4.52533 4.70981 4.55156 4.51473C4.57646 4.32951 4.61137 4.18231 4.65628 4.07314C4.68991 3.99141 4.73352 3.92374 4.78713 3.87015C4.84073 3.81654 4.9084 3.77291 4.99014 3.73929C5.09931 3.69437 5.2465 3.65947 5.43173 3.63456C5.6268 3.60834 5.88675 3.59112 6.21156 3.58293C6.42628 3.57751 6.80025 3.5748 7.33346 3.5748H11.0918ZM8.25013 12.7415H11.9168C12.3788 12.7415 12.7418 12.3785 12.7418 11.9165C12.7418 11.4545 12.3788 11.0915 11.9168 11.0915H8.25013C7.78813 11.0915 7.42513 11.4545 7.42513 11.9165C7.42513 12.3785 7.78813 12.7415 8.25013 12.7415ZM8.25013 15.4915H13.7501C14.2121 15.4915 14.5751 15.1285 14.5751 14.6665C14.5751 14.2045 14.2121 13.8415 13.7501 13.8415H8.25013C7.78813 13.8415 7.42513 14.2045 7.42513 14.6665C7.42513 15.1285 7.78813 15.4915 8.25013 15.4915Z" fill="white"/>
</svg>
