<svg width="22" height="22" viewBox="0 0 22 22" fill="none" xmlns="http://www.w3.org/2000/svg">
<path d="M3.88379 18.4588L3.88379 3.79215C3.88379 3.50634 4.03194 3.24068 4.27498 3.09032C4.51821 2.94 4.82222 2.92665 5.07796 3.05452C7.29032 4.1607 9.80859 4.49745 12.234 4.01236L16.5703 3.14493L16.6661 3.12971C17.6249 3.0156 18.2785 4.11099 17.7072 4.90307L15.0243 8.82665L17.8406 12.0117L17.854 12.0269L17.8665 12.043C18.3987 12.7084 18.0369 13.7012 17.2014 13.8683L12.5572 14.7975C10.1997 15.269 7.76698 15.061 5.53451 14.2165L5.53451 18.4588C5.53446 18.9144 5.16475 19.2842 4.70915 19.2842C4.25354 19.2842 3.88384 18.9144 3.88379 18.4588ZM12.5572 5.63085C10.1997 6.1023 7.76698 5.89434 5.53451 5.04988L5.53451 12.4351C7.63331 13.3682 9.97371 13.6311 12.234 13.179L16.0037 12.4253L13.703 9.82299L13.6896 9.80688C13.6145 9.71301 13.5107 9.58542 13.4345 9.46223C13.3575 9.33772 13.2707 9.16016 13.2501 8.93407L13.2456 8.83381L13.2501 8.73355C13.2706 8.50706 13.3574 8.32911 13.4345 8.2045C13.5048 8.09091 13.5978 7.97335 13.6708 7.88224L15.6304 5.01586L12.5572 5.63085Z" fill="white"/>
</svg>
