<svg width="22" height="22" viewBox="0 0 22 22" fill="none" xmlns="http://www.w3.org/2000/svg">
<path d="M16.7692 15.6024C17.091 15.9244 17.0908 16.4466 16.7692 16.7688C15.6283 17.9097 14.1738 18.6865 12.5913 19.0014C11.009 19.3161 9.36878 19.155 7.87821 18.5377C6.38748 17.9202 5.11337 16.8742 4.21692 15.5325C3.34916 14.2338 2.87508 12.7146 2.8455 11.1551L2.41671 11.5839C2.09452 11.9061 1.57157 11.9061 1.24939 11.5839C0.927327 11.2617 0.927247 10.7387 1.24939 10.4166L3.08272 8.58324C3.15461 8.51136 3.23701 8.45653 3.32442 8.41673C3.33315 8.41275 3.3415 8.40789 3.35038 8.4042C3.64954 8.2805 4.00696 8.34026 4.25004 8.58324C4.36248 8.69568 4.4354 8.83283 4.46936 8.97712C4.47146 8.98604 4.47381 8.99494 4.47563 9.00397C4.48639 9.0577 4.49173 9.1123 4.49174 9.1669L4.49174 11.0002C4.49174 12.2874 4.8733 13.5456 5.58834 14.6159C6.30347 15.6861 7.32011 16.5206 8.50932 17.0132C9.69852 17.5057 11.0075 17.6349 12.27 17.3838C13.5322 17.1326 14.6918 16.5124 15.6018 15.6024C15.924 15.2804 16.4471 15.2803 16.7692 15.6024Z" fill="white"/>
<path d="M20.75 10.4166C21.0722 10.7387 21.0722 11.2617 20.75 11.5839L18.9167 13.4172C18.8873 13.4466 18.8552 13.472 18.8227 13.496C18.7907 13.5197 18.7578 13.5424 18.7225 13.5613C18.7197 13.5628 18.7171 13.5644 18.7144 13.5658C18.6934 13.5768 18.672 13.5871 18.6499 13.5963C18.6385 13.601 18.6266 13.6046 18.615 13.6088C18.6005 13.6141 18.586 13.6195 18.5712 13.624C18.4406 13.6632 18.3023 13.6687 18.1692 13.6419C18.1311 13.6342 18.0942 13.6234 18.0582 13.6106C18.0182 13.5965 17.9788 13.58 17.941 13.5596C17.846 13.5081 17.7627 13.4384 17.6948 13.3555C17.6655 13.3197 17.6402 13.2818 17.6178 13.2427C17.6141 13.2362 17.6106 13.2296 17.6071 13.223C17.5999 13.2096 17.5928 13.1963 17.5865 13.1827C17.5813 13.1717 17.5759 13.1608 17.5712 13.1496C17.5535 13.1067 17.5403 13.0627 17.5301 13.018C17.5284 13.0105 17.5262 13.0031 17.5247 12.9956C17.514 12.9421 17.5077 12.8879 17.5077 12.8336V11.0002C17.5077 9.71316 17.1261 8.45478 16.4111 7.38459C15.696 6.31446 14.6792 5.47985 13.4901 4.98729C12.301 4.49483 10.9918 4.36559 9.72945 4.61669C8.46723 4.86786 7.30764 5.48811 6.39758 6.3981C6.07539 6.72016 5.55241 6.72024 5.23027 6.3981C4.90866 6.07601 4.90862 5.55374 5.23027 5.23168C6.37114 4.0908 7.82565 3.31393 9.40808 2.99909C10.9904 2.6844 12.6307 2.84555 14.1212 3.4628C15.6118 4.08024 16.8861 5.12643 17.7825 6.46792C18.65 7.76629 19.125 9.28541 19.1548 10.8445L19.5827 10.4166C19.9049 10.0945 20.4279 10.0945 20.75 10.4166Z" fill="white"/>
<path fill-rule="evenodd" clip-rule="evenodd" d="M16.4012 11.2786C16.2564 14.1363 13.8933 16.4089 10.9997 16.4089C8.0128 16.4089 5.59102 13.9871 5.59102 11.0002C5.59111 8.01339 8.01286 5.59157 10.9997 5.59154C13.9866 5.59154 16.4083 8.01337 16.4084 11.0002L16.4012 11.2786ZM8.86739 7.90648C8.10259 8.43456 7.54387 9.23843 7.33394 10.1749L8.48425 10.1749C8.53722 9.34365 8.66909 8.56872 8.86739 7.90648ZM8.86739 14.0931C8.66925 13.431 8.53717 12.6565 8.48425 11.8256H7.33394C7.54376 12.7619 8.1028 13.5649 8.86739 14.0931ZM11.8636 10.1749C11.8016 9.32848 11.647 8.59337 11.4428 8.04882C11.3077 7.68859 11.1664 7.45416 11.0516 7.32461C11.0319 7.30231 11.0138 7.28569 10.9997 7.27269C10.9856 7.2857 10.9676 7.30228 10.9478 7.32461C10.833 7.45416 10.6917 7.68856 10.5566 8.04882C10.3524 8.59334 10.1996 9.32853 10.1377 10.1749H11.8636ZM10.1377 11.8256C10.1996 12.672 10.3524 13.4071 10.5566 13.9516C10.6917 14.3119 10.833 14.5463 10.9478 14.6758C10.9674 14.6979 10.9857 14.7139 10.9997 14.7269C11.0138 14.7139 11.032 14.698 11.0516 14.6758C11.1664 14.5463 11.3077 14.3119 11.4428 13.9516C11.647 13.407 11.8016 12.6721 11.8636 11.8256L10.1377 11.8256ZM14.6664 10.1749C14.4565 9.23857 13.8975 8.4346 13.1329 7.90648C13.3312 8.5687 13.464 9.34369 13.517 10.1749H14.6664ZM13.517 11.8256C13.4641 12.6564 13.331 13.431 13.1329 14.0931C13.8973 13.5649 14.4566 12.7618 14.6664 11.8256H13.517Z" fill="white"/>
</svg>
