<svg width="22" height="22" viewBox="0 0 22 22" fill="none" xmlns="http://www.w3.org/2000/svg">
<path fill-rule="evenodd" clip-rule="evenodd" d="M19.1586 10.8344C19.1585 15.34 15.5056 18.9931 10.9999 18.9931L10.6365 18.9851C6.90035 18.8213 3.81983 16.1449 3.03641 12.6051C2.89283 11.9562 3.29622 11.4693 3.7257 11.2865C4.13124 11.114 4.67553 11.1452 5.07921 11.5183C5.86094 12.2409 6.88746 12.6992 8.02168 12.7537L8.24995 12.7591C10.751 12.7591 12.7938 10.7951 12.9192 8.32522L12.9246 8.08442C12.9245 6.86006 12.4546 5.74756 11.6839 4.91368C11.3108 4.51005 11.2797 3.96567 11.452 3.56017C11.6348 3.13069 12.1218 2.72731 12.7706 2.87088L13.1108 2.95413C16.5928 3.88423 19.1585 7.05803 19.1586 10.8344ZM17.5079 10.8344C17.5078 8.21576 15.9611 5.95713 13.7303 4.92532C14.2672 5.85471 14.5752 6.93417 14.5753 8.08442C14.5752 11.5775 11.7431 14.4098 8.24995 14.4098L7.94111 14.4017C6.90664 14.3519 5.93742 14.0524 5.09175 13.5638C6.08512 15.7121 8.21509 17.2267 10.7099 17.3361L10.9999 17.3424C14.482 17.3424 17.3255 14.608 17.4999 11.1692L17.5079 10.8344Z" fill="white"/>
<path fill-rule="evenodd" clip-rule="evenodd" d="M10.9086 7.16775C10.9086 7.56095 10.6308 7.8998 10.2453 7.977C9.18418 8.18922 8.35476 9.01866 8.14253 10.0798C8.06534 10.4653 7.72649 10.7431 7.33328 10.7431C6.94008 10.7431 6.60123 10.4653 6.52404 10.0798C6.3118 9.01866 5.48238 8.18922 4.42125 7.977C4.03572 7.8998 3.75792 7.56095 3.75792 7.16775C3.75794 6.77456 4.03573 6.4357 4.42126 6.35851C5.48239 6.14628 6.31181 5.31686 6.52404 4.25572L6.56522 4.11697C6.68704 3.80543 6.98913 3.59239 7.33328 3.59239C7.72648 3.59239 8.06533 3.8702 8.14253 4.25572C8.35475 5.31686 9.18418 6.14628 10.2453 6.35851C10.6308 6.4357 10.9086 6.77456 10.9086 7.16775ZM8.13895 7.16775C7.83591 6.93564 7.56535 6.66428 7.33328 6.36119C7.10107 6.66446 6.82999 6.93554 6.52672 7.16775C6.82981 7.39982 7.10117 7.67038 7.33328 7.97342C7.56525 7.67056 7.83609 7.39972 8.13895 7.16775Z" fill="white"/>
</svg>
