<svg width="22" height="22" viewBox="0 0 22 22" fill="none" xmlns="http://www.w3.org/2000/svg">
<path d="M10.9999 8.7015C11.5828 8.7015 12.0576 9.00646 12.417 9.39884L12.5638 9.57251L12.571 9.58057L15.5322 13.4307H15.5313C15.912 13.9123 16.2498 14.487 16.1875 15.1611C16.1251 15.8357 15.6862 16.3525 15.2055 16.7787C15.1803 16.801 15.1535 16.8214 15.1258 16.8405L13.8135 17.7428L14.2288 18.9782L14.2539 19.0668C14.3157 19.352 14.3293 19.6721 14.2172 19.9853C14.0989 20.3156 13.8727 20.5496 13.6165 20.7005C13.1718 20.9624 12.5994 20.9915 12.1637 20.9915H9.85409C9.41339 20.9915 8.85931 20.9431 8.41911 20.6808C8.17668 20.5364 7.94751 20.3145 7.81934 19.9942C7.69334 19.6793 7.69803 19.3531 7.76652 19.0561L7.78621 18.9854L8.19173 17.7419L6.8973 16.8369C6.8799 16.8247 6.86268 16.8119 6.84627 16.7984C6.33304 16.3766 5.88031 15.8544 5.82577 15.1602C5.77298 14.4871 6.11846 13.9096 6.49447 13.4334L9.42708 9.58325C9.43 9.57942 9.43305 9.57539 9.43604 9.57161C9.80897 9.0997 10.3338 8.70161 10.9999 8.7015ZM9.41634 19.3076C9.42023 19.3084 9.42394 19.3105 9.42798 19.3112C9.53733 19.3309 9.67969 19.3416 9.85409 19.3416H12.1637C12.3463 19.3416 12.4907 19.3319 12.6023 19.3166L12.2406 18.2415H9.76457L9.41634 19.3076ZM4.00586 11.1561C4.00584 11.1336 3.99779 11.1115 3.979 11.0925C3.95989 11.0734 3.93719 11.0648 3.91455 11.0648H2.99788C2.97524 11.0648 2.95254 11.0734 2.93343 11.0925C2.91464 11.1115 2.90659 11.1336 2.90658 11.1561V12.0728C2.90658 12.0953 2.91431 12.1181 2.93343 12.1372C2.95255 12.1563 2.97524 12.1641 2.99788 12.1641H3.91455C3.9372 12.1641 3.95989 12.1563 3.979 12.1372C3.99812 12.1181 4.00586 12.0953 4.00586 12.0728V11.1561ZM19.0942 11.1561C19.0941 11.1334 19.0855 11.1107 19.0664 11.0916C19.0474 11.0728 19.0252 11.0649 19.0028 11.0648H18.0862C18.0635 11.0648 18.0408 11.0734 18.0217 11.0925C18.0028 11.1116 17.994 11.1335 17.994 11.1561V12.0728C17.994 12.0953 18.0026 12.1181 18.0217 12.1372C18.0408 12.1562 18.0636 12.1641 18.0862 12.1641H19.0028C19.0252 12.164 19.0474 12.1561 19.0664 12.1372C19.0855 12.1181 19.0942 12.0953 19.0942 12.0728V11.1561ZM10.1835 12.5123V11.3127L7.8068 14.4333C7.80349 14.4377 7.80035 14.4425 7.79696 14.4468C7.47097 14.8574 7.46937 15.0091 7.47111 15.0313C7.47199 15.042 7.48781 15.1856 7.88021 15.5111L9.42619 16.5916H12.5781L14.1402 15.5156C14.5194 15.1731 14.5431 15.0283 14.5448 15.009C14.5463 14.9918 14.5515 14.85 14.2315 14.4468L14.2235 14.4369L11.8342 11.3289V12.5123C11.8342 12.9679 11.4645 13.3376 11.0089 13.3376C10.5533 13.3376 10.1835 12.9679 10.1835 12.5123ZM10.5604 2.65902C10.5378 2.65902 10.5151 2.66673 10.4959 2.68587C10.4768 2.70501 10.4691 2.72772 10.4691 2.75033V3.66699C10.4691 3.68961 10.4768 3.71231 10.4959 3.73145C10.5151 3.75058 10.5378 3.7583 10.5604 3.7583H11.4771C11.4997 3.7583 11.5224 3.75054 11.5415 3.73145C11.5606 3.71233 11.5684 3.68964 11.5684 3.66699V2.75033C11.5684 2.72769 11.5606 2.70499 11.5415 2.68587C11.5224 2.66678 11.4997 2.65902 11.4771 2.65902H10.5604ZM20.744 12.0728C20.744 13.0324 19.9624 13.8146 19.0028 13.8148H18.0862C17.1264 13.8148 16.3442 13.0325 16.3442 12.0728V11.1561C16.3442 10.3335 16.9185 9.64253 17.6869 9.46151C17.3704 6.93331 15.5339 4.88145 13.1188 4.2417C12.8805 4.91991 12.2353 5.40902 11.4771 5.40902H10.5604C9.80047 5.40902 9.1539 4.91782 8.91683 4.23722C6.48446 4.865 4.63021 6.92351 4.31201 9.46151C5.08104 9.64207 5.65654 10.3331 5.65658 11.1561V12.0728C5.65658 13.0325 4.87433 13.8148 3.91455 13.8148H2.99788C2.03812 13.8148 1.25586 13.0325 1.25586 12.0728V11.1561C1.25589 10.3146 1.8573 9.60987 2.65234 9.44897C2.99424 6.03023 5.53041 3.26566 8.82821 2.56234C8.92232 1.69044 9.66414 1.0083 10.5604 1.0083H11.4771C12.3749 1.0083 13.1171 1.69281 13.2092 2.56681C16.4885 3.28435 19.0061 6.04016 19.3466 9.44897C20.1423 9.60936 20.7439 10.3141 20.744 11.1561V12.0728Z" fill="white"/>
</svg>
