<svg width="22" height="22" viewBox="0 0 22 22" fill="none" xmlns="http://www.w3.org/2000/svg">
<path fill-rule="evenodd" clip-rule="evenodd" d="M11.0002 19.1585H19.2502C19.4702 19.1585 19.6718 19.076 19.8277 18.911C19.9927 18.7552 20.0752 18.5535 20.0752 18.3335V9.16685C20.0752 9.06602 20.0568 8.96518 20.0202 8.87352C19.9835 8.78185 19.9377 8.69935 19.8735 8.62602L14.3735 2.20935C14.291 2.11768 14.1993 2.04435 14.0893 1.99852C13.9793 1.94352 13.8693 1.91602 13.7502 1.91602H2.75018C2.52102 1.91602 2.31935 1.99852 2.16352 2.16352C1.99852 2.31935 1.91602 2.52102 1.91602 2.75018V9.16685C1.91602 9.26768 1.93435 9.35935 1.97102 9.46018C2.00768 9.55185 2.06268 9.63435 2.13602 9.71685L6.26102 14.3002L10.386 18.8835C10.4593 18.966 10.551 19.0393 10.661 19.0852C10.771 19.131 10.881 19.1585 11.0002 19.1585ZM18.4252 17.5085H11.3668L7.48018 13.191L3.56602 8.84602V3.57518H13.3652L18.4252 9.46935V17.5085Z" fill="white"/>
</svg>
