<svg width="22" height="22" viewBox="0 0 22 22" fill="none" xmlns="http://www.w3.org/2000/svg">
<path fill-rule="evenodd" clip-rule="evenodd" d="M6.95747 18.92L2.1633 14.1166C1.76913 13.7316 1.76913 13.3375 2.1633 12.9525L12.9525 2.1633C13.3375 1.76913 13.7316 1.76913 14.1166 2.1633L18.9108 6.95747C19.1125 7.14997 19.2041 7.35163 19.2041 7.54413C19.2041 7.73663 19.1125 7.92913 18.9108 8.12163L8.12163 18.92C7.92913 19.1125 7.73663 19.2041 7.54413 19.2041C7.35163 19.2041 7.14997 19.1125 6.95747 18.92ZM3.91413 13.5391L7.54413 17.1691L17.1691 7.54413L13.5391 3.91413L12.0541 5.38997L13.4108 6.74663C13.7408 7.06747 13.7408 7.58997 13.4108 7.9108C13.09 8.2408 12.5766 8.2408 12.2466 7.9108L10.89 6.55413L9.30413 8.13997L10.6608 9.49663C10.9908 9.82663 10.9908 10.34 10.6608 10.6608C10.34 10.9908 9.82663 10.9908 9.49663 10.6608L8.13997 9.30413L6.55413 10.89L7.9108 12.2466C8.2408 12.5766 8.2408 13.09 7.9108 13.4108C7.58997 13.7408 7.06747 13.7408 6.74663 13.4108L5.38997 12.0541L3.91413 13.5391Z" fill="white"/>
</svg>
