<svg width="22" height="22" viewBox="0 0 22 22" fill="none" xmlns="http://www.w3.org/2000/svg">
<path fill-rule="evenodd" clip-rule="evenodd" d="M9.625 2.75C5.82943 2.75 2.75 5.82808 2.75 9.625C2.75 13.4219 5.82943 16.5 9.625 16.5C11.2256 16.5 12.7009 15.9526 13.8682 15.0348L16.833 18.0001C17.1589 18.3266 17.6744 18.3266 18.0003 18.0001C18.3262 17.6733 18.3262 17.16 18.0003 16.8332L15.0354 13.8682C15.9521 12.6995 16.5 11.2262 16.5 9.625C16.5 5.82808 13.4206 2.75 9.625 2.75ZM9.625 4.40005C6.73893 4.40005 4.40071 6.73938 4.40071 9.625C4.40071 12.5106 6.73893 14.85 9.625 14.85C12.511 14.85 14.8493 12.5106 14.8493 9.625C14.8493 6.73938 12.511 4.40005 9.625 4.40005Z" fill="white"/>
</svg>
