<svg width="22" height="22" viewBox="0 0 22 22" fill="none" xmlns="http://www.w3.org/2000/svg">
<path d="M10.4374 2.88028C10.8179 2.85398 11.1986 2.85444 11.5761 2.88118C12.7471 2.96421 13.4613 3.99148 13.4613 5.00276C13.4618 5.78841 14.3122 6.27906 14.993 5.88631C15.8696 5.38019 17.118 5.4865 17.7743 6.46191C17.8791 6.61771 17.9799 6.77778 18.0751 6.94262C18.1703 7.10746 18.2584 7.27526 18.341 7.44392C18.8573 8.49991 18.325 9.63324 17.4485 10.1393C16.7679 10.5325 16.7682 11.515 17.4485 11.9082C18.3243 12.4138 18.8564 13.5461 18.3427 14.6018C18.1772 14.942 17.9873 15.2719 17.7743 15.5883C17.1176 16.5631 15.8704 16.6675 14.9948 16.1621C14.3134 15.7689 13.4615 16.2608 13.4613 17.0474C13.4612 18.0585 12.747 19.087 11.5743 19.1681C11.1937 19.1944 10.8131 19.194 10.4356 19.1672C9.26457 19.0842 8.55034 18.0569 8.55034 17.0456C8.55008 16.2599 7.69948 15.7685 7.01869 16.1612C6.14214 16.6673 4.89458 16.5617 4.23825 15.5865C4.13338 15.4306 4.0327 15.2698 3.93747 15.1049C3.84231 14.9401 3.75322 14.7731 3.67071 14.6045C3.15421 13.5485 3.68662 12.4143 4.5632 11.9082C5.24368 11.515 5.24353 10.5333 4.5632 10.1402C3.68741 9.63457 3.15531 8.50226 3.66892 7.44661C3.8345 7.10631 4.02429 6.77656 4.23736 6.46012C4.8939 5.48513 6.14121 5.38013 7.0169 5.88541C7.69833 6.27884 8.55034 5.78694 8.55034 5.00007C8.55062 3.98917 9.26496 2.96154 10.4374 2.88028ZM11.4597 4.52652C11.1583 4.50517 10.8545 4.50555 10.5511 4.52652C10.4633 4.53265 10.3853 4.57138 10.3201 4.64916C10.2507 4.73216 10.2002 4.8574 10.2002 5.00097C10.1999 7.05774 7.97375 8.34326 6.19243 7.31502C6.0681 7.24323 5.93466 7.22393 5.8281 7.24251C5.7281 7.26004 5.65528 7.30832 5.60609 7.38126C5.43626 7.63347 5.2844 7.89652 5.15223 8.16813C5.11353 8.24768 5.10919 8.33561 5.14418 8.43131C5.18142 8.53293 5.26367 8.63891 5.38767 8.71061C7.16857 9.73881 7.16831 12.3087 5.38767 13.3369C5.26357 13.4086 5.18139 13.5147 5.14418 13.6162C5.10919 13.7119 5.11422 13.7999 5.15313 13.8794C5.21908 14.0142 5.29079 14.1474 5.36708 14.2795C5.44341 14.4117 5.52317 14.5408 5.60699 14.6654C5.6564 14.7387 5.72958 14.7866 5.82989 14.8041C5.93643 14.8227 6.0691 14.8042 6.19333 14.7325C7.97412 13.7045 10.2002 14.9901 10.2002 17.0465C10.2003 17.1897 10.2508 17.3135 10.3201 17.3966C10.3855 17.4749 10.4637 17.5147 10.552 17.521C10.8534 17.5424 11.1572 17.5429 11.4606 17.5219C11.5484 17.5158 11.6263 17.4763 11.6915 17.3984C11.7609 17.3154 11.8115 17.1909 11.8115 17.0474C11.8117 14.9907 14.0379 13.7053 15.8192 14.7334C15.9436 14.8052 16.077 14.8236 16.1836 14.805C16.2836 14.7875 16.3564 14.7401 16.4056 14.6671C16.5755 14.4148 16.7272 14.1512 16.8594 13.8794C16.8981 13.7998 16.9026 13.712 16.8675 13.6162C16.8302 13.5147 16.7479 13.4094 16.624 13.3378C14.8431 12.3096 14.8433 9.73882 16.624 8.71061C16.7482 8.63884 16.8303 8.53291 16.8675 8.43131C16.9024 8.33562 16.8974 8.24853 16.8585 8.16902C16.7925 8.03415 16.7218 7.90018 16.6455 7.76798C16.5691 7.63576 16.4885 7.50764 16.4047 7.38305C16.3553 7.30959 16.2822 7.26096 16.1818 7.2434C16.0753 7.22488 15.9424 7.24345 15.8183 7.31502C14.0376 8.34299 11.8115 7.05828 11.8115 5.00187C11.8114 4.85858 11.7609 4.73404 11.6915 4.65095C11.6262 4.57288 11.5479 4.53278 11.4597 4.52652ZM11.0103 8.6372C12.4803 8.63739 13.6833 9.82146 13.6833 11.2959C13.6832 12.7702 12.4802 13.9544 11.0103 13.9546C9.54028 13.9546 8.33653 12.7703 8.3364 11.2959C8.3364 9.82134 9.54019 8.6372 11.0103 8.6372ZM11.0103 10.2879C10.4386 10.2879 9.98711 10.7454 9.98711 11.2959C9.98725 11.8463 10.4387 12.3039 11.0103 12.3039C11.5817 12.3037 12.0334 11.8462 12.0335 11.2959C12.0335 10.7455 11.5818 10.2881 11.0103 10.2879Z" fill="white"/>
</svg>
