<svg width="22" height="22" viewBox="0 0 22 22" fill="none" xmlns="http://www.w3.org/2000/svg">
<path fill-rule="evenodd" clip-rule="evenodd" d="M19.25 11C19.25 6.435 15.5558 2.75 11 2.75C6.435 2.75 2.75 6.435 2.75 11C2.75 15.5558 6.435 19.25 11 19.25C15.5558 19.25 19.25 15.5558 19.25 11ZM17.545 10.175C17.1417 6.91167 14.3642 4.4 11 4.4C7.35167 4.4 4.39083 7.35167 4.39083 11C4.39083 14.6392 7.35167 17.6 11 17.6C14.3642 17.6 17.1417 15.0792 17.545 11.825H11C10.5325 11.825 10.175 11.4583 10.175 11C10.175 10.5325 10.5325 10.175 11 10.175H17.545Z" fill="white"/>
</svg>
