<svg width="22" height="20" viewBox="0 0 22 20" fill="none" xmlns="http://www.w3.org/2000/svg">
<path fill-rule="evenodd" clip-rule="evenodd" d="M11.8 5.4916L19.1518 11.9242C19.2545 12.0142 19.3457 12.1128 19.4253 12.22C19.5053 12.3277 19.5736 12.4439 19.6303 12.5689C19.687 12.694 19.7296 12.8222 19.7578 12.9535C19.7859 13.0839 19.8 13.2174 19.8 13.3539V18H20.9C21.404 18 21.8 18.396 21.8 18.9C21.8 19.404 21.404 19.8 20.9 19.8H0.9C0.396 19.8 0 19.404 0 18.9C0 18.396 0.396 18 0.9 18H2V13.3539C2 13.2174 2.01405 13.0839 2.04215 12.9535C2.07043 12.8222 2.11295 12.694 2.16971 12.5689C2.22546 12.4459 2.29253 12.3314 2.37092 12.2251C2.45153 12.1159 2.54411 12.0154 2.64866 11.9238L10 5.4916V0.9C10 0.65147 10.0879 0.43934 10.2636 0.2636C10.4393 0.0878699 10.6515 0 10.9 0H14.9C15.1485 0 15.3607 0.0878699 15.5364 0.2636C15.7121 0.43934 15.8 0.65147 15.8 0.9V3.9C15.8 4.14853 15.7121 4.36066 15.5364 4.53639C15.3607 4.71213 15.1485 4.8 14.9 4.8H11.8V5.4916ZM11.8 3H14V1.8H11.8V3ZM3.8 18H7.2763L10.0573 10.584C10.1446 10.3513 10.3013 10.1835 10.5276 10.0807C10.7538 9.9778 10.9833 9.97 11.216 10.0573C11.3377 10.1029 11.4445 10.1717 11.5364 10.2636C11.6283 10.3555 11.6971 10.4623 11.7427 10.584L14.5237 18H18V13.3539C18 13.3388 17.9972 13.3249 17.9915 13.3124C17.9858 13.2997 17.9772 13.2882 17.9656 13.2781L10.9 7.09587L3.83395 13.2785C3.82298 13.2881 3.81466 13.299 3.80901 13.3111C3.803 13.3239 3.8 13.3382 3.8 13.3539V18ZM12.6013 18L10.9 13.4632L9.1987 18H12.6013Z" fill="white"/>
</svg>
