<svg width="22" height="22" viewBox="0 0 22 22" fill="none" xmlns="http://www.w3.org/2000/svg">
<path d="M10.9998 12.9246C11.0456 12.9246 11.0904 12.9291 11.1341 12.9363C11.1439 12.9379 11.1539 12.9388 11.1637 12.9408C11.2535 12.9589 11.3376 12.9927 11.4143 13.0374C11.4754 13.0729 11.5327 13.1155 11.5835 13.1663L13.4168 14.9997C13.739 15.3219 13.739 15.8448 13.4168 16.167C13.0946 16.4892 12.5717 16.4892 12.2495 16.167L11.8252 15.7427V19.7083C11.8252 20.164 11.4555 20.5337 10.9998 20.5337C10.5442 20.5337 10.1745 20.164 10.1745 19.7083V15.7427L9.75016 16.167C9.42798 16.4892 8.90503 16.4892 8.58285 16.167C8.26066 15.8448 8.26066 15.3219 8.58285 14.9997L10.4162 13.1663L10.4771 13.1117C10.4794 13.1098 10.4819 13.1082 10.4842 13.1064C10.5534 13.0509 10.6313 13.0058 10.7161 12.9748C10.7191 12.9737 10.722 12.9723 10.725 12.9712C10.766 12.9567 10.8085 12.946 10.8521 12.9381C10.8575 12.9371 10.8629 12.9363 10.8682 12.9354C10.9111 12.9285 10.955 12.9246 10.9998 12.9246ZM14.6665 2.84131C15.1221 2.84131 15.4919 3.21103 15.4919 3.66667V4.75163C16.118 4.86797 16.6984 5.11348 17.2043 5.46061L18.2078 4.45801C18.53 4.13583 19.053 4.13583 19.3752 4.45801C19.6973 4.78019 19.6973 5.30314 19.3752 5.62533L18.3717 6.62793C18.7192 7.13409 18.9651 7.71473 19.0815 8.34131H20.1665C20.6221 8.34131 20.9919 8.71103 20.9919 9.16667C20.9919 9.6223 20.6221 9.99202 20.1665 9.99202H19.0824C19.0534 10.1479 19.0144 10.3005 18.9696 10.4504C20.2024 11.4417 20.9919 12.9618 20.9919 14.6667C20.9919 17.6536 18.5701 20.0754 15.5832 20.0754C15.1275 20.0754 14.7578 19.7056 14.7578 19.25C14.7578 18.7944 15.1275 18.4246 15.5832 18.4246C17.6588 18.4246 19.3411 16.7423 19.3411 14.6667C19.3411 12.591 17.6588 10.9087 15.5832 10.9087C15.1722 10.9087 14.7782 10.9747 14.4096 11.0958C14.0032 11.2293 13.562 11.0296 13.3936 10.6366C12.539 8.63912 10.5565 7.24202 8.24984 7.24202C5.16165 7.24202 2.65853 9.74514 2.65853 12.8333C2.65853 15.3652 4.3416 17.5061 6.65194 18.1937C7.08856 18.3237 7.33691 18.7829 7.20695 19.2196C7.07697 19.6562 6.61776 19.9045 6.18107 19.7746C3.19045 18.8844 1.00781 16.115 1.00781 12.8333C1.00781 8.83387 4.25038 5.59131 8.24984 5.59131C8.70781 5.59131 9.15567 5.63442 9.58993 5.71574L9.49951 5.62533C9.17733 5.30314 9.17733 4.78019 9.49951 4.45801C9.8217 4.13583 10.3446 4.13583 10.6668 4.45801L11.8646 5.65576C12.4281 5.20547 13.103 4.88975 13.8411 4.75252V3.66667C13.8411 3.21103 14.2109 2.84131 14.6665 2.84131ZM14.6665 6.32536C13.902 6.32536 13.2085 6.62802 12.6971 7.12028C13.4718 7.72471 14.1211 8.48227 14.5976 9.34839C14.9175 9.28934 15.2469 9.25798 15.5832 9.25798C16.2483 9.25798 16.8852 9.37848 17.4738 9.59814C17.4952 9.45756 17.5078 9.31365 17.5078 9.16667C17.5078 7.59726 16.2359 6.32536 14.6665 6.32536Z" fill="white"/>
</svg>
