<svg width="22" height="22" viewBox="0 0 22 22" fill="none" xmlns="http://www.w3.org/2000/svg">
<path d="M2.75016 14.7581C3.2058 14.7581 3.57552 15.1278 3.57552 15.5834V17.4167C3.57552 17.9736 4.02661 18.4247 4.5835 18.4247H6.41683C6.87246 18.4247 7.24219 18.7944 7.24219 19.2501C7.24219 19.7057 6.87246 20.0754 6.41683 20.0754H4.5835C3.11534 20.0754 1.9248 18.8849 1.9248 17.4167V15.5834C1.9248 15.1278 2.29453 14.7581 2.75016 14.7581Z" fill="white"/>
<path d="M19.2502 14.7581C19.7058 14.7581 20.0755 15.1278 20.0755 15.5834V17.4167C20.0755 18.8849 18.885 20.0754 17.4168 20.0754H15.5835C15.1279 20.0754 14.7581 19.7057 14.7581 19.2501C14.7581 18.7944 15.1279 18.4247 15.5835 18.4247H17.4168C17.9737 18.4247 18.4248 17.9736 18.4248 17.4167V15.5834C18.4248 15.1278 18.7945 14.7581 19.2502 14.7581Z" fill="white"/>
<path d="M11.9177 18.4238C12.373 18.4241 12.7428 18.7939 12.7431 19.2492C12.7431 19.7047 12.3732 20.0743 11.9177 20.0745H10.0844C9.62876 20.0745 9.25903 19.7048 9.25903 19.2492C9.25927 18.7938 9.6289 18.4238 10.0844 18.4238H11.9177Z" fill="white"/>
<path fill-rule="evenodd" clip-rule="evenodd" d="M14.2085 5.59139C15.4235 5.59139 16.4089 6.57672 16.4089 7.79175C16.4089 9.00677 15.4235 9.99211 14.2085 9.99211C13.9035 9.99211 13.6132 9.92974 13.3491 9.81755L9.81763 13.349C9.92982 13.6131 9.99219 13.9035 9.99219 14.2084C9.99219 15.4234 9.00686 16.4088 7.79183 16.4088C6.5768 16.4088 5.59147 15.4234 5.59147 14.2084C5.59147 12.9934 6.5768 12.0081 7.79183 12.0081C8.09637 12.0081 8.38653 12.0698 8.65031 12.1817L12.1818 8.65112C12.0697 8.38714 12.0081 8.09658 12.0081 7.79175C12.0081 6.57672 12.9935 5.59139 14.2085 5.59139ZM7.79183 13.6588C7.48807 13.6588 7.24219 13.9047 7.24219 14.2084C7.24219 14.5122 7.48807 14.7581 7.79183 14.7581C8.09559 14.7581 8.34147 14.5122 8.34147 14.2084C8.34147 13.9047 8.09559 13.6588 7.79183 13.6588ZM14.2085 7.24211C13.9047 7.24211 13.6589 7.48799 13.6589 7.79175C13.6589 8.0955 13.9047 8.34139 14.2085 8.34139C14.5123 8.34139 14.7581 8.0955 14.7581 7.79175C14.7581 7.48799 14.5123 7.24211 14.2085 7.24211Z" fill="white"/>
<path d="M2.75016 9.25806C3.2058 9.25806 3.57552 9.62778 3.57552 10.0834V11.9167C3.57552 12.3724 3.2058 12.7421 2.75016 12.7421C2.29453 12.7421 1.9248 12.3724 1.9248 11.9167V10.0834C1.9248 9.62778 2.29453 9.25806 2.75016 9.25806Z" fill="white"/>
<path d="M19.2502 9.25806C19.7058 9.25806 20.0755 9.62778 20.0755 10.0834V11.9167C20.0755 12.3724 19.7058 12.7421 19.2502 12.7421C18.7945 12.7421 18.4248 12.3724 18.4248 11.9167V10.0834C18.4248 9.62778 18.7945 9.25806 19.2502 9.25806Z" fill="white"/>
<path d="M6.41683 1.92472C6.87246 1.92472 7.24219 2.29445 7.24219 2.75008C7.24219 3.20572 6.87246 3.57544 6.41683 3.57544H4.5835C4.02661 3.57544 3.57552 4.02653 3.57552 4.58341V6.41675C3.57552 6.87238 3.2058 7.24211 2.75016 7.24211C2.29453 7.24211 1.9248 6.87238 1.9248 6.41675V4.58341C1.9248 3.11526 3.11534 1.92472 4.5835 1.92472H6.41683Z" fill="white"/>
<path d="M17.4168 1.92472C18.885 1.92472 20.0755 3.11526 20.0755 4.58341V6.41675C20.0755 6.87238 19.7058 7.24211 19.2502 7.24211C18.7945 7.24211 18.4248 6.87238 18.4248 6.41675V4.58341C18.4248 4.02653 17.9737 3.57544 17.4168 3.57544H15.5835C15.1279 3.57544 14.7581 3.20572 14.7581 2.75008C14.7581 2.29445 15.1279 1.92472 15.5835 1.92472H17.4168Z" fill="white"/>
<path d="M11.9177 1.92383C12.3732 1.92407 12.7431 2.2946 12.7431 2.75008C12.7428 3.20536 12.373 3.5752 11.9177 3.57544H10.0844C9.62891 3.57544 9.25928 3.20551 9.25903 2.75008C9.25903 2.29445 9.62876 1.92383 10.0844 1.92383H11.9177Z" fill="white"/>
</svg>
