<svg xmlns="http://www.w3.org/2000/svg" viewBox="0 0 16 16">
  <path d="M13 0a1 1 0 0 0-1 1v1h-1a1 1 0 1 0 0 2h1v1a1 1 0 1 0 2 0V4h1a1 1 0 1 0 0-2h-1V1a1 1 0 0 0-1-1M8.765 1A3 3 0 0 0 8 3c0 .769.29 1.47.765 2H2v8h12V7.827a3 3 0 0 0 1.87-1.957l.001.001.129.425V14c0 .55-.45 1-1 1H1c-.55 0-1-.45-1-1V2c0-.55.45-1 1-1zM8.5 10c.28 0 .5.22.5.5s-.22.5-.5.5h-5c-.28 0-.5-.22-.5-.5s.22-.5.5-.5zm-1-2c.28 0 .5.22.5.5s-.22.5-.5.5h-4c-.28 0-.5-.22-.5-.5s.22-.5.5-.5zm2.674-2c.124.35.31.67.547.947A.5.5 0 0 1 10.5 7h-7c-.28 0-.5-.22-.5-.5s.22-.5.5-.5z"/>
</svg>
