<svg xmlns="http://www.w3.org/2000/svg" viewBox="0 0 16 16">
  <path d="M2.1 9.101a4 4 0 0 0-1.828.974A8 8 0 0 1 10.075.272 4 4 0 0 0 9.1 2.1a6 6 0 0 0-7 7M14 8a6 6 0 0 0-.1-1.101 4 4 0 0 0 1.828-.974 8 8 0 0 1-9.803 9.803A4 4 0 0 0 6.9 13.9q.535.1 1.1.1a6 6 0 0 0 6-6M8 3a1 1 0 0 0-1 1v2a1 1 0 0 0 2 0V4a1 1 0 0 0-1-1m1 5a1 1 0 0 1 1-1h2a1 1 0 0 1 0 2h-2a1 1 0 0 1-1-1M3 8a1 1 0 0 1 1-1h2a1 1 0 0 1 0 2H4a1 1 0 0 1-1-1m4 2a1 1 0 0 1 2 0v2a1 1 0 0 1-2 0zm-2 3a2 2 0 1 1-4 0 2 2 0 0 1 4 0m8-8a2 2 0 1 0 0-4 2 2 0 0 0 0 4"/>
</svg>
