<svg xmlns="http://www.w3.org/2000/svg" viewBox="0 0 16 16">
  <path d="M4 0a1 1 0 0 1 .117 1.993L4 2H2v12h2a1 1 0 0 1 .993.883L5 15a1 1 0 0 1-.883.993L4 16H1a1 1 0 0 1-.993-.883L0 15V1A1 1 0 0 1 .883.007L1 0zm11 0a1 1 0 0 1 .993.883L16 1v14a1 1 0 0 1-.883.993L15 16h-3a1 1 0 0 1-.117-1.993L12 14h2V2h-2a1 1 0 0 1-.993-.883L11 1a1 1 0 0 1 .883-.993L12 0zM6.5 3c-.646 0-1.151.205-1.416.725-.117.23-.16.477-.176.692a5 5 0 0 0-.001.622c.017.421.028 1.808-.04 2.024a.5.5 0 0 1-.126.214.8.8 0 0 1-.362.184C4.156 7.523 4 7.745 4 8s.156.477.379.539a.8.8 0 0 1 .362.184.5.5 0 0 1 .126.214c.068.216.057 1.603.04 2.024a5 5 0 0 0 0 .622c.017.215.06.461.177.692.265.52.77.725 1.416.725.276 0 .5-.249.5-.556 0-.306-.224-.555-.5-.555-.467 0-.533-.135-.544-.159l-.001-.001a.7.7 0 0 1-.051-.24 4 4 0 0 1 .005-.558c.015-.34.036-1.93-.097-2.358A1.6 1.6 0 0 0 5.505 8c.146-.174.244-.371.307-.573.133-.427.112-2.017.097-2.358l-.003-.08a4 4 0 0 1-.002-.478.7.7 0 0 1 .05-.24l.002-.001c.011-.024.077-.159.544-.159.276 0 .5-.249.5-.555S6.776 3 6.5 3m3 0c.646 0 1.152.205 1.416.725.117.23.16.477.176.692.017.213.009.434.001.622-.017.421-.027 1.808.04 2.024.027.09.067.157.126.214.063.06.17.13.362.184.223.062.379.284.379.539s-.156.477-.379.539a.8.8 0 0 0-.362.184.5.5 0 0 0-.126.214c-.067.216-.057 1.603-.04 2.024.008.188.016.409 0 .622-.017.215-.06.461-.177.692-.264.52-.77.725-1.416.725-.276 0-.5-.249-.5-.556 0-.306.224-.555.5-.555.467 0 .533-.135.544-.159l.001-.001a.7.7 0 0 0 .051-.24c.01-.132.006-.284-.002-.478l-.003-.08c-.015-.34-.036-1.93.097-2.358A1.6 1.6 0 0 1 10.495 8a1.6 1.6 0 0 1-.307-.573c-.133-.427-.112-2.017-.097-2.358l.003-.08c.008-.194.012-.346.002-.478a.7.7 0 0 0-.05-.24l-.002-.001c-.011-.024-.077-.159-.544-.159-.276 0-.5-.249-.5-.555S9.224 3 9.5 3"/>
</svg>
