<svg xmlns="http://www.w3.org/2000/svg" viewBox="0 0 16 16">
  <path d="M11 1C9.34 1 8 2.34 8 4c0 1.25.76 2.32 1.85 2.77A2.02 2.02 0 0 1 8 8H6c-.73 0-1.41.2-2 .55V5.82C5.16 5.4 6 4.3 6 3c0-1.66-1.34-3-3-3S0 1.34 0 3c0 1.3.84 2.4 2 2.82v4.37c-1.16.4-2 1.51-2 2.81 0 1.66 1.34 3 3 3s3-1.34 3-3c0-1.04-.53-1.95-1.32-2.49.35-.31.81-.51 1.32-.51h2c1.92 0 3.52-1.35 3.91-3.15A2.996 2.996 0 0 0 11 1M3 2c.55 0 1 .45 1 1s-.45 1-1 1-1-.45-1-1 .45-1 1-1m0 12c-.55 0-1-.45-1-1s.45-1 1-1 1 .45 1 1-.45 1-1 1m8-9c-.55 0-1-.45-1-1s.45-1 1-1 1 .45 1 1-.45 1-1 1m2.5 8a.5.5 0 0 1 .5.5v2a.5.5 0 0 1-.5.5h-5a.5.5 0 0 1-.5-.5v-2a.5.5 0 0 1 .5-.5H9v-1c0-.636.244-1.15.637-1.499a2.05 2.05 0 0 1 1.363-.5c.481 0 .98.159 1.363.5.393.35.637.864.637 1.5v1zM12 13v-1c0-.364-.132-.6-.3-.75A1.06 1.06 0 0 0 11 11c-.268 0-.52.09-.7.25-.168.15-.3.386-.3.75v1z"/>
</svg>
