<svg xmlns="http://www.w3.org/2000/svg" viewBox="0 0 16 16">
  <path d="M6.827 13.886Q7.394 13.999 8 14v2a8 8 0 0 1-1.56-.154zm2.733 1.96Q8.802 15.998 8 16v-2q.606-.002 1.173-.114zm-6.55-4.514a6 6 0 0 0 1.658 1.659l-.557.83-.395.59-.161.24a8 8 0 0 1-2.207-2.206zm11.635 1.109.006.003a8 8 0 0 1-2.206 2.207l-.557-.83-.556-.83a6 6 0 0 0 1.659-1.659zM0 8q.002-.803.153-1.56l.98.193.981.194a6 6 0 0 0 0 2.346l-.981.193v.001l-.98.193A8 8 0 0 1 0 8m16 0q-.002.802-.154 1.56l-.98-.193-.98-.194a6 6 0 0 0 0-2.346l1.96-.388Q15.998 7.198 16 8M4.112 2.178l.556.831a6 6 0 0 0-1.659 1.659L1.35 3.555a8 8 0 0 1 2.206-2.207zm8.333-.83a8 8 0 0 1 2.206 2.207l-.83.557V4.11l-.83.557a6 6 0 0 0-1.659-1.659zM8 0q.802.002 1.56.153l-.387 1.961a6 6 0 0 0-2.346 0L6.439.154A8 8 0 0 1 8 0"/>
</svg>
