<svg xmlns="http://www.w3.org/2000/svg" viewBox="0 0 16 16">
  <path d="M5 0a1 1 0 0 1 1 1v2h4V1a1 1 0 0 1 2 0v2h2.038c.216 0 .453 0 .65.022.202.022.584.086.894.396s.374.692.396.893c.022.198.022.435.022.65v4.077c0 .216 0 .453-.022.65-.022.202-.085.584-.396.894-.31.31-.692.374-.893.396a6 6 0 0 1-.65.022H12v4a1 1 0 1 1-2 0v-4H6v4a1 1 0 1 1-2 0v-4H1.962c-.216 0-.453 0-.65-.022-.202-.022-.584-.086-.894-.396S.044 9.89.022 9.69A6 6 0 0 1 0 9V4.962c0-.216 0-.453.022-.65.022-.202.086-.584.396-.894s.692-.374.893-.396C1.51 3 1.746 3 1.961 3H4V1a1 1 0 0 1 1-1m0 5h-.882l1.776 3.553.224.447h1.764L6.106 5.447 5.882 5zm3.118 0 1.776 3.553.224.447h1.764l-1.776-3.553L9.882 5zm4 0 1.776 3.553.106.211V5zM3.882 9 2.106 5.447 2 5.237V9z"/>
</svg>
