<svg xmlns="http://www.w3.org/2000/svg" viewBox="0 0 16 16">
  <path d="m11.5 1 .916 2.584L15 4.5l-2.584.916L11.5 8l-.916-2.584L8 4.5l2.584-.916zM8 .5a7 7 0 0 1 1.983.286L9.41 2.41l-.496.175a5 5 0 1 0 3.967 6q.018-.04.034-.083l.676-1.911 1.276-.452Q14.998 6.8 15 7.5c0 1.903-.76 3.629-1.993 4.89.302.275.493.67.493 1.11 0 .996-.77 1.515-1.05 1.68-.381.226-.832.376-1.258.482C10.318 15.881 9.19 16 8 16s-2.318-.12-3.192-.338c-.426-.106-.877-.257-1.257-.481-.28-.166-1.051-.685-1.051-1.681 0-.44.19-.835.492-1.11A7 7 0 0 1 8 .5M8 6l.51 1.49L10 8l-1.49.51L8 10l-.51-1.49L6 8l1.49-.51z"/>
</svg>
