<svg xmlns="http://www.w3.org/2000/svg" viewBox="0 0 16 16">
  <path d="M12 4c-.03 0-.07 0-.1.01A5 5 0 0 0 2 5c0 .11.01.22.02.33A3.51 3.51 0 0 0 0 8.5C0 10.43 1.57 12 3.5 12H7V9c0-.71.551-1.1.806-1.25.32-.19.719-.326 1.123-.427C9.753 7.117 10.839 7 12 7s2.247.117 3.071.323c.32.08.636.182.913.315A4 4 0 0 0 12 4m0 6.5c1.133 0 2.176-.114 2.95-.308.383-.096.728-.218.99-.372l.06-.037V12c0 .552-1.79 1-4 1s-4-.448-4-1V9.783l.06.037c.262.154.607.276.99.372.774.194 1.817.308 2.95.308m3.94 2.32.06-.037V15c0 .552-1.79 1-4 1s-4-.448-4-1v-2.217l.06.037c.262.154.607.276.99.372.774.194 1.817.308 2.95.308s2.176-.114 2.95-.308c.383-.096.728-.218.99-.372M8 9c0 .552 1.79 1 4 1s4-.448 4-1-1.79-1-4-1-4 .448-4 1"/>
</svg>
