<svg xmlns="http://www.w3.org/2000/svg" viewBox="0 0 16 16">
  <path d="M10.127.102c.516-.46 1.696.718 2.626 1.93Q12.873 2 13 2a1 1 0 0 1 .976 1.219c1.236.965 2.421 2.212 1.897 2.68-.515.46-1.694-.72-2.625-1.931a1 1 0 0 1-.521-.007.82.82 0 0 1-.152.608c-2.432 3.26-2.433 3.602 0 6.863a.82.82 0 0 1 .152.606 1 1 0 0 1 .491-.014c.965-1.236 2.213-2.42 2.68-1.897.46.516-.718 1.695-1.93 2.625a1 1 0 0 1-1.187 1.224c-.964 1.236-2.212 2.421-2.68 1.897-.458-.516.72-1.695 1.931-2.625a1 1 0 0 1 .006-.521.82.82 0 0 1-.606-.153c-3.26-2.432-3.602-2.432-6.862 0a.82.82 0 0 1-.609.153 1 1 0 0 1 .015.492c1.237.965 2.421 2.212 1.897 2.68-.515.46-1.694-.72-2.625-1.931Q3.13 13.999 3 14a1 1 0 0 1-.975-1.219C.788 11.816-.397 10.57.127 10.101c.516-.46 1.696.719 2.626 1.93a1 1 0 0 1 .52.007.82.82 0 0 1 .153-.606c2.432-3.261 2.432-3.602 0-6.863a.82.82 0 0 1-.152-.608 1 1 0 0 1-.493.015C1.817 5.212.57 6.397.101 5.873c-.458-.516.72-1.695 1.931-2.625a1 1 0 0 1 1.186-1.224C4.183.788 5.431-.396 5.898.127c.46.516-.718 1.695-1.93 2.625a1 1 0 0 1-.007.521c.21-.03.429.019.609.153 3.26 2.432 3.601 2.432 6.862 0a.82.82 0 0 1 .606-.153 1 1 0 0 1-.013-.492C10.788 1.816 9.603.57 10.127.101"/>
</svg>
