<svg xmlns="http://www.w3.org/2000/svg" viewBox="0 0 16 16">
  <path d="M6.533 0H.467A.47.47 0 0 0 0 .467v4.066C0 4.79.243 5 .5 5h2.609l1.693 1.865a.468.468 0 0 0 .798-.331V5h.933C6.79 5 7 4.79 7 4.533V.467A.47.47 0 0 0 6.533 0m7.017 13.468c.93.378 1.98.805 2.236 1.39.285.65.208 1.06.194 1.131l-.001.01H5.027s-.131-.426.186-1.148c.256-.585 1.305-1.012 2.236-1.39.219-.09.431-.176.625-.26.904-.4.918-.662.935-.979l.008-.116.003-.072q.004-.036.004-.072a3.1 3.1 0 0 1-.84-1.239l-.006-.006q0-.006-.004-.01l-.003-.011a3 3 0 0 1-.103-.337c-.241-.041-.379-.296-.434-.537-.048-.096-.158-.33-.138-.591.035-.351.18-.51.344-.571v-.055c0-.44.035-1.067.117-1.48a2.56 2.56 0 0 1 .956-1.623C9.348 5.172 9.96 5 10.504 5c.543 0 1.156.179 1.596.502a2.53 2.53 0 0 1 .956 1.624c.076.412.117 1.045.117 1.479v.062c.151.062.29.22.323.564a1.1 1.1 0 0 1-.137.598c-.048.234-.186.489-.42.537-.027.11-.062.227-.103.33a3.1 3.1 0 0 1-.832 1.259q-.002.084.006.158.006.072.008.139c.01.306.02.565.908.955.193.085.406.172.625.26"/>
</svg>
