<svg xmlns="http://www.w3.org/2000/svg" viewBox="0 0 16 16">
  <path d="m12.21 7.29-2.5-2.5a1.003 1.003 0 0 0-1.42 1.42l.8.79H4.5c-.55 0-1 .45-1 1s.45 1 1 1h4.59l-.79.79c-.19.18-.3.43-.3.71a1.003 1.003 0 0 0 1.71.71l2.5-2.5c.18-.18.29-.43.29-.71s-.11-.53-.29-.71M13 14h3v2h-3c-1.1 0-2-.9-2-2v-2.67l1.92-1.91c.03-.03.05-.06.08-.09zm3-12h-3v4.67c-.03-.03-.05-.06-.08-.09L11 4.67V2c0-1.1.9-2 2-2h3zM3 9.32c.37.41.9.68 1.5.68H5v4c0 1.1-.9 2-2 2H0v-2h3zM3 0c1.1 0 2 .9 2 2v4h-.5c-.6 0-1.13.26-1.5.68V2H0V0z"/>
</svg>
