<svg xmlns="http://www.w3.org/2000/svg" viewBox="0 0 16 16">
  <path d="M6.788.915A3.121 3.121 0 0 0 1.801 4.54H1a1 1 0 0 0-1 1v2a1 1 0 0 0 1 1h14a1 1 0 0 0 1-1v-2a1 1 0 0 0-1-1h-.8A3.122 3.122 0 0 0 9.211.915l-1 .999q-.11.11-.212.23a4 4 0 0 0-.213-.23zm5.424 3-.626.626H9.02a2.14 2.14 0 0 1 .606-1.213l.999-1a1.121 1.121 0 1 1 1.586 1.587m-5.233.626H4.414l-.626-.626a1.121 1.121 0 1 1 1.586-1.586l1 1c.329.329.54.755.605 1.212M6 9.54H1v5a1 1 0 0 0 1 1h4zm9 0h-5v6h4a1 1 0 0 0 1-1zm-8 0h2v6H7z"/>
</svg>
