<svg xmlns="http://www.w3.org/2000/svg" viewBox="0 0 16 16">
  <path d="M3 1a2.998 2.998 0 0 1 1 5.825V10c0 .51.159.705.266.794.139.116.383.206.734.206h1.586l-.793-.793a1 1 0 0 1 1.414-1.414l2.5 2.5.064.071a1 1 0 0 1 .205.415l.014.083q.007.045.009.09v.096l-.006.052a1 1 0 0 1-.181.482l-.037.049-.068.076-2.5 2.5a1 1 0 0 1-1.414-1.414L6.586 13H5c-.649 0-1.405-.16-2.016-.669C2.341 11.795 2 10.991 2 10V6.825A2.998 2.998 0 0 1 3 1M8.793.793a1 1 0 1 1 1.414 1.414L9.414 3H11c.649 0 1.405.16 2.016.669.643.536.984 1.34.984 2.331v3.174A2.998 2.998 0 0 1 13 15a3 3 0 0 1-1-5.826V6c0-.51-.159-.705-.266-.794C11.595 5.09 11.351 5 11 5H9.414l.793.793a1 1 0 1 1-1.414 1.414l-2.5-2.5a1 1 0 0 1-.287-.607L6 4.048V3.95q.002-.045.009-.089l.014-.083a1 1 0 0 1 .204-.416l.065-.07zM13 11a1 1 0 1 0 0 2 1 1 0 0 0 0-2M3 3a1 1 0 1 0 0 2 1 1 0 0 0 0-2"/>
</svg>
