<svg xmlns="http://www.w3.org/2000/svg" viewBox="0 0 16 16">
  <path d="M6.693 5a2.4 2.4 0 0 0 .767 1H6.12C6.05 6.61 6 7.27 6 8s.05 1.39.12 2h3.76a18 18 0 0 0 .111-1.472 2.4 2.4 0 0 0 .964.76q-.026.365-.065.712h2.76c.159-.454.27-.93.32-1.422A2.53 2.53 0 0 0 14.5 7v-.5h.5c.28 0 .563-.042.834-.131q.165.79.166 1.631c0 4.42-3.58 8-8 8s-8-3.58-8-8A7.998 7.998 0 0 1 9.631.166 2.7 2.7 0 0 0 9.5 1v.5H9C7.476 1.5 6.5 2.77 6.5 4v.048q-.13.435-.23.952zM5.27 5c.2-1.11.51-2.03.91-2.69A6.03 6.03 0 0 0 2.83 5zM2.35 6C2.13 6.63 2 7.3 2 8s.13 1.37.35 2h2.76C5.04 9.38 5 8.72 5 8s.04-1.38.11-2zm2.92 5H2.83a6.03 6.03 0 0 0 3.35 2.69c-.4-.66-.7-1.58-.91-2.69m1 0c.37 1.9 1.06 3 1.73 3s1.36-1.1 1.73-3zm4.46 0c-.21 1.11-.51 2.03-.91 2.69A6.03 6.03 0 0 0 13.17 11zM9 5c-.6 0-1-.4-1-1 0-.5.4-1 1-1h2V1c0-.6.4-1 1-1s1 .4 1 1v2h2c.6 0 1 .4 1 1s-.4 1-1 1h-2v2c0 .6-.4 1-1 1s-1-.4-1-1V5z"/>
</svg>
