<svg xmlns="http://www.w3.org/2000/svg" viewBox="0 0 16 16">
  <path d="M14 2a2 2 0 0 1 2 2v8a2 2 0 0 1-2 2H2a2 2 0 0 1-2-2V4a2 2 0 0 1 2-2zM8 5.848c0-.693-.875-.943-1.257-.427l-.07.113L5.5 7.882 4.326 5.534l-.07-.113C3.877 4.905 3 5.155 3 5.848V10.5a.5.5 0 0 0 1 0V7.118l.605 1.211a1 1 0 0 0 1.79 0L7 7.12v3.38a.5.5 0 0 0 1 0zM11.5 5a.5.5 0 0 0-.5.5v3.793l-.646-.647-.079-.064a.5.5 0 0 0-.693.693l.064.079 1.43 1.43a.6.6 0 0 0 .848 0l1.43-1.43a.5.5 0 1 0-.707-.708L12 9.293V5.5a.5.5 0 0 0-.5-.5"/>
</svg>
