<svg xmlns="http://www.w3.org/2000/svg" viewBox="0 0 16 16">
  <path d="M3 0h8c.55 0 1 .45 1 1v.598A5.5 5.5 0 0 0 9.5 1a5.49 5.49 0 0 0-4.246 2H4v9h6v-.023a5.4 5.4 0 0 0 1.705-.447l.295.294V15c0 .55-.45 1-1 1H3c-.55 0-1-.45-1-1V1c0-.55.45-1 1-1m3 14c0 .55.45 1 1 1s1-.45 1-1-.45-1-1-1-1 .45-1 1m5.89-3.7a4.5 4.5 0 0 1-2.39.7C7.01 11 5 8.99 5 6.5A4.49 4.49 0 0 1 6.668 3C7.44 2.374 8.425 2 9.5 2A4.49 4.49 0 0 1 14 6.5c0 .88-.26 1.69-.7 2.39l2.41 2.4A1.003 1.003 0 0 1 15 13c-.28 0-.53-.11-.7-.29zM12 6.5a2.5 2.5 0 1 0-5.002 0A2.5 2.5 0 0 0 12 6.5"/>
</svg>
