<svg xmlns="http://www.w3.org/2000/svg" viewBox="0 0 16 16">
  <path d="M2.477 7.618c.275.55-.263 1.505-.879 2.6-.634 1.126-1.35 2.4-1.35 3.53 0 .18.19.34.349.442.132.085.29.116.446.116h2.875a.79.79 0 0 0 .788-.789c0-.209.083-.41.231-.557l.13-.13a.67.67 0 0 0 .197-.475c0-.178.07-.35.197-.476l.081-.081a.95.95 0 0 0 .279-.673v-.163c0-.308.25-.558.557-.558h2.787c.615 0 1.114-.499 1.114-1.114V8.175c0-.616.5-1.115 1.115-1.115h3.344c.616 0 1.115-.499 1.115-1.114v-.894c0-.066.026-.13.073-.175A.24.24 0 0 0 16 4.702v-.394a.36.36 0 0 0-.074-.217.36.36 0 0 1-.073-.217v-.158a.557.557 0 0 0-.558-.557h-.278a.28.28 0 0 1-.279-.278.28.28 0 0 0-.279-.28h-.115a.4.4 0 0 0-.279.116l-.163.164a.95.95 0 0 1-.673.278H2.708a.56.56 0 0 1-.394-.163.557.557 0 0 0-.788 0 .56.56 0 0 1-.395.163H.805a.557.557 0 0 0-.557.557v1.967c0 .173-.042.342-.106.503-.128.328-.284.874.106.874q.136 0 .319-.012c.628-.033 1.583-.083 1.91.57m3.657 2.229a.244.244 0 0 1-.237-.304l.24-.962c.035-.14.241-.115.241.03 0 .067.055.121.122.121h.351q.084.001.155.047l.442.295c.254.17.556-.133.387-.386l-.295-.443a.3.3 0 0 1-.047-.154v-.195c0-.154.125-.278.279-.278h1.277c.074 0 .145.03.197.081l.15.15c.209.209.326.492.326.788v.537c0 .074-.03.145-.081.197l-.15.15a1.12 1.12 0 0 1-.788.326zM1.81 5h12.9a.25.25 0 0 1 .207.389l-.167.25a.25.25 0 0 1-.208.111H1.644a.25.25 0 0 1-.208-.389l.167-.25A.25.25 0 0 1 1.811 5"/>
</svg>
