<svg xmlns="http://www.w3.org/2000/svg" viewBox="0 0 16 16">
  <path d="M5 10a1 1 0 1 1 0 2h-.586c.884.666 2.169 1 3.586 1 .646 0 1.262-.125 1.828-.348l1.505 1.505A7 7 0 0 1 8 15c-1.72 0-3.62-.416-5-1.567V14a1 1 0 1 1-2 0v-3a1 1 0 0 1 1-1zm9-3a1 1 0 0 1 1 1 7 7 0 0 1-.84 3.326l-1.505-1.504A5 5 0 0 0 13 8a1 1 0 0 1 1-1M3.347 6.17A5 5 0 0 0 3 8a1 1 0 0 1-2 0 7 7 0 0 1 .842-3.334zM14 1a1 1 0 0 1 1 1v3a1 1 0 0 1-1 1h-3a1 1 0 1 1 0-2h.586C10.702 3.334 9.417 3 8 3c-.645 0-1.26.123-1.826.345L4.669 1.84A7 7 0 0 1 8 1c1.72 0 3.62.416 5 1.567V2a1 1 0 0 1 1-1M2 1a1.003 1.003 0 0 0-.71 1.71l12 11.99c.18.19.43.3.71.3a1.003 1.003 0 0 0 .71-1.71L2.71 1.3A.97.97 0 0 0 2 1"/>
</svg>
