<svg xmlns="http://www.w3.org/2000/svg" viewBox="0 0 16 16">
  <path d="M2 8a6 6 0 0 1 6-6V0a8 8 0 1 0 6 13.292V14a1 1 0 1 0 2 0v-3a1 1 0 0 0-1-1h-3a1 1 0 1 0 0 2h.472A5.98 5.98 0 0 1 8 14a6 6 0 0 1-6-6m14-.07-2 .02a6 6 0 0 0-.218-1.557l1.928-.532a8 8 0 0 1 .29 2.07m-1.105-3.992-1.723 1.016a6 6 0 0 0-.965-1.233l1.4-1.427c.496.486.93 1.038 1.288 1.644m-2.956-2.901-.986 1.74a6 6 0 0 0-1.451-.588l.501-1.936a8 8 0 0 1 1.936.784m-4.384 4.13A1 1 0 0 0 6 6v4a1 1 0 0 0 1.555.832l3-2a1 1 0 0 0 0-1.664z"/>
</svg>
