<svg xmlns="http://www.w3.org/2000/svg" viewBox="0 0 16 16">
  <path d="M10.586 11a1 1 0 0 1 .707.293L13 13h2v2H1v-2h2l1.707-1.707A1 1 0 0 1 5.414 11zM8 8a1 1 0 1 1 0 2 1 1 0 0 1 0-2M5.2 6.153c1.07-1.428 4.238-1.628 5.568-.04.35.43.29 1.06-.13 1.41-.43.35-1.06.29-1.41-.13-.47-.57-2.11-.47-2.43-.04-.33.44-.96.53-1.4.2s-.529-.96-.199-1.4M2.302 4.278c3.12-3.039 8.278-3.039 11.387.01.4.38.4 1.01.02 1.41s-1.02.409-1.41.019c-2.339-2.289-6.258-2.289-8.598 0-.4.38-1.04.36-1.42-.03a.996.996 0 0 1 .02-1.41"/>
</svg>
