<svg xmlns="http://www.w3.org/2000/svg" viewBox="0 0 16 16">
  <path d="M5.474 7.971A5.3 5.3 0 0 0 6.66 8.9l.007.019.018.056c.015.038.038.06.045.098l1.5 5.999a.75.75 0 0 1-1.455.36l-.42-1.68h-.704l-.42 1.68a.746.746 0 0 1-.907.547.746.746 0 0 1-.547-.907l1.5-6c.007-.037.03-.06.044-.097.015-.037.015-.075.038-.112a.7.7 0 0 1-.105-.36c0-.207.084-.394.22-.53M2.795 5.277a.763.763 0 0 0-.015-1.065.756.756 0 0 0-1.065.015c-2.286 2.34-2.286 6.21 0 8.549a.747.747 0 1 0 1.072-1.042c-1.709-1.763-1.709-4.702.008-6.457m5.013 4.111a5.3 5.3 0 0 0 1.58.211 2.24 2.24 0 0 1-.656.98.756.756 0 0 1-1.057-.098.756.756 0 0 1 .097-1.057zm3.736-.283.378.378a6.02 6.02 0 0 1-1.638 3.285c-.285.3-.757.3-1.057.015a.74.74 0 0 1-.015-1.057 4.5 4.5 0 0 0 1.185-2.24q.602-.126 1.147-.381m-7.49.319c-.427-.352-.352-1.582-.03-1.822a.75.75 0 0 0 .15-1.05.75.75 0 0 0-1.05-.15c-1.079.802-1.221 3.18-.03 4.177a.75.75 0 1 0 .96-1.155M9.318 0a4.32 4.32 0 0 1 4.317 4.318c0 .206-.02.402-.049.598-.01.05-.01.088-.02.138a5 5 0 0 1-.137.569v.01a5 5 0 0 1-.216.54l-.039.087a5 5 0 0 1-.294.51l2.884 2.886a.88.88 0 0 1 .236.559.787.787 0 0 1-.785.785.8.8 0 0 1-.56-.226L11.772 7.89a5 5 0 0 1-.51.295l-.089.039a5 5 0 0 1-.54.216h-.01a4 4 0 0 1-.568.137c-.05.01-.099.02-.138.02-.196.03-.392.049-.598.049A4.32 4.32 0 0 1 5 4.327 4.33 4.33 0 0 1 9.318 0m-.02 1.1A3.195 3.195 0 0 0 6.1 4.298a3.195 3.195 0 0 0 3.198 3.198 3.195 3.195 0 0 0 3.198-3.198A3.195 3.195 0 0 0 9.298 1.1"/>
</svg>
