<svg xmlns="http://www.w3.org/2000/svg" viewBox="0 0 16 16">
  <path d="M5.287 6.281a.98.98 0 0 1 1.373 0l2.059 2.04.066.073A.955.955 0 0 1 8.72 9.68l-2.06 2.039a.98.98 0 0 1-1.373 0 .955.955 0 0 1 0-1.36l.171-.17c-.66.104-1.262.246-1.773.422-.78.27-1.318.607-1.551.974a.73.73 0 0 0-.116.556q.058.277.347.544c.385.352 1.06.66 1.946.891s1.948.374 3.066.413a17 17 0 0 0 3.257-.191c1.01-.164 1.862-.42 2.458-.738a2.4 2.4 0 0 0 .681-.512.9.9 0 0 0 .216-.407l.014-.141a1 1 0 0 1 2 0c0 1.569-1.26 2.446-1.97 2.824-.862.46-1.95.764-3.078.947-1.15.188-2.41.26-3.647.217-1.234-.043-2.446-.202-3.501-.476-.997-.26-2.048-.67-2.791-1.35-.392-.359-.804-.89-.955-1.608a2.73 2.73 0 0 1 .385-2.042c.614-.965 1.71-1.488 2.585-1.79.815-.282 1.759-.478 2.747-.594l-.49-.487a.955.955 0 0 1 0-1.36m3.059-6a.98.98 0 0 1 1.373 0 .955.955 0 0 1 0 1.36l-.408.402c1.118.074 2.201.245 3.145.515.994.283 2.125.757 2.843 1.601.402.473.742 1.15.7 1.977-.041.81-.433 1.437-.84 1.86-.747.778-1.87 1.225-2.893 1.498a1 1 0 1 1-.516-1.932c.922-.246 1.606-.577 1.967-.952.18-.188.275-.383.285-.576q.016-.291-.227-.579c-.322-.379-.973-.718-1.869-.974a13 13 0 0 0-2.493-.424l.306.302a.955.955 0 0 1 0 1.36.98.98 0 0 1-1.373 0l-2.059-2.04a.955.955 0 0 1 0-1.359zm-5.4 2.47a1 1 0 0 1 .672 1.884c-.595.212-1.045.465-1.317.742-.278.283-.357.577-.256.86a1 1 0 0 1-1.884.67c-.435-1.22.081-2.288.714-2.931.576-.587 1.35-.967 2.071-1.225"/>
</svg>
