<svg xmlns="http://www.w3.org/2000/svg" viewBox="0 0 16 16">
  <path d="M6.006 3.101A6.98 6.98 0 0 0 4 8c0 1.866.736 3.611 2.002 4.9Q5.515 13 5 13a5 5 0 1 1 1.006-9.899M16 8a5 5 0 0 0-6-4.9A7 7 0 0 1 12 8c0 1.865-.736 3.61-2 4.9q.486.1 1 .1a5 5 0 0 0 5-5m-3 0c0-1.37-.348-2.695-.999-3.873l.154.042A4 4 0 0 1 15 8l-.005.2a4 4 0 0 1-2.84 3.63l-.155.043.162-.305A8 8 0 0 0 13 8M8.001 4A5 5 0 0 1 10 8a5 5 0 0 1-1.999 3.999 4.99 4.99 0 0 1-2.001-4 4.99 4.99 0 0 1 1.918-3.937zM8 5.354l-.11.13A3.98 3.98 0 0 0 7 8c0 .957.337 1.856.928 2.563l.072.08.072-.08c.542-.648.87-1.458.921-2.325L9 8c0-.956-.337-1.855-.928-2.562z"/>
</svg>
