<svg xmlns="http://www.w3.org/2000/svg" viewBox="0 0 16 16">
  <path d="M12 1a.999.999 0 1 1 2 0v1h1a1 1 0 0 1 .83.44 1 1 0 0 1-.02 1.148A1 1 0 0 1 15 4h-1v1a1 1 0 0 1-.49.86 1 1 0 0 1-.9.061A1 1 0 0 1 12 5V4h-1a1 1 0 0 1-.83-.44 1 1 0 0 1 .033-1.164A1 1 0 0 1 11 2h1zm2 6.83a3 3 0 0 0 1.872-1.959q.065-.02.128-.042V14c0 .6-.4 1-1 1H1a1 1 0 0 1-1-1V2c0-.5.4-1 1-1h7.764A3 3 0 0 0 8 3c0 .768.289 1.47.764 2H2v8h12zm-6.64 3.89L5 9.363V10a1 1 0 0 1-2 0V7a1 1 0 0 1 1-1h3a1 1 0 0 1 0 2h-.645l2.365 2.362a.962.962 0 0 1-1.36 1.359"/>
</svg>
