<svg xmlns="http://www.w3.org/2000/svg" viewBox="0 0 16 16">
  <path d="M5.7 1.4c-.71.49-1.29 1.07-1.76 1.73-.71 1.01-1.29 2.25-1.74 3.7-.45 1.46-.67 2.82-.67 4.1 0 .81.2 1.69.59 2.63l-.13.42C.66 12.23 0 10.48 0 8.73c0-1 .22-1.99.67-2.98.52-1.15 1.3-2.17 2.32-3.05.79-.69 1.73-1.25 2.84-1.7zM10.54 4c.28 0 .48.07.63.22.15.14.22.34.22.59 0 .23-.07.42-.22.57-.14.15-.32.22-.54.22-.15 0-.34-.02-.54-.08a2.4 2.4 0 0 0-.43-.08c-.2 0-.4.07-.59.22-.26.2-.57.63-.95 1.28.298 1.044.558 1.795.772 2.261l-.976.42a1.5 1.5 0 0 0-.615.48L7.3 10.1c-.16-.32-.36-.82-.58-1.51-.58.73-1.03 1.26-1.36 1.59s-.6.55-.82.65-.45.15-.7.15c-.26 0-.46-.07-.61-.22a.78.78 0 0 1-.23-.57c0-.24.08-.45.24-.61s.37-.24.62-.24c.13 0 .28.04.45.11.24.12.42.18.53.18q.225 0 .39-.09c.15-.07.33-.23.56-.47.14-.15.4-.47.77-.96Q5.84 5.5 5.45 4.99c-.17-.22-.38-.33-.64-.33-.13 0-.3.02-.49.06l.05-.27 2.59-.44c.47.72.8 1.52.97 2.38.49-.7.85-1.2 1.1-1.48.33-.38.61-.63.82-.74.22-.11.45-.17.69-.17m2.3-3c1.33 1.75 1.99 3.5 1.99 5.23q0 1.328-.508 2.632l-1.68-.721q.088-.283.168-.57c.33-1.25.5-2.421.5-3.511 0-.82-.2-1.69-.59-2.64zM8.275 11.445l3.5 1.5a.5.5 0 0 0 .45 0l3.5-1.5a.5.5 0 0 0-.03-.905L12.2 9.04a.5.5 0 0 0-.395 0l-3.495 1.5a.496.496 0 0 0-.035.905M15.5 12.5q-.12.001-.225.055L12 14l-3.275-1.445a.498.498 0 1 0-.45.89l3.5 1.5a.5.5 0 0 0 .45 0l3.5-1.5A.5.5 0 0 0 16 13c0-.275-.225-.5-.5-.5"/>
</svg>
